<?xml version="1.0" encoding="UTF-8"?>
<svg id="Layer_2" data-name="Layer 2" xmlns="http://www.w3.org/2000/svg" viewBox="0 0 389.89 327.22">
  <defs>
    <style>
      .cls-1 {
        fill: #d9ecd1;
      }

      .cls-2 {
        fill: #54b555;
      }

      .cls-3 {
        fill: #3e8f43;
      }

      .cls-4 {
        fill: #95cd83;
      }

      .cls-5 {
        fill: #b2d3b2;
      }

      .cls-6 {
        fill: #c8e5c9;
      }
    </style>
  </defs>
  <g id="Layer_2-2" data-name="Layer 2">
    <g>
      <path class="cls-4" d="m260.7,260.01c-.15-.88-.14-1.75,0-2.63.03-.33.2-.52.54-.54,1.36.02,2.75-.52,4.05.3-.51,1.08-.23,2.24-.24,3.36,0,.75-.23,1.02-.97.99-1.04-.05-2.09-.02-3.14-.03-.5-.18-.35-.54-.25-.9,0-.18,0-.37,0-.55Z"/>
      <path class="cls-3" d="m145.92,47.51c-.64,0-1.29,0-1.93,0-.6-.2-1.2-.28-1.8.03-.58.82-.22,1.74-.23,2.61,0,.9-.19,1.22-1.17,1.2-2.2-.06-4.4.03-6.6.06-.59,1.48-.11,3.03-.29,4.54-1.15.52-2.36.21-3.54.26-.59.03-.81.14-.84.79-.1,2.09-.14,2.09-2.27,2.1-.48,0-.96.04-1.43.07-.42.39-.21.9-.23,1.35-.07,2.38-.06,2.33-2.45,2.4-1.69.05-3.41-.38-5.07.25-.04,1.31-.08,2.62-.13,3.93-.33.02-.67.06-1,.07q-3.84.08-3.51,4.05c-.01.08-.04.16-.07.23-2.06,0-4.13-.01-6.19.02-.42,0-.97-.29-1.27.31-.15,1.08.45,2.49-.24,3.18-.69.69-2.09.25-3.17.2-1.89-.09-1.16,1.28-1.15,2.06.02,1.23-.1,1.87-1.63,1.79-2.93-.16-3.43.69-2.48,3.69-.45.24-.94.11-1.41.13-2.23.08-4.47-.15-6.7.13-.09-.02-.16.01-.22.08-.56,1.08-.15,2.24-.22,3.35-.03.54.03,1.06-.64,1.25-1.14-.21-2.27-.49-3.45-.25-.66,1.39-.16,2.86-.26,4.29,0,0-.03.06-.03.06-1.29-.01-2.58-.08-3.87-.02-1.2.05-2.44-.32-3.61.26-.03.96-.08,1.92-.06,2.87,0,.62-.22.9-.84.83-.14-.01-.29,0-.43,0-.95.03-2.14-.27-2.8.19-.74.51-.21,1.78-.28,2.71-.04.6-.21.87-.85.85-.96-.03-1.93.07-2.88,0-.93-.08-1.11.32-1.12,1.15-.06,2.65-.09,2.65-2.75,2.64-.05,0-.1,0-.14,0-2.53,0-2.57,0-2.58,2.45,0,.83-.25,1.05-1.05,1.04-1.04-.01-2.4-.46-3.05.2-.7.72-.22,2.1-.24,3.19-.04,2.07-.01,2.07,2.01,2.08,6.82,0,13.64.03,20.46-.02,1.06,0,1.47.15,1.47,1.37-.04,64.88-.03,129.77-.03,194.65,0,2.55-.01,2.57-2.57,2.57-12.78,0-25.55,0-38.33.01q-2.32,0-2.37-2.3.17-2.03-1.82-2.04c-1,0-2-.02-2.99-.03-.01-.14-.04-.28-.04-.42-.05-2.51-.05-2.53-2.45-2.71-.55-.04-.74-.19-.74-.73.01-1-.03-1.99-.04-2.99-1.2-.55-2.47-.13-3.71-.26-.03-.11-.06-.22-.09-.33.03-.19.09-.37.09-.56,0-10,0-20,0-30,0-.3.16-.69-.27-.87-2.83-.02-5.66-.09-8.49-.05-.99.01-1.43-.23-1.29-1.27.06-.42-.04-.87.01-1.29.08-.73-.26-.85-.91-.88-.97-.05-1.98.32-2.91-.25,0-.11-.01-.22-.02-.33,0-.18,0-.35,0-.53.03-.57.08-1.14.08-1.71,0-.39.13-.95-.61-.8-.94,0-1.88-.01-2.83-.02-.11-.01-.23-.02-.34-.03-.54-.87-.23-1.84-.24-2.75-.01-.79-.19-1.11-1.03-1.04-.8.06-1.62-.02-2.43-.04,0-6.91,0-13.82-.01-20.73,0-3.34,0-3.41-3.37-3.3-1.36.04-1.64-.4-1.64-1.68.04-13.72.02-27.45.03-41.18,0-7.97.04-15.93.06-23.9,0,0,0,0,0,0,1.63-.11,3.29.44,4.88-.3.02-1.33.04-2.66.05-3.99.71-.04,1.43-.11,2.14-.11q3.27-.01,2.97-3.39c.02-.76.03-1.52.05-2.28,4.04-.04,8.09-.08,12.13-.11.39.21.27.58.27.9,0,3.6-.03,7.19.03,10.79.01.92-.31,1.11-1.16,1.1-3.4-.04-6.81-.05-10.21.01-.92.02-1.15-.29-1.1-1.15.06-1.05,0-2.11-.02-3.16.06-.22-.03-.3-.24-.28q-2.58-.07-2.58,2.48c0,.1-.01.19,0,.29.25,1.36-.21,2.08-1.69,1.88-.45.32-.25.79-.25,1.19,0,17.47,0,34.95,0,52.42,0,.47-.13.96.17,1.4,1.46.58,2.98.12,4.46.26.52.05,1.05.02,1.57.02.01,8.1.02,16.21.06,24.31,0,.52-.28,1.15.3,1.58,1.13.02,2.27.04,3.4.05.02,1,0,1.99.08,2.99.09,1.2-.31,2.43.28,3.59.17.02.34.05.51.07,1.03.43,2.51-.43,3.1.43.53.77.22,2.11.29,3.2,0,.04.04.08.07.13.35.51.88.28,1.32.28,6.86.02,13.72,0,20.58.03,1.05,0,1.53-.16,1.5-1.37-.06-2.44.01-2.43,2.43-2.48.44,0,.96.26,1.32-.24.55-2.11.19-4.25.2-6.38.75-.47,1.59-.27,2.37-.21,1.17.08,1.54-.25,1.53-1.48-.05-7.25-.02-14.5-.01-21.75,0-.77.05-1.54,0-2.3-.06-.78.28-1,1.01-.97,1.01.05,2.03-.06,3.02.05,1.34.16,1.76-.23,1.75-1.67-.07-10.18-.04-20.36-.04-30.54,0-7.15.06-14.31-.04-21.46-.02-1.34-.76-2.66-.63-4.08.39-1.39-.11-1.95-1.55-1.77-.56.07-1.15.08-1.71,0-1.5-.22-1.87.45-1.52,1.77q-.07,2.85-2.95,2.86c-2.87,0-5.74-.03-8.6.03-.96.02-1.2-.28-1.19-1.21.05-3.82.02-7.65.02-11.47,4.22,0,8.44,0,12.66,0,.02,1.24.05,2.47.07,3.71-.24.82-.02,1.24.93,1.2,1.69-.07,3.39-.07,5.08-.1.54,1.62.03,3.31.3,4.95,1.58.73,3.25.17,4.87.31,0,0,0,0,0,0,0,22.2,0,44.4,0,66.6,0,0,0,0,0,0-1.62.16-3.28-.36-4.86.31-.03,7.44-.09,14.89-.05,22.33,0,1.3-.36,1.62-1.61,1.57-2.43-.08-2.43,0-2.39,2.86-.01.29-.02.59-.03.88,0,0,0,0,0,0-.09,0-.19,0-.28,0q-3.42,0-3.5,3.44c-.43.01-.86.03-1.3.03-2.43.02-2.5.02-2.43,2.39.03,1.11-.33,1.37-1.39,1.34-2.3-.08-4.61,0-6.91-.04-.76-.01-.98.24-.98.98.03,8.74.04,17.48.01,26.22,0,.94.52.81,1.1.82,2.14.04,2.23.05,2.11,2.2-.08,1.38.41,1.77,1.68,1.6,1.3-.18,2.36-.11,2.11,1.74-.12.88.74.55,1.17.55,5.09.02,10.18.01,15.27,0,2.93,0,5.86,0,8.79,0,2.15,0,2.15,0,2.15-2.09,0-26.32,0-52.64,0-78.96,0-31.65,0-63.3,0-94.95,0-.72-.04-1.44-.06-2.16-.39-.56-.97-.29-1.45-.29-7.49-.02-14.97-.02-22.46-.02-.04-.08-.07-.17-.09-.26.03-.47.09-.95.09-1.42,0-8.09,0-16.17,0-24.26,1.29-.21,2.92.59,3.8-.4.79-.89.16-2.45.27-3.71.03-.33.02-.66.02-.99,1.23-.05,2.46-.09,3.7-.14,1.24,0,2.47,0,3.71-.01.62.02.49-.46.48-.8-.01-1.55-.05-3.09-.08-4.64.06-.05.12-.1.17-.15,2.62.28,5.25.1,7.88.11.44,0,.96.25,1.32-.26.03-1.05.16-2.12.07-3.16-.12-1.36.45-1.82,1.72-1.71.28.02.57-.04.86-.07.46-.62.15-1.31.21-1.97,0,0,.06-.05.06-.05,1.93-.03,3.87.35,5.77-.23,0,0,0,0,0,0,.37-.35.21-.8.22-1.21q.08-3.95,4.14-3.4c.93,1.28,2.25.5,3.36.51.69,0,.34-.95.37-1.46.07-1.2.03-2.4.04-3.6.38-.04.76-.07,1.14-.11.36,0,.72-.02,1.08-.02.71-.67.2-1.5.28-2.25,0,0,.03-.04.03-.04,1.37,0,2.75.06,4.12-.01,1.2-.06,2.44.29,3.6-.27.03-1.2.12-2.39.08-3.59-.03-.78.26-1.05.99-.97.19.02.38,0,.58,0,2.1,0,2.14,0,2.19-2.09.02-.63.17-.81.8-.82.79-.01,1.58-.19,2.37-.3.04.02.09.05.13.04.03,0,.08-.05.08-.08.03-1.32.05-2.64.08-3.96,2.39.93,4.88.5,7.34.64,1.24.07,1.59-.58,1.61-1.62.01-.67,0-1.34-.01-2.01,0-.57-.14-1.15.81-1.09.52.03.64-.46.64-.93,0-.53.02-1.05.03-1.58,1.77-.01,3.53.02,5.3-.05.81-.03,1.7.32,2.45-.29,0,0,0,0,0,0,.5-1.61.02-3.28.29-4.9.86-.02,1.72-.03,2.58-.05,1.27.02,2.54.1,3.81.05.64-.02,1.38.35,1.94-.31.02-1.52.03-3.04.05-4.56.68-.04,1.36-.08,2.04-.12.37,0,.73,0,1.1,0q3.68.4,3.72-3.21c0-.1.01-.19,0-.29-.14-.89.25-1.14,1.12-1.12,2.25.07,4.5.02,6.74.07.88.02,1.19-.28,1.14-1.16-.07-1.14-.05-2.29-.06-3.44.03-.65.06-1.3.09-1.96,2.24-.01,4.49-.03,6.73-.04.6,0,1.24.05.98-.89.02-1.24.04-2.48.05-3.72,2.57,0,5.15,0,7.72-.05.47,0,1.06.3,1.41-.31-.44-1.25-.11-2.54-.2-3.8-.02-.26.09-.52.38-.47,1.68.25,1.34-.92,1.34-1.86,0-.24,0-.47.01-.71,1.66-.02,3.32,0,4.97-.07.51-.02,1.14.32,1.54-.3,0-1.22,0-2.44.01-3.66,0-.12,0-.23,0-.35.02-.09.05-.17.09-.24.2-.03.4-.06.6-.09,2.3-.25,4.58.68,6.91.12.66-.16.89-.3.85-.95-.03-.57.06-1.15.02-1.72-.09-1.2-.07-2.21,1.64-1.91.91.16.67-.65.62-1.08-.14-1.1.27-1.5,1.34-1.28.14.03.29.01.43.01,1.05-.02,2.35.33,3.09-.17.82-.55.27-1.95.31-2.97.03-.67.21-.91.9-.9,4.31.03,8.63.04,12.94,0,.81,0,.9.31.93,1,.04.91-.31,1.88.25,2.74.11,0,.22.01.33.02.27,0,.53.01.8.02.22.05.44.1.66.15,0,0,.03.06.03.06.04,1.15-.38,2.34.26,3.45,2.1.01,4.2.05,6.3.02.67,0,.99.17.93.86-.02.62.01,1.24-.07,1.84-.15,1.09.31,1.49,1.36,1.35.33-.04.66-.05.99-.07,1.14,0,2.28,0,3.41,0,.38.03.77.07,1.15.1,0,1.77,0,3.55.04,5.32,0,.44-.24.95.23,1.32.45.4,1,.21,1.51.22,1.9.04,3.81.05,5.72.06.01,1.43.03,2.85.04,4.28,1.4.7,2.88.2,4.32.26.72,0,1.49.18,2.13-.05.96-.33,1.02.03,1.04.81.07,2.72.09,2.72,2.86,2.74.19,0,.38,0,.57.01.26,1.4-.33,2.87.35,4.23.36.01.73.03,1.09.04.59.13,1.17.13,1.76,0,.37,0,.75-.01,1.12-.02.11,0,.21.01.32.02,1,0,2.04.15,3-.06.87-.19,1.02.08,1.03.78.03,1.1.06,2.2.09,3.3,1.66.67,3.41.06,5.09.35q-.04,3.15,3.15,3.17c.29,0,.57.02.86.02.04.1.07.2.11.29,0,.17,0,.35,0,.52-.03.47-.01.95-.09,1.42-.19,1.21.33,1.56,1.51,1.51,2.1-.1,4.2-.06,6.3-.07.39,1.2.14,2.44.2,3.66.03.58.06.94.82.99,2.09.13,2.08.18,2.15,2.31.27.62.82.31,1.23.31,1.88.03,3.77,0,5.65,0,0,0,0,0,0,0,0,1.23.04,2.47,0,3.7-.03.82.19,1.23,1.11,1.18,1.66-.08,3.32-.07,4.98-.1,0,0,.07.07.07.07.02.29-.19.64.22.83q2.55.22,2.56,2.8c0,.42.04.84.07,1.27,1.79.62,3.62.09,5.43.24.44.44.24.99.25,1.5.07,2.33.06,2.33,2.46,2.34.33,0,.67,0,1,.01.02,1.09.06,2.19.04,3.28-.01.69.16,1.07.95,1.05,2.28-.06,4.55-.07,6.83-.1.54.65.14,1.43.27,2.13.09.48-.23,1.03.24,1.45,1.54.51,3.11.22,4.68.2,0,0,.03.02.03.02,0,.12,0,.23,0,.35,0,0-.02.02-.02.02-.4.13-.75.29-.59.82-.23,1.25.16,1.95,1.57,1.71.83-.14,1,.24,1.01,1.02.03,3.12.06,3.12,3.16,3.05.28,0,.57-.05.85-.08,1.35,0,2.71.02,4.06.03,0,0,.03.02.03.02.17,1.44-.21,2.92.24,4.35h0c.35.51.87.25,1.31.26,1.57.05,3.15.04,4.72.06.01,1.43.06,2.87.02,4.3-.02.7.24.91.91.9,1.58-.03,3.16.08,4.73-.02,1.13-.08,1.42.34,1.31,1.37-.07.66.03,1.33.06,2,1.78.6,3.61.26,5.42.22.54,1.23.17,2.53.22,3.79.03.81-.05,1.62.36,2.37-.02.21.07.3.28.25,1.38.02,2.76.07,4.15.03.79-.02,1.1.21,1.04,1.03-.06.8.01,1.62.02,2.43,1.49.69,3.06.21,4.59.27.28.21.18.52.18.79.01,6.56.02,13.13.02,19.69,0,.32.11.68-.19.94-6.29-.02-12.58-.03-18.86-.04-.27,0-.59-.06-.74.29-.03,3.26-.08,6.53-.08,9.79,0,55.56,0,111.11-.03,166.67,0,1.37.28,1.75,1.7,1.73,8.11-.08,16.23-.05,24.35-.02,1.13,0,2.04,0,1.75-1.54-.13-.69.31-.76.87-.76.9,0,2.07.24,2.63-.22.61-.5.3-1.73.17-2.6-.19-1.33,1.06-1.24,1.43-1.19,2.03.3,1.88-.94,1.8-2.23-.02-.33,0-.67,0-1.01.39-.46.25-1.01.25-1.52,0-10.71,0-21.42-.01-32.13,0-.38.26-.89-.31-1.13-.17,0-.33-.02-.5-.03-1.53-.03-3.05-.1-4.58-.09-4.83.02-9.66.06-14.48.1-.12-.12-.23-.24-.35-.36.03-.33.08-.66.08-1,0-16.89,0-33.77,0-50.66,0-.38-.06-.76-.09-1.14.02-.1.05-.19.07-.29,17.3,0,34.61,0,51.91.01,0,0,0,0,0,0,0,17.78-.01,35.56-.02,53.33,0,0,0,0,0,0-6.57,0-13.13-.01-19.7.02-.52,0-1.15-.28-1.56.31-.02,11.19-.04,22.38-.05,33.57,0,2.35-.04,4.71.01,7.06.02.84-.15,1.29-1.09,1.13-.23-.04-.48,0-.72,0q-1.96,0-1.96,1.99c0,.34-.04.68,0,1.01.1.8-.2,1.17-1.03,1.04-.14-.02-.29,0-.43,0-1.99.02-2.06.02-1.97,1.93.06,1.21-.32,1.58-1.53,1.55-2.56-.07-2.63,0-2.55,2.65.03,1.19-.36,1.4-1.45,1.39-13.69-.04-27.38-.06-41.07.01-1.59,0-1.83-.51-1.83-1.92.03-33.39.02-66.77,0-100.16,0-.58-.03-1.15-.05-1.73-.38-.58-.97-.28-1.44-.28-8.55-.02-17.09,0-25.64-.02-10.85,0-21.7-.03-32.55-.04-.02-.27-.05-.54-.07-.81.12-.49.13-.99,0-1.48,0-1.04,0-2.08,0-3.13.14-.69.14-1.37,0-2.06.01-.67.03-1.34.04-2.01,5.31-.02,10.63-.03,15.94-.06.76,0,1.53.13,2.27-.17.27,0,.53-.01.8-.02.11.1.19.11.22-.07,0-2.1.02-4.19.03-6.29.38,0,.76-.02,1.14-.02,2.36,0,2.31,0,2.39,2.4.04,1.33-.38,2.69.27,3.98,1.34.06,2.68.11,4.02-.08.58-1.67.08-3.4.26-5.09.04-.37-.15-.92.25-1.05.96-.31,2.02-.31,2.96-.08.64.15.23,1,.28,1.53.17,1.57-.36,3.19.32,4.73,5.56.12,11.13.14,16.69-.03,2.71.09,5.42.13,8.12,0,3.79.43,3.78.43,3.78-3.22,0-26.69,0-53.39-.05-80.08,0-1.2.38-1.39,1.46-1.38,4.9.05,9.79-.01,14.69.03.96,0,1.24-.28,1.19-1.21-.08-1.34-.04-2.69-.05-4.03-1.89-.66-3.84-.21-5.76-.28-.59-.91-.22-1.93-.26-2.89-.03-.67-.17-.93-.88-.9-1.1.05-2.21-.02-3.31.02-.68.02-1.01-.1-1.04-.92-.1-2.84-.14-2.94-3.07-2.84-1.51.05-1.93-.44-1.78-1.85.09-.8-.04-1.62-.07-2.43-.36-.47-.88-.26-1.32-.27-1.96-.03-3.91,0-5.87,0,0,0-.02-.03-.02-.03-.09-1.45.3-2.93-.24-4.35-1.18,0-2.37-.04-3.55.01-.76.03-1.2-.12-1.07-1,.09-.63.01-1.14-.85-1.03-.68.09-.6-.42-.61-.85-.02-1.14-.04-2.28-.06-3.43-.04-.32-.29-.34-.53-.34-2.4.02-4.8.05-7.19.08-.1-.02-.2-.04-.3-.05-.21-1.51.31-3.07-.29-4.56-1.29-.03-2.58-.11-3.86-.06-.82.03-1.1-.21-1.03-1.03.07-.81,0-1.62,0-2.43-.26-.56-.75-.28-1.13-.29-1.62-.04-3.25-.03-4.88-.03-.16-1.22.53-2.86-.32-3.56-.72-.6-2.29-.19-3.49-.2q-2.58-.04-2.59-2.66c0-.62-.04-1.25-.06-1.87-2.18-.48-4.35-.39-6.53-.03-.09.04-.18.07-.28.11-.31-.02-.62-.03-.92-.05,0,0-.03-.04-.03-.04-.1-1.31.39-2.66-.3-3.92-.16-.01-.32-.02-.49-.03-1.15-.04-2.3-.09-3.45-.13-.2-1.08.2-2.2-.24-3.26-1.36-.33-2.75-.02-4.11-.18-.02-1.33-.03-2.66-.05-3.99-.08-.39-.4-.33-.67-.33-1.79,0-3.57.03-5.36.05-.47,0-.94,0-1.42,0-.1,0-.2-.02-.31-.03-.56-.87-.23-1.84-.25-2.76-.01-.78-.18-1.12-1.03-1.06-.86.07-1.73-.05-2.59.02-.97.08-1.41-.18-1.31-1.24.08-.8-.04-1.62-.07-2.44-1.05-.37-2.11-.28-3.17-.09-1.02,0-2.04,0-3.06,0-1.35-.34-.45-1.57-.89-2.27,0-.18,0-.35,0-.52.15-.21.15-.42,0-.63-.01-.28-.02-.55-.04-.83-1.03-.54-2.12-.23-3.18-.18-.37,0-.74-.01-1.1-.02-.11-.03-.22-.06-.32-.09,0,0,0,0,0,0-.21-1.41.35-2.87-.33-4.24-.75-.01-1.49-.03-2.24-.04-1.07-.13-2.14-.12-3.21.01-1.98-.08-1.96-.08-2-2.1-.01-.58.27-1.23-.27-1.74-1.33-.39-2.71-.01-4.04-.29-.02-.66-.05-1.32-.07-1.98,0-.21,0-.41,0-.62-.01-.26-.02-.53-.03-.79-.3-.58-.84-.29-1.26-.3-1.84-.05-3.69-.04-5.53-.05-.01-1.04-.03-2.08-.05-3.11,0-.41.11-.9-.54-.92-2.02-.54-4.06-.18-6.1-.2-.4-.2-.28-.58-.26-.89.1-1.44.23-2.87-1.99-2.35-.52.12-.61-.26-.61-.7,0-1-.02-2.01-.04-3.01-.3-.59-.84-.3-1.26-.31-2.14-.05-4.29-.05-6.43-.07-.03-1.22-.06-2.44-.1-3.66-.74-.62-1.63-.31-2.42-.28-1.57.05-3.17-.35-4.7.29-.03,1.22-.06,2.44-.09,3.66-1.15.02-2.31,0-3.46.06-1.18.08-2.7-.55-3.45.27-.73.8-.15,2.3-.23,3.48,0,0-.01.01-.01.01-1.45.12-2.94-.27-4.37.23-.52,1.13-.14,2.32-.24,3.48-.07.87-.34,1.18-1.11.52-1.5-.55-3.05-.17-4.58-.22-.58-.02-1.3-.38-1.79.3-.04,1.18.34,2.66-.23,3.46-.55.76-2.12.22-3.24.26-.67.02-.92.19-.89.89.04,1.04,0,2.09-.02,3.13-1.39.01-2.78.04-4.17.03q-3.84-.02-3.9,3.73c-.98.02-1.92.46-2.93.33-.72-.09-.52.52-.54.9-.17,2.83-.17,2.82-3.01,2.81-1.57,0-3.14.03-4.72.05-.57,1.07-.17,2.21-.27,3.32-.05.53.03,1.06-.66,1.22Zm233.86,173.53c-.02-.19-.04-.38-.05-.57-.08-2.99-.08-3.03-3.04-3.09-.89-.02-.98-.37-.98-1.11,0-2.63-.02-2.63-2.7-2.67-.1,0-.19,0-.29,0-.83.09-1.05-.33-1.07-1.11-.06-2.3-.09-2.3-2.41-2.37-.05,0-.1-.01-.14-.02-.13-.24-.36-.29-.6-.29-2.7.02-5.4.05-8.09.07-.85,0-1.7,0-2.55.01-.11,0-.22,0-.33-.01-1.1.54-2.29.07-3.41.32-.5.67-.19,1.44-.22,2.16-.03.59-.15.99-.75,1.14-.53,0-1.05,0-1.58,0-.15-.17-.3-.16-.43.02-.82,0-1.16.52-1.05,1.21.26,1.67-.32,2.29-2.03,2.07-1.16-.15-2.01.28-1.76,1.74.09.56-.02,1.15.02,1.72.05.63-.19.79-.81.83-2.08.12-2.07.15-2.08,2.27,0,.38-.02.77-.02,1.15-.38.46-.21,1.01-.22,1.51-.02,2.72-.02,5.43,0,8.15,0,.45-.2.96.23,1.35-.02,1.14-.25,2.43,1.65,2.01.3-.07.62.21.65.47.09,1.06.9,1.96.62,3.11-.31,1.3.29,1.85,1.58,1.6,1.38-.26,1.66.38,1.6,1.63-.09,1.84.34,2.3,1.86,2.39.29.02.58.05.86,0,1.35-.24,1.79.35,1.59,1.62-.04.23.02.48,0,.72-.08.65.24.85.83.82,2.15-.11,4.27.41,6.44.32,2.91-.12,5.82.02,8.73-.27,1.84-.18,1.9-.04,1.85-1.92-.02-.91.07-1.34,1.19-1.31,3.02.08,3.06.01,3.14-3.06.02-.77.25-1,.99-.97.91.04,1.82-.03,2.73-.05.61-1.01.3-2.11.24-3.15-.08-1.29.16-1.98,1.63-1.75.25.04.99.38.77-.5-.56-1.14.87-1.61.86-2.59-.02-3.04-.02-6.09-.02-9.13,0-.43.04-.88-.55-.99-.03-.86-.05-1.73-.08-2.59-.01-.17-.02-.34-.03-.51-.82-.76-1.84-.16-2.74-.39Z"/>
      <path class="cls-3" d="m99.92,228.08c1.31-.03,2.63.15,3.94-.09.49-.42.23-.99.24-1.48.03-2.73.06-5.47-.01-8.2-.03-1.05.24-1.43,1.34-1.39,1.07.03,2.19.27,3.23-.22.03-3.54.06-7.08.1-10.63,1.5-.26,3.06.34,4.53-.32.03-4.11.06-8.23.09-12.34.96-.02,1.92-.11,2.87-.05,1.07.06,1.52-.2,1.49-1.41-.1-3.07-.04-6.14-.04-9.2h0c1.42-.17,2.89.39,4.27-.32.02-8.6.07-17.2.04-25.79,0-1.21.19-1.82,1.52-1.56.23.05.49.05.72,0,1.29-.26,1.73.31,1.56,1.53-.03.23.05.47.07.71,1.2.51,2.44.2,3.67.17.05.06.1.11.16.16q-.45,3.74,3.16,3.75c.52,0,1.05-.02,1.57-.03.28,0,.55,0,.83,0,2.97.02,5.95-.01,8.92.1,1.22.04,1.51-.35,1.5-1.53-.04-9.31-.02-18.62-.03-27.93,0-.37.29-.88-.3-1.12-1.22-.18-2.86.53-3.55-.34-.59-.74-.14-2.3-.15-3.49-.02-3.65-.08-7.3-.05-10.94,0-.9-.25-1.12-1.13-1.11-2.88,0-2.9-.03-2.89,2.78,0,4.22.05,8.45.02,12.67,0,.94.16,1.36,1.24,1.32,2.44-.08,2.43-.02,2.45,2.4.01,2.16.05,4.32.08,6.48-.07,2.22-.17,4.44,0,6.66,0,1.81,0,3.63,0,5.44,0,.2,0,.4,0,.6-.01.29-.03.57-.03.86-.01,2.92-.02,2.76-2.86,2.94-2.63.17-5.12-.79-7.72-.63-.3.02-.67-.05-.62-.41.14-.98-.58-1.79-.57-2.66.01-1.15-.39-1.36-1.4-1.3-.65.04-1.58.42-1.65-.9-.02-.4-.77-.28-1.17-.23-1.05.12-1.42-.36-1.26-1.31.23-1.31-.36-1.67-1.58-1.59-1.24.08-2.49-.02-3.74,0-.68.02-1.03-.1-1.06-.92-.03-1.02.55-2.38-.32-2.96-.7-.47-1.96-.2-2.96-.11-1.1.1-1.37-.28-1.34-1.36.08-2.92.03-5.85.05-8.78,0-.51-.14-1.06.18-1.54,1.01.01,2.02-.04,3.01.05,1.09.1,1.39-.3,1.37-1.38-.06-3.55,0-7.09,0-10.64,1.16.36,2.28.28,3.47.01.7-.16.82-.38.81-1-.03-2.25.03-4.5-.05-6.75-.03-.99.22-1.31,1.25-1.27,2.54.08,2.54.03,2.53-2.51,0-2.33,0-2.4,2.29-2.3,1.02.04,1.55-.26,1.75-1.22q2.02.07,2.01-1.88c0-.52,0-1.04.01-1.57,1.3,0,2.59-.02,3.89.02.68.02,1.04-.08,1.03-.91,0-1.03-.51-2.44.25-2.99.7-.5,2.03-.14,3.08-.14,7.39,0,14.79.02,22.18-.02,1.02,0,1.35.29,1.28,1.29-.07.9.03,1.82.05,2.73.31.56.84.29,1.27.31,1.18.06,2.36.04,3.55.06.01.1.03.19.03.29.05,2.66.05,2.7,2.75,2.8.78.03.99.3.96,1.02-.04,1.2.06,2.41-.03,3.6-.09,1.15.24,1.54,1.48,1.54,8.45-.06,16.91-.04,25.36-.04.21,1.44.18,2.88.07,4.33-.91,0-1.82.07-2.72,0-.93-.08-1.14.31-1.09,1.15.07,1.04.04,2.1.05,3.15-.05.22-.07.42.26.27.3,0,.6,0,.89,0,.52.05,1.04.15,1.56.13.79-.04,1.09.24,1.09,1.06-.02,4.42-.01,8.83.01,13.25,0,.67-.22.91-.91.93-.98.03-2-.25-2.95.22-.57.97-.22,2.03-.24,3.04-.02.83-.28,1.08-1.07,1.02-.81-.05-1.64.07-2.44,0-.94-.09-1.1.31-1.11,1.15-.03,2.86-.06,2.86-2.89,2.87-2.01,0-4.03.02-6.04.03-.67,1.01-.21,2.11-.24,3.16-1.38.55-2.82.12-4.22.25-.71.07-1.43.06-2.15.08-.49.3-.25.78-.25,1.17-.03,6.46-.04,12.92-.05,19.38q0,4.27,4.31,3.74c.44.71.2,1.49.21,2.23.04,2.87-.02,5.74.04,8.61.02.91-.27,1.16-1.14,1.12-1.04-.06-2.1.03-3.15.05-.46.38-.21.89-.22,1.33-.06,2.61-.08,5.23-.12,7.84-.95,0-1.91.06-2.86,0-.88-.05-1.22.3-1.15,1.17.04.47-.04.96,0,1.43.08.68-.16.87-.85.89-2.32.07-2.32.11-2.32,2.45,0,.33,0,.67,0,1-.11.03-.22.06-.32.1-.18,0-.35,0-.53,0q-2.32-.25-2.33,2.05c0,.33-.01.66-.02.99-.38.01-.77.06-1.15.03-1.23-.1-1.93.33-1.72,1.69.18,1.19-.31,1.66-1.5,1.46-.37-.06-.77.03-1.15,0-.89-.1-1.12.28-1.12,1.15,0,2.55-.04,2.61-2.68,2.53-1.1-.03-1.37.29-1.35,1.36.06,2.76,0,2.82-2.84,2.77-1.09-.02-1.54.23-1.46,1.4.09,1.24-.02,2.49-.04,3.74-.57.04-1.14.07-1.71.11-.56,0-1.11,0-1.67,0-.69,1.59-.23,3.24-.26,4.86.11.9-.24,1.19-1.18,1.18-2.81-.04-2.67-.49-2.68,2.67,0,1.14-.11,2.3.02,3.43.16,1.37-.3,1.94-1.67,1.75-.28-.03-.57-.05-.85-.1-1.21-.2-1.58.34-1.49,1.5.11,1.52.09,3.04.13,4.56-.03.51-.05,1.01-.08,1.52-.12.06-.24.11-.36.17-1.04.02-2.08.05-3.12.07-.48.37-.23.88-.24,1.32-.03,2.43-.02,4.87-.03,7.3-1.32.57-2.73.07-4.08.33-.07.03-.2.04-.21.08-.03.14-.01.28-.01.43,0,17.51,0,35.01.02,52.52,0,.56-.14,1.15.19,1.69,1.33.56,2.67.29,4,.01.14,2.01.15,4.02.02,6.02-9.88,0-19.76,0-29.65,0-.03-.57-.04-1.13-.1-1.7-.13-1.14.34-2.32-.25-3.43-1.05-.03-2.11-.14-3.16-.07-.94.06-1.12-.31-1.1-1.15.06-2.54,0-5.09.06-7.63.02-.93-.15-1.35-1.23-1.34-2.62.04-2.62-.02-2.62-2.62,0-18.53,0-37.06.03-55.58,0-.49-.25-1.06.24-1.48,1,.1,2.01.16,3.01-.03.71-.17.46-.75.47-1.17.03-2.06.03-4.12.03-6.18.12-.08.23-.17.35-.25Zm58.79-115.63v2.83c0,.77,0,1.54,0,2.3,0,.42.06.83.58.8,1.89-.13,3.8.35,5.67-.24.01-1.91.02-3.81.03-5.72-1.29-.66-2.67-.22-4-.26-.74-.02-1.59-.38-2.26.29Z"/>
      <path class="cls-2" d="m182.38,188.34c.57-.31.34-.85.35-1.29.03-2.26.05-4.51,0-6.77-.02-.86.17-1.15,1.09-1.16,2.52-.02,2.54-.07,2.55-2.6.02-4.37.06-8.74-.01-13.11-.02-1.13.36-1.35,1.39-1.33,2.82.06,2.9.01,2.8-2.83-.05-1.35.38-1.69,1.66-1.61,1.91.11,2,.02,1.88-1.93-.08-1.37.18-2.05,1.73-1.78,1.29.23,2.02-.28,1.8-1.74-.1-.68.02-1.27.95-1.16.8.09.99-.34.95-1.04-.02-.43.06-.87.02-1.3-.07-.78.16-1.08,1.02-1.09,2.92-.03,2.92-.07,2.99-2.97,0-.05,0-.1,0-.14.04-.81-.15-1.74.21-2.38.17-.3,1.37-.06,2.09,0,.9.06,1.21-.26,1.31-1.21.21-2,.3-2.04,2.35-1.96.99.04,1.08-.39,1.52-1.22.7-1.33.45-2.64.78-3.91.27-1.02,1.44-.59,2.24-.64.83-.05.56.61.57,1.02.08,5.08-.56,10.13-.39,15.22.04,1.26.34,1.77,1.61,1.57.38-.06.77-.05,1.15,0,.82.09,1.08-.24,1.06-1.06-.05-2.74.02-5.48-.06-8.21-.03-1.05.22-1.54,1.33-1.34.23.04.48-.03.72,0,1.14.16,1.74-.21,1.54-1.46-.17-1.08.21-1.62,1.39-1.41.37.07.78.06,1.15,0,.95-.16,1.09.29,1.09,1.13-.02,4.99.01,9.99.03,14.98.33.82.91.52,1.47.33,2,.11,2.09.11,2.05,2.1-.02,1.32.41,1.72,1.71,1.66,1.95-.09,1.95,0,1.97,1.86.01,1.84.01,1.9,2.05,1.83,1.19-.04,1.79.14,1.69,1.57-.13,1.9-.02,1.9,1.86,1.91.53,0,1.05,0,1.58.01.06.12.13.25.19.37,0,1.15.06,2.3,0,3.45-.05.88.26,1.14,1.14,1.15,2.44.02,2.45.06,2.45,2.47,0,4.07-.04,8.15.01,12.22.01,1.02-.18,1.55-1.31,1.35-.28-.05-.58.02-.86,0-1.21-.1-1.8.38-1.61,1.64.02.14-.02.29,0,.43.28,1.39-.29,1.91-1.66,1.66-1.48-.26-2.03.44-1.8,1.85.24,1.46-.29,2.01-1.83,1.87-1.71-.15-3.45.02-5.17-.06-1.22-.05-1.93.24-1.71,1.63.07.42.02.86.03,1.29-.06.13-.12.25-.18.38-.78.04-1.55.09-2.33.13-.61-.19-1.22-.27-1.81.09-.52.58-.17,1.28-.24,1.92-.07.66.27,1.43-.98,1.41-.75-.02-.45.83-.45,1.29-.02,8.12-.02,16.23-.02,24.35,0,1.63-.04,3.27,0,4.9.02.78-.19,1.08-1.04,1.06-2.88-.09-2.62-.09-2.63,2.66-.02,3.17-.02,6.34.03,9.51.01.83-.25,1.03-1.06,1.05-2.8.05-2.8.08-2.8,2.91,0,1.39-.04,2.79.02,4.18.04.82-.23,1.04-1.04,1.04-2.14,0-2.14.04-2.15,2.12,0,1.34-.05,2.69,0,4.03.03.75-.21.97-.97.99-2.59.06-2.59.09-2.6,2.7,0,1.49.01,2.98.02,4.47-.07.12-.14.25-.21.37-3.63-.06-3.65-.06-3.63,3.54.06,12.63.13,25.26.24,37.89.01,1.17-.26,1.54-1.48,1.49-2.66-.11-2.66-.03-2.66-2.74,0-2.69-.03-5.38.01-8.07.02-.97-.25-1.45-1.29-1.27-.09.02-.19,0-.29,0-2.29-.02-2.34-.02-2.35-2.28,0-.93-.38-1.11-1.2-1.13-2.65-.06-2.64-.09-2.64-2.82,0-10.23-.03-20.46.02-30.69,0-1.18-.36-1.56-1.45-1.42-.24.03-.48,0-.72,0-.91,0-2.01.32-2.69-.09-.79-.47-.26-1.67-.29-2.55-.03-.82-.5-.77-1.04-.8-2.08-.13-2.05-.14-2.18-2.26-.03-.53.46-1.52-.81-1.38-.5-.18-1-.19-1.49.01-.46,0-.92.01-1.38.02-.11-.04-.23-.08-.34-.12q-.07-3.5-3.57-3.48c-3.75,0-7.5.03-11.24-.02-1.02-.01-1.42.21-1.41,1.34.03,3.53-.03,3.53,3.52,3.52,3.7,0,7.4.02,11.1-.03.96-.02,1.48.17,1.28,1.24,0,.05,0,.1,0,.14q-.03,3.22,3.16,3.09c.13.05.26.09.39.14.02.72.06,1.43.07,2.15.02,1.74.51,2.35,2.18,1.94,1.49-.36,1.32.38,1.32,1.27,0,9.6,0,19.2,0,28.79,0,2.21.04,4.42,0,6.62-.02.88.28,1.16,1.16,1.14,2.21-.05,4.42.04,6.62-.03.92-.03,1.26.19,1.24,1.17-.05,2.77.45,5.52.33,8.3-.19.11-.39.21-.58.32-16.8,0-33.6-.02-50.4-.03-1.73,0-3.46-.06-5.18,0-.91.03-1.26-.2-1.24-1.19.06-2.4-.02-4.8.01-7.2.01-.85-.21-1.17-1.13-1.13-.97.04-1.99.29-2.93-.2-.01-.12-.03-.24-.04-.36,0-11.47.01-22.93.02-34.4,0-3.5.04-7,.01-10.51,0-.87.14-1.26,1.16-1.26,2.58.01,2.59-.04,2.62-2.66.03-2.06.06-4.13.02-6.19-.02-.85.19-1.15,1.1-1.17,2.65-.05,2.66-.1,2.68-2.77.01-1.63.04-3.26,0-4.89-.02-.74.18-.98.95-.99.92-.02,1.92.36,2.77-.33.04.02.08.06.12.06.03,0,.1-.04.1-.07.02-.68.22-1.38-.12-2.04.02-1.39.09-2.78.04-4.17-.03-.82.24-1.05,1.05-1.08,2.59-.09,2.59-.12,2.57-2.72,0-.29-.01-.58-.01-.86.02-1.05-.33-2.34.15-3.1.54-.87,1.92-.26,2.93-.34.73-.06,1.01-.33.99-1.07-.02-.95-.3-2.18.17-2.78.5-.64,1.78-.19,2.72-.2.78,0,1.18-.27,1.13-1.08,0-.14,0-.29,0-.43.06-2.46.06-2.5,2.53-2.53.93-.01,1.35-.3,1.22-1.25,0-.05,0-.1,0-.14.05-2.6.05-2.68,2.58-2.6,1.26.04,1.35-.59,1.21-1.47-.2-1.21.26-1.65,1.45-1.45,1.4.24,1.92-.39,1.71-1.75-.19-1.23.04-2.08,1.6-1.78.64.12.92-.18.97-.87.12-1.72,1.13-2.77,2.82-2.76,1.05,0,1.31-.33,1.23-1.3-.11-1.21.58-1.62,1.73-1.62,2.92.01,2.93-.01,2.92-2.99,0-1.15.05-2.31-.06-3.45-.1-1.09.27-1.5,1.35-1.34.47.07.96.02,1.44.02.13.2.28.24.46.06Zm45.47-18.86c1.32-.77.78-2.06.85-3.16.07-1.08-1.24-2.52-2.3-2.55-1.34-.04-2.68.01-4.01-.01-.65-.01-.96.17-.94.88.04,1.48.04,2.96.01,4.44-.01.67.23.98.91.94,1.76-.1,3.53.13,5.29-.13.21-.06.27-.2.2-.4Zm-9.31,20.13c-1.01,0-2.01,0-3.02,0-2.49,0-2.44,0-2.47,2.51-.01.96.29,1.28,1.22,1.24,1.34-.07,2.68-.06,4.03-.08,2.57-.04,2.59-.04,2.64-2.59.02-1.09.43-1.68,1.59-1.66,1.2.03,2.4-.01,3.6,0,2.76.01,2.72.02,2.67-2.77-.01-.86-.32-1.04-1.1-1.01-1.68.05-3.36.03-5.03.03q-3.98,0-3.83,4.03c-.1.11-.19.21-.29.32Zm9.65-10.7c-1.11-.29-2.22-.31-3.33,0-3.55.03-7.09.07-10.64.1-.33,0-.64-.04-.83.38-.95,2.09.21,3.78,2.49,3.98,3.08.26,6.04-.82,9.1-.63.96.06,1.92.04,2.88,0,3.09-.11,2.43.4,2.61-2.61.06-1.02-.27-1.42-1.28-1.27-.33.05-.67.03-1.01.04Z"/>
      <path class="cls-5" d="m196.86,316.23c40.25,0,80.51,0,120.76,0,1.87,0,1.88,0,1.88,1.84,0,2.5-.08,5,.04,7.49.06,1.35-.39,1.66-1.69,1.66-21.66-.04-43.33-.04-64.99-.04-58.99,0-117.98,0-176.96.04-1.36,0-1.85-.29-1.78-1.72.12-2.54.11-5.09,0-7.63-.06-1.35.39-1.67,1.69-1.67,19.55.04,39.1.03,58.65.03,20.8,0,41.6,0,62.4,0Z"/>
      <path class="cls-3" d="m165.23,58.48c.01-.09.03-.17.05-.26,5.35-.02,10.7-.04,16.04-.06q1.93,0,1.76-1.99c0-.18,0-.36,0-.53.14-2.32.13-4.64,0-6.96.02-3.07.04-6.14.05-9.22.52-.02,1.05-.05,1.57-.05,6.6-.02,13.2-.03,19.8-.04,0,0,.05.08.05.08-.02,5.96-.03,11.92-.05,17.88,0,.23-.02.48.25.61.05.06.12.09.21.09.59.28,1.23.14,1.84.15,5.46.04,10.92.06,16.38.09,0,6.46-.02,12.93.03,19.39,0,1.07-.26,1.36-1.35,1.35-5.7-.04-11.39,0-17.09.02-.56.39-.27.97-.27,1.44-.04,5.46-.05,10.91-.06,16.37-7,0-14.01,0-21.01,0-.02-5.45-.03-10.9-.06-16.35,0-.48.29-1.06-.28-1.44-5.31-.02-10.61-.04-15.92-.07-.62,0-1.24-.02-1.86-.04,0-.67-.02-1.34-.02-2.02-.03-6.14-.05-12.29-.08-18.43Z"/>
      <path class="cls-5" d="m279.14,257.9c-.1,3.84-.08,7.69,0,11.53.02,1.19-.31,1.56-1.53,1.55-2.36-.03-2.19-.41-2.13,2.13.03,1.26-.3,1.67-1.6,1.62-2.14-.08-1.99-.25-1.92,1.89.03,1.16-.27,1.68-1.51,1.54-.9-.1-1.83.03-2.74-.04-1.02-.08-1.3.31-1.29,1.31.04,5.86-.02,11.72.06,17.58.02,1.36-.4,1.7-1.7,1.66-2.3-.07-2.07-.32-2.06,2.06,0,2.93-.42,2.5,2.49,2.52,2.72.02,2.72,0,2.72,2.73,0,1.25-.02,2.5.01,3.75.02.73-.23,1.02-.99,1.01-7.54-.01-15.08-.02-22.62,0-1.2,0-2.41,0-3.61,0-1,0-1.04-.53-1.04-1.28,0-5.06-.06-10.11-.01-15.17,0-.23,0-.45,0-.68.01-1.27-.3-1.8-1.59-1.57-1.45.26-1.92-.44-1.67-1.77.27-1.44-.36-1.77-1.73-1.71-2.49.11-5,0-7.49.04-.86.01-1.21-.25-1.18-1.15.09-3.27-.32-2.67,2.65-2.7,3.32-.04,6.63.03,9.94-.03,1.1-.02,1.44.35,1.38,1.41-.07,1.29.03,2.59-.02,3.89-.03.8.25,1.06,1.04,1.09.01,0,.03,0,.04,0,2.73.09,2.87.13,2.66,2.84-.3,3.89-.09,7.77-.23,11.65-.03.91.21,1.25.9,1.33.14.02.31.03.49.02,5.43-.07,10.85-.05,16.28-.07.77,0,1.54.12,1.55-1.11,0-1.14-.5-1.43-1.49-1.33-.33.03-.67-.04-1.01,0-.91.09-1.38-.23-1.26-1.21.03-.24,0-.48,0-.72,0-1.06-.04-2.12.02-3.17.09-1.48,1.68-.48,2.37-1.38.44-.58.82-.96.82-1.71-.01-6.63,0-13.26,0-19.89,0-1.97,0-1.97,1.9-1.98,2.02-.01,4.04-.06,6.05-.01.93.02,1.36-.25,1.23-1.21-.04-.33.03-.67,0-1.01-.07-.98.07-1.56,1.35-1.58,1.72-.03,2.16-.8,2.42-2.57.27-1.82.11-3.64.29-5.45.16-1.61-.94-3-.63-4.62.08-.43-.34-.51-.7-.52-.48,0-.97-.05-1.44,0-1.03.11-1.42-.33-1.29-1.32.02-.14,0-.29,0-.43-.03-2.18-.03-2.22-2.18-2.26-.93-.02-1.26-.36-1.29-1.28-.05-2.04-.09-2.08-2.21-2.2-.77-.05-1.02-.36-.96-1.06.02-.29-.02-.58,0-.86.13-1.2-.09-1.88-1.6-1.59-.78.16-1.97.57-2.31-.91-.07-.31-.6-.2-.93-.2-1.34,0-2.7-.09-4.03.03-1.36.12-1.8-.3-1.79-1.72.07-7.01-.04-14.03.06-21.04.03-2.06-1.3-1.34-2.28-1.5-1.27-.2-1.59.41-1.48,1.55.08.81.05,1.63.01,2.45-.15,3.03-.97,6.04-.52,9.07.41,2.71.52,5.41.55,8.14.02,1.99-1.27,1.43-2.33,1.57-1.26.16-1.55-.4-1.5-1.55.08-1.72-.02-3.46.03-5.19.03-.94-.18-1.38-1.25-1.36-1.93.04-1.93-.03-1.95-2,0-1.54-.03-3.07-.01-4.61,0-.66-.07-1.17-.91-1.07-1.16.13-1.18-.59-1.18-1.44,0-.9.48-1.99-1.14-2.26-.59-.1-.56-1.25-.5-1.95.07-.97-.23-1.35-1.27-1.33-2.49.05-2.29.29-2.2-2.21.04-1.18-.27-1.72-1.5-1.51-1.03.17-1.54-.2-1.42-1.33.05-.43.14-.99-.62-1.16-.26.6-.12,1.22-.12,1.81-.02,3.03.05,6.06-.05,9.08-.06,1.83.89,3.5.64,5.35-.1.73.61.57,1.06.59,2.07.11,2.07.11,2.06,2.11,0,1.86,0,1.94,1.84,1.84,1.33-.07,1.77.36,1.7,1.69-.06,1.18.16,2.38.23,3.57.05.85.64.81,1.23.83,2.11.1,2.16.1,2.47,2.17.12.81.59.79,1.11.72,1.5-.2,2.03.48,1.85,1.9-.03.24,0,.48,0,.72.02,2.24.03,2.27-2.18,2.41-.86.05-1.03.47-1.02,1.2.02,1.58-.04,3.17.01,4.75.03.96-.32,1.32-1.25,1.21-.43-.05-.87.02-1.3-.02-.77-.07-1.04.29-.97,1.02.13,1.63-.2,3.25-.19,4.88.01,1.01-.33,1.33-1.33,1.32-3.89-.04-7.78.02-11.67-.02-1.06-.01-1.55.19-1.5,1.41.09,2.06,0,2.1-2.15,2.07-.95-.01-1.37.18-1.34,1.25.05,2.2-.02,2.29-2.16,2.19-1.31-.06-1.75.38-1.56,1.62.04.23,0,.48,0,.72,0,2.24,0,2.29-2.3,2.28-.98,0-1.25.33-1.19,1.26.07,1.1-.03,2.21.03,3.31.07,1.16-.48,1.51-1.55,1.52-1.88.02-1.88.05-1.88,1.94,0,7.3.02,14.6-.02,21.91,0,1.11.28,1.47,1.44,1.46,7.27-.05,14.53.01,21.8-.04h.11c1.3-.01,1.76.31,1.69,1.66-.12,2.44.25,2.14-2.17,2.15h-1.21c-7.91,0-15.81-.02-23.72.04-1.34,0-1.8-.28-1.79-1.72.07-8.79.06-17.58.01-26.37,0-1.27.24-1.79,1.63-1.7,1.87.13,1.88.03,1.88-1.9,0-.58-.01-1.15.01-1.73.03-.91-.2-1.99.22-2.66.45-.72,1.6-.2,2.44-.27.53-.04.81-.22.78-.77-.01-.24,0-.48,0-.72,0-2.44,0-2.47,2.46-2.56.74-.03.97-.24.99-1,.05-2.11.08-2.25,2.16-2.41,1.23-.09,1.48-.57,1.33-1.58-.2-1.34.35-1.73,1.67-1.67,1.99.1,2.05.01,2.01-1.95-.02-1.12.34-1.53,1.48-1.5,2.88.06,5.77-.01,8.65.03.87.01,1.2-.27,1.17-1.15-.05-1.49.06-2.98-.03-4.47-.07-1.12.36-1.48,1.4-1.34.28.04.58-.03.86,0,.9.09,1.38-.21,1.25-1.2-.04-.28,0-.57,0-.86,0-2.62,0-2.66,2.66-2.82.88-.05,1.03-.48,1.03-1.2,0-.68-.18-1.14-.97-1.07-.14.01-.29,0-.43,0-2.23-.02-2.28-.02-2.26-2.31,0-.97-.33-1.3-1.25-1.2-.38.05-.77-.03-1.15.01-.9.1-1.22-.31-1.14-1.17.04-.43.01-.86,0-1.3-.02-1.23-.45-2.06-1.88-1.82-1.24.2-1.68-.2-1.63-1.54.05-1.32-.34-2.65-.24-4,.05-.76-.4-.82-1-.85-2.72-.16-2.71-.18-2.71-2.89,0-5.91.03-11.82-.05-17.73-.02-1.38.43-1.82,1.71-1.63.09.01.19,0,.29,0,2.89.02,2.4-.16,2.35,2.37-.02,1.17.36,1.56,1.47,1.42.38-.05.78.05,1.15,0,1.15-.16,1.61.32,1.44,1.45-.17,1.12.25,1.75,1.46,1.72,1.12-.02,1.46.61,1.47,1.65,0,2.06.04,2.12,2.15,2.05,1.18-.04,1.64.28,1.55,1.51-.1,1.29.02,2.59-.01,3.89-.03,1.55,1.13.93,1.85,1.03.74.1,1.44.12,1.4-1.03-.06-1.92.03-3.85-.03-5.77-.03-1,.28-1.33,1.3-1.3,2.17.06,2.66-.52,2.69-2.87.03-2.33-.26-2.06,2.08-2.07,1.25,0,2.5.06,3.75-.02,1.07-.07,1.42.27,1.4,1.37-.06,3.36-.02,6.72-.02,10.09,0,5.19.07,10.38-.03,15.56-.03,1.51.48,1.91,1.89,1.83,2.06-.1,4.13,0,6.2-.05.91-.02,1.29.22,1.26,1.21-.03.95-.5,2.24,1.16,2.42-.18,1.92,1.31,1.72,2.49,2.17.68.26,1.02,1.32.86,2.27-.22,1.31.22,2.04,1.68,1.77,1.55-.28,1.96.42,1.88,1.89-.11,1.89,0,1.97,1.95,1.88,1.29-.06,1.75.28,1.72,1.65Z"/>
      <path class="cls-5" d="m275.96,196.9c-.65-1.28-.23-2.65-.27-3.98-.08-2.4-.02-2.41-2.39-2.4-.38,0-.76.01-1.14.02-.85.09-.76-.51-.77-1.04-.02-1.54-.1-3.07-.05-4.61.04-1.08-.25-1.72-1.44-1.51-1.58.28-1.93-.52-1.75-1.86.04-.33-.03-.67,0-1.01.08-.88-.17-1.4-1.18-1.25-1.07.15-1.52-.35-1.37-1.41,0-.05,0-.1,0-.14q0-3.11-3.07-3.33c-.46-.03-.9-.03-.9-.64-.01-1.59-.51-3.41.1-4.7,1.08-2.26.68-4.5.52-6.67-.11-1.53,0-3.28-.99-4.7.72-.33,1.12-.69.68-1.62-.24-.5-.5-1.55.24-1.76,1.4-.41,1.07-1.34,1.01-2.26.74-1.5.36-3.1.33-4.64-.03-1.43.32-1.88,1.82-1.85,5.13.1,10.27.09,15.4,0,1.4-.02,1.65.46,1.63,1.72-.06,3.88.06,7.77-.01,11.66-.03,1.38.46,1.83,1.74,1.65.33-.05.67.02,1.01,0,.75-.07,1.01.24,1,.99,0,.85-.39,2.01.19,2.48.5.4,1.61.09,2.45-.01,1.12-.13,1.49.35,1.35,1.39-.01.09,0,.19,0,.29.02,2.52.02,2.54,2.51,2.66.63.03,1.03.14.98.87-.02.24.06.48.05.72-.06,1.59.67,2.22,2.24,1.93,1.15-.21,1.47.32,1.44,1.44-.06,2.52,0,2.59,2.6,2.5,1.19-.04,1.49.37,1.43,1.47-.08,1.34.03,2.69-.02,4.03-.04.92.25,1.25,1.21,1.26,2.58.02,2.58.07,2.59,2.71,0,.38-.01.77,0,1.15.04,1-.39,2.2.17,2.95.57.77,1.8.26,2.73.3.74.03.86.39.86,1-.02,2.06,0,4.13,0,6.19-2.71.14-5.42.1-8.12,0,0-.67-.07-1.35,0-2.01.13-1.13-.28-1.61-1.43-1.43-.28.04-.58-.02-.86.02-1.36.23-1.97-.26-1.74-1.68.13-.81-.14-1.22-1.07-1.2-3.54.05-7.08.04-10.61.02-.75,0-1.02.26-1,1,.04,1.77.02,3.54.03,5.31-.68-1.54-.15-3.16-.32-4.73-.06-.53.36-1.38-.28-1.53-.95-.23-2-.23-2.96.08-.4.13-.21.68-.25,1.05-.18,1.69.32,3.42-.26,5.09,0-1.15-.01-2.3-.01-3.46,0-3.03,0-3.01-3.03-2.82-.74.05-1.01.29-1,1.03.03,1.78.02,3.55.02,5.33Zm-9.49-34.05s.01,0,.02,0c0,2.64.04,5.28-.02,7.92-.02.91.19,1.36,1.18,1.26.5-.05,1.23-.13,1.14.68-.21,1.75.86,3.32.61,5.07-.11.74.19,1.28,1.03,1.16,1.67-.24,2.02.67,1.83,2.03-.21,1.42.38,1.93,1.74,1.7,1.19-.2,1.6.39,1.41,1.47-.26,1.49.34,1.83,1.79,1.81,6.19-.08,12.39-.03,18.58-.03.8,0,1.51-.05,1.56,1.13.11,2.31,1.02,2.94,3.28,2.57.6-.1.57-.44.69-.87.48-1.83-1.25-3.23-.93-5.03.07-.38-.5-.3-.82-.35-2.11-.35-2.35-.58-2.33-2.7.01-.92-.13-1.34-1.22-1.39-2.4-.11-2.43-.19-2.48-2.57-.02-.78-.2-1.19-1.05-1.09-.43.05-.87-.03-1.29.02-1.05.13-1.44-.26-1.41-1.36.06-2.16,0-2.17-2.21-2.18-.29,0-.58,0-.86-.01-.4-.02-.69-.23-.62-.62.28-1.61-.71-3.06-.57-4.62.12-1.3-.27-1.78-1.64-1.69-1.85.12-1.86.03-1.86-1.84,0-.19-.02-.39,0-.58.14-1-.28-1.43-1.29-1.28-.24.03-.48-.02-.72.01-1.34.21-1.83-.26-1.79-1.7.1-3.12,0-6.24-.01-9.36,0-.55.02-1.05-.79-1.05-3.17.02-6.34,0-9.51,0-.4,0-.86.01-.83.55.1,1.81-.35,3.56-.54,5.33-.27,2.52-.07,5.08-.07,7.63Z"/>
      <path class="cls-3" d="m.37,165.73c-.02,7.97-.05,15.93-.06,23.9,0,13.73.02,27.45-.03,41.18,0,1.28.28,1.73,1.64,1.68,3.37-.11,3.37-.04,3.37,3.3,0,6.91,0,13.82.01,20.73-.52-.41-.28-.98-.29-1.48-.02-6.96-.04-13.92.02-20.88,0-1.21-.34-1.53-1.53-1.5-3.47.06-3.46,0-3.46-3.4,0-20.59,0-41.18.02-61.78,0-.58-.28-1.25.3-1.74Z"/>
      <path class="cls-3" d="m263.18,152.01c.06.92.39,1.85-1.01,2.26-.74.21-.48,1.26-.24,1.76.45.93.04,1.29-.68,1.62-.54-.02-1.07-.04-1.61-.07-.1-.19-.2-.39-.3-.58,0-.14,0-.27,0-.41.26-1.07.22-1.2-.45-1.35-.16-.05-.31-.09-.47-.14.03-.02.07-.05.1-.07-.03-.03-.05-.09-.08-.09-.03,0-.07.04-.1.06-.75-.64-1.95-.83-1.97-2.18-.01-.71.22-.9.9-.88,1.97.05,3.94.04,5.91.05Z"/>
      <path class="cls-3" d="m62.66,232.33c0-22.2,0-44.4,0-66.6.53.34.3.87.3,1.31,0,21.32,0,42.63,0,63.95,0,.45.2.97-.29,1.33Z"/>
      <path class="cls-3" d="m265.05,260.5c0,.75-.23,1.02-.97.99-1.04-.05-2.09-.02-3.14-.03-.08-.3-.17-.6-.25-.9,0-.18,0-.37,0-.55.31-.88.29-1.75,0-2.63.03-.33.2-.52.54-.54,1.32.48,2.72-.07,4.05.3-.51,1.08-.23,2.24-.24,3.36Z"/>
      <path class="cls-3" d="m252.93,206.63c10.85.01,21.7.03,32.55.04,8.55,0,17.09,0,25.64.02.48,0,1.06-.29,1.44.28-19.3,0-38.6,0-57.9-.02-.58,0-1.25.29-1.74-.32Z"/>
      <path class="cls-3" d="m129.82,304.68c-.32-.53-.19-1.12-.19-1.69-.02-17.51-.02-35.01-.02-52.52,0-.14-.01-.29.01-.43,0-.04.13-.06.21-.08.02,3.46.05,6.91.05,10.37,0,14.4,0,28.8,0,43.2,0,.38-.04.76-.06,1.15Z"/>
      <path class="cls-3" d="m5.84,223.42c-.3-.44-.17-.93-.17-1.4,0-17.47-.01-34.95,0-52.42,0-.4-.21-.87.25-1.19,0,17.86,0,35.72,0,53.58,0,.48-.05.96-.08,1.43Z"/>
      <path class="cls-3" d="m389.55,257.11c0-17.78.01-35.56.02-53.33.49.47.28,1.09.28,1.63,0,16.79,0,33.58-.02,50.36,0,.45.2.97-.28,1.34Z"/>
      <path class="cls-3" d="m337.58,204.05c.03.38.09.76.09,1.14,0,16.89,0,33.77,0,50.66,0,.33-.06.66-.08,1-.32-.43-.19-.93-.19-1.4,0-16.72,0-33.43,0-50.15,0-.42-.11-.87.19-1.25Z"/>
      <path class="cls-3" d="m389.56,203.77c-17.3,0-34.61,0-51.91-.01.35-.51.88-.29,1.32-.29,16.28-.01,32.56-.01,48.83,0,.58,0,1.25-.26,1.76.29Z"/>
      <path class="cls-3" d="m145.37,130.89c.59.24.3.75.3,1.12.02,9.31-.01,18.62.03,27.93,0,1.18-.28,1.57-1.5,1.53-2.97-.11-5.95-.07-8.92-.1,2.42-.46,4.87-.13,7.3-.18,2.82-.07,2.82-.02,2.82-2.8,0-9.17-.02-18.33-.03-27.5Z"/>
      <path class="cls-3" d="m357.5,257.23c.57.24.31.75.31,1.13.02,10.71.02,21.42.01,32.13,0,.51.14,1.07-.25,1.52-.01-10.68-.02-21.37-.04-32.05,0-.91-.02-1.82-.04-2.73Z"/>
      <path class="cls-3" d="m26.32,267.5c.43.18.27.57.27.87,0,10,0,20,0,30,0,.19-.06.37-.09.56-.3-.44-.17-.93-.17-1.4,0-10.01,0-20.03,0-30.04Z"/>
      <path class="cls-3" d="m178.85,171.94q-4.31.53-4.31-3.74c0-6.46.02-12.92.05-19.38,0-.39-.24-.87.25-1.17,0,7.59.01,15.18-.03,22.77,0,1.05.24,1.45,1.35,1.38.89-.06,1.81-.23,2.69.14Z"/>
      <path class="cls-3" d="m12.23,249.59c-.58-.43-.3-1.05-.3-1.58-.04-8.1-.04-16.21-.06-24.31.58.44.3,1.07.31,1.6.03,8.1.04,16.2.05,24.29Z"/>
      <path class="cls-3" d="m47.38,97.13c0,8.09,0,16.17,0,24.26,0,.47-.06.95-.09,1.42-.3-.38-.19-.83-.19-1.25,0-7.7-.01-15.41,0-23.11,0-.45-.21-.97.29-1.32Z"/>
      <path class="cls-3" d="m47.37,123.07c7.49,0,14.97,0,22.46.02.48,0,1.06-.28,1.45.29-7.48,0-14.95,0-22.43-.03-.49,0-1.06.24-1.47-.28Z"/>
      <path class="cls-3" d="m195.24,136.03c.95-.47,1.97-.19,2.95-.22.69-.02.91-.26.91-.93-.02-4.42-.04-8.83-.01-13.25,0-.82-.3-1.1-1.09-1.06-.52.03-1.04-.08-1.56-.13q2.89-.26,2.9,2.49c0,3.93-.04,7.86.02,11.78.02,1.09-.34,1.46-1.4,1.36-.9-.08-1.82-.04-2.73-.06Z"/>
      <path class="cls-3" d="m145.61,29.37c.02,1.15-.01,2.29.06,3.44.06.88-.26,1.18-1.14,1.16-2.25-.05-4.5,0-6.74-.07-.87-.03-1.26.23-1.12,1.12.01.09,0,.19,0,.29q-.04,3.61-3.72,3.21c.27-.06.54-.17.82-.18q2.63-.12,2.63-2.81,0-1.86,1.87-1.86c2.01,0,4.03-.02,6.04.03.81.02,1.07-.25,1.09-1.06.02-1.09-.26-2.2.21-3.26Z"/>
      <path class="cls-3" d="m368.28,257.44c.42-.6,1.05-.31,1.56-.31,6.57-.03,13.13-.02,19.7-.02-.41.5-.98.27-1.47.28-6.6.03-13.19.04-19.79.06Z"/>
      <path class="cls-3" d="m204.51,39.37c-6.6.01-13.2.02-19.8.04-.52,0-1.05.04-1.57.05.17-.42.55-.32.87-.32,6.62,0,13.24,0,19.86,0,.24,0,.48,0,.65.22Z"/>
      <path class="cls-3" d="m165.23,58.48c.03,6.14.05,12.29.08,18.43,0,.67.01,1.34.02,2.02-.45-.23-.32-.66-.32-1.01,0-6.16,0-12.32,0-18.48,0-.33-.04-.67.21-.95Z"/>
      <path class="cls-3" d="m322.99,123.38c.15-.35.46-.29.74-.29,6.29.01,12.57.03,18.86.04-.46.4-1.01.22-1.51.22-6.03.02-12.06.02-18.09.03Z"/>
      <path class="cls-3" d="m183.08,56.17q.17,1.98-1.76,1.99c-5.35.02-10.7.04-16.04.06.37-.58.96-.31,1.44-.31,4.7-.02,9.4-.07,14.1.02,1.38.03,2.28-.16,2.26-1.75Z"/>
      <path class="cls-3" d="m337.93,257.21c4.83-.03,9.66-.08,14.48-.1,1.53,0,3.05.06,4.58.09-.29.24-.63.19-.96.19-5.71,0-11.43,0-17.14,0-.33,0-.68.05-.96-.19Z"/>
      <path class="cls-3" d="m204.77,57.93c-.27-.13-.25-.37-.25-.61.01-5.96.03-11.92.05-17.88.31.26.22.61.22.94,0,5.85-.01,11.7-.02,17.55Z"/>
      <path class="cls-3" d="m271.11,196.91c-.74.3-1.51.17-2.27.17-5.31.03-10.63.04-15.94.06.11-.27.34-.31.58-.31,5.88.02,11.75.05,17.63.08Z"/>
      <path class="cls-3" d="m223.2,58.25c-5.46-.03-10.92-.05-16.38-.09-.61,0-1.25.14-1.84-.15,2.87-.28,5.74-.08,8.61-.12,2.78-.04,5.56-.02,8.34,0,.43,0,.98-.26,1.27.34Z"/>
      <path class="cls-3" d="m183.11,79.03c.57.39.28.96.28,1.44.04,5.45.05,10.9.06,16.35-.59-.36-.32-.95-.32-1.43-.02-5.45-.02-10.91-.02-16.36Z"/>
      <path class="cls-3" d="m204.46,96.83c.01-5.46.02-10.91.06-16.37,0-.48-.28-1.05.27-1.44,0,5.46,0,10.91-.02,16.37,0,.49.25,1.07-.31,1.45Z"/>
      <path class="cls-3" d="m117.75,120.5c-.01,3.55-.06,7.1,0,10.64.02,1.07-.28,1.47-1.37,1.38-1-.09-2.01-.04-3.01-.05.96-.42,1.97-.2,2.95-.2.88,0,1.15-.29,1.14-1.16-.04-3.1-.03-6.21-.02-9.32,0-.44-.22-.97.32-1.3Z"/>
      <path class="cls-3" d="m108.67,216.7c-1.05.49-2.16.26-3.23.22-1.1-.04-1.37.34-1.34,1.39.07,2.73.04,5.46.01,8.2,0,.49.25,1.06-.24,1.48,0-3.36.01-6.72-.04-10.07-.01-.95.31-1.28,1.24-1.23,1.2.06,2.4.01,3.6,0Z"/>
      <path class="cls-3" d="m117.7,182.74c0,3.07-.05,6.14.04,9.2.04,1.21-.42,1.48-1.49,1.41-.95-.06-1.91.03-2.87.05.47-.63,1.15-.3,1.72-.31,2.33-.04,2.33-.02,2.33-2.4,0-2.21-.02-4.41,0-6.62,0-.45-.2-.97.26-1.34Z"/>
      <path class="cls-3" d="m51.4,155.66c-4.22,0-8.44,0-12.66,0,.13-.35.44-.32.72-.32,3.73,0,7.47,0,11.2,0,.28,0,.58-.02.74.31Z"/>
      <path class="cls-3" d="m22.61,155.54c-4.04.04-8.09.08-12.13.11.16-.32.46-.3.74-.3,3.62,0,7.24,0,10.87.01.18,0,.35.11.53.17Z"/>
      <path class="cls-3" d="m297.91,67.35c-2.28.03-4.56.04-6.83.1-.79.02-.96-.36-.95-1.05.02-1.09-.02-2.19-.04-3.28.58.43.29,1.05.3,1.58.04,2.46.02,2.43,2.55,2.47,1.66.03,3.33-.24,4.97.18Z"/>
      <path class="cls-3" d="m118.08,63.16c1.66-.64,3.38-.2,5.07-.25,2.39-.07,2.38-.02,2.45-2.4.01-.45-.2-.96.23-1.35,0,.96-.04,1.91.02,2.87.06.9-.33,1.16-1.17,1.14-2.2-.04-4.4,0-6.6,0Z"/>
      <path class="cls-3" d="m158.04,38.88q.07-3.75,3.9-3.73c1.39,0,2.78-.02,4.17-.03-1.11.63-2.31.17-3.47.31-.28.04-.57,0-.86,0-1.05.02-2.3-.29-3.09.18-.83.5-.21,1.85-.38,2.81-.03.16-.18.3-.28.46Z"/>
      <path class="cls-3" d="m278.02,54.07c-1.66.03-3.32.02-4.98.1-.92.05-1.14-.36-1.11-1.18.04-1.23,0-2.47,0-3.7.63,1.11.23,2.31.27,3.47.04.87.3,1.12,1.16,1.15,1.55.05,3.13-.31,4.66.17Z"/>
      <path class="cls-3" d="m182.6,23.06c.08-1.19-.49-2.69.23-3.48.75-.82,2.27-.2,3.45-.27,1.15-.07,2.3-.05,3.46-.06-1.19.73-2.5.19-3.74.33-.94.11-2.13-.27-2.8.18-.77.51-.18,1.78-.31,2.7-.03.24-.04.48-.28.61Z"/>
      <path class="cls-3" d="m261.87,42.02c-2.1.02-4.2-.02-6.3.07-1.17.05-1.69-.29-1.51-1.51.07-.47.06-.95.09-1.42.06.13.16.25.17.38.25,2.25.25,2.2,2.61,2.27,1.65.04,3.31-.28,4.94.21Z"/>
      <path class="cls-3" d="m134.45,161.36c-.52.01-1.05.03-1.57.03q-3.62,0-3.16-3.75c.36.81.1,1.69.25,2.54.13.71.4.93,1.11.95,1.13.04,2.28-.28,3.38.23Z"/>
      <path class="cls-3" d="m174.48,193.11c.03-2.61.06-5.23.12-7.84,0-.44-.23-.95.22-1.33,0,2.63.02,5.26,0,7.9,0,.43.25.98-.34,1.27Z"/>
      <path class="cls-3" d="m162.6,22.42c-.36.61-.94.3-1.41.31-2.57.04-5.15.04-7.72.05.31-.57.85-.31,1.28-.32,2.62-.03,5.24-.03,7.85-.03Z"/>
      <path class="cls-3" d="m68.65,86.14c-.35.51-.88.27-1.32.26-2.63-.01-5.26.16-7.88-.11,3.06-.34,6.13-.04,9.2-.15Z"/>
      <path class="cls-3" d="m81.69,74.34q-4.06-.55-4.14,3.4c0,.41.15.86-.22,1.21,0-1.29.01-2.59-.04-3.88-.03-.82.3-1.17,1.09-1.07,1.1.14,2.26-.38,3.3.34Z"/>
      <path class="cls-3" d="m133.91,249.65c0-2.43,0-4.87.03-7.3,0-.44-.24-.96.24-1.32,0,2.48.01,4.96,0,7.44,0,.4.18.87-.27,1.18Z"/>
      <path class="cls-3" d="m10.42,157.93q.3,3.39-2.97,3.39c-.71,0-1.43.07-2.14.11.91-.8,1.99-.28,2.97-.33,2.28-.12,1.87.13,1.93-1.93.01-.42-.1-.87.21-1.24Z"/>
      <path class="cls-3" d="m113.44,71.2q-.33-3.97,3.51-4.05c.34,0,.67-.05,1-.07-.86.75-1.91.35-2.84.33-1.23-.04-1.58.39-1.5,1.55.05.74.22,1.52-.18,2.24Z"/>
      <path class="cls-3" d="m153.41,26.49c.26.94-.38.89-.98.89-2.24.01-4.49.02-6.73.04.3-.58.84-.31,1.27-.32,1.71-.03,3.42-.02,5.13,0,.55,0,1.04-.04,1.31-.61Z"/>
      <path class="cls-3" d="m137.73,239.27c-.04-1.52-.02-3.05-.13-4.56-.09-1.17.28-1.71,1.49-1.5.28.05.56.07.85.1-2.04.45-2.02.45-2.05,2.74-.01,1.07.23,2.17-.16,3.22Z"/>
      <path class="cls-3" d="m89.12,82.95c2.23-.28,4.47-.05,6.7-.13.47-.02.96.11,1.41-.13-.07.28-.28.37-.53.36-2.52-.06-5.05.16-7.57-.1Z"/>
      <path class="cls-3" d="m51.47,165.47c-.36-1.33.02-2,1.52-1.77.56.08,1.15.08,1.71,0,1.43-.18,1.94.38,1.55,1.77-.22-2.29-2-1.22-3.17-1.49-1.3-.3-1.4.64-1.61,1.49Z"/>
      <path class="cls-3" d="m95.71,67.09c-1.16.56-2.4.21-3.6.27-1.37.07-2.75.01-4.12.01,1.17-.54,2.4-.18,3.6-.24,1.37-.07,2.75-.03,4.12-.04Z"/>
      <path class="cls-3" d="m121.16,48.4c-.75.61-1.63.25-2.45.29-1.76.07-3.53.04-5.3.05.25-.56.75-.3,1.13-.31,2.2-.03,4.41-.02,6.61-.03Z"/>
      <path class="cls-3" d="m197.04,19.23c2.14.02,4.29.02,6.43.07.42.01.97-.29,1.26.31-2.14-.01-4.27-.02-6.41-.05-.44,0-.97.23-1.28-.33Z"/>
      <path class="cls-3" d="m292.38,83.65c2.4-.03,4.8-.05,7.19-.08.24,0,.48.03.53.34-2.06-.02-4.12-.04-6.18-.08-.52,0-1.06.14-1.54-.19Z"/>
      <path class="cls-3" d="m105.9,71.77c.3-.6.84-.3,1.27-.31,2.06-.04,4.13-.02,6.19-.02-.76.62-1.64.24-2.46.28-1.66.07-3.33.04-5,.06Z"/>
      <path class="cls-3" d="m76.83,91.97c1.17-.58,2.41-.21,3.61-.26,1.29-.06,2.58.01,3.87.02-1.08.56-2.22.17-3.34.22-1.38.07-2.76.01-4.14.01Z"/>
      <path class="cls-3" d="m306.51,94.58c1.96,0,3.91-.03,5.87,0,.44,0,.96-.21,1.32.27-1.95,0-3.91.02-5.86,0-.45,0-.96.2-1.33-.26Z"/>
      <path class="cls-3" d="m225.22,18.46c-1.91-.02-3.81-.02-5.72-.06-.51-.01-1.06.18-1.51-.22,2.14-.03,4.27-.06,6.41-.08.32,0,.69-.08.81.37Z"/>
      <path class="cls-3" d="m189.82,15.58c1.53-.64,3.14-.24,4.7-.29.8-.03,1.68-.34,2.42.28-2.37,0-4.75,0-7.12,0Z"/>
      <path class="cls-3" d="m57.48,160.47c-1.69.03-3.39.03-5.08.1-.95.04-1.17-.38-.93-1.2.2.65.57.93,1.33.94,1.56.03,3.14-.31,4.68.16Z"/>
      <path class="cls-3" d="m183.09,48.68c.13,2.32.14,4.64,0,6.96-.33-2.32-.33-4.64,0-6.96Z"/>
      <path class="cls-3" d="m214.32,30.81c1.84.01,3.69,0,5.53.05.42.01.96-.28,1.26.3-1.82-.01-3.65-.01-5.47-.05-.45,0-.98.21-1.32-.3Z"/>
      <path class="cls-3" d="m19.94,260.05s-.07-.08-.07-.13c-.06-1.09.24-2.43-.29-3.2-.59-.86-2.07,0-3.1-.43,4.45-.18,3.41-.56,3.53,3.2,0,.19-.05.37-.08.56Z"/>
      <path class="cls-3" d="m49.93,263.72q.08-3.44,3.5-3.44c.09,0,.19,0,.28,0-.67.55-1.46.29-2.18.26-.98-.04-1.37.26-1.32,1.28.02.62.31,1.34-.28,1.89Z"/>
      <path class="cls-3" d="m271.93,49.29c-1.89,0-3.77.03-5.65,0-.41,0-.95.3-1.23-.31,1.85.01,3.7.02,5.55.05.45,0,.96-.19,1.33.26Z"/>
      <path class="cls-3" d="m33.58,306.38c1,0,2,.02,2.99.03q1.99.01,1.82,2.04c0-1.65-.95-1.91-2.36-1.8-.8.06-1.7.38-2.45-.27Z"/>
      <path class="cls-3" d="m15.98,256.22c-.59-1.16-.19-2.39-.28-3.59-.07-.99-.05-1.99-.08-2.99.62.41.31,1.04.33,1.56.05,1.67.02,3.34.02,5.01Z"/>
      <path class="cls-3" d="m267.92,66.87c2.18-.36,4.36-.45,6.53.03-2.18-.01-4.36-.02-6.53-.03Z"/>
      <path class="cls-3" d="m170.65,15.2c-.4.63-1.03.28-1.54.3-1.66.06-3.31.05-4.97.07.84-.64,1.8-.24,2.7-.3,1.27-.09,2.54-.05,3.81-.07Z"/>
      <path class="cls-3" d="m141.38,147.3c-.17-2.22-.07-4.44,0-6.66.4,2.22.33,4.44,0,6.66Z"/>
      <path class="cls-3" d="m170.5,27.38c.49-.68,1.21-.31,1.79-.3,1.52.05,3.08-.33,4.58.22-2.12.03-4.25.05-6.37.08Z"/>
      <path class="cls-3" d="m47.29,249.88c0,2.13.35,4.27-.2,6.38.09-2.12-.28-4.26.2-6.38Z"/>
      <path class="cls-3" d="m280.9,75.2c1.63,0,3.25,0,4.88.03.38,0,.88-.27,1.13.29-1.57,0-3.15.02-4.72-.01-.44,0-.97.25-1.29-.3Z"/>
      <path class="cls-3" d="m319.47,82.76c-1.57-.01-3.15,0-4.72-.06-.44-.01-.96.25-1.31-.26,1.6,0,3.2-.04,4.79-.01.42,0,.96-.26,1.24.33Z"/>
      <path class="cls-3" d="m252.03,55.08c1.79-.02,3.57-.04,5.36-.05.27,0,.58-.06.67.33-2-.25-4.04.24-6.03-.29Z"/>
      <path class="cls-3" d="m133.84,310.72c.13-2.01.13-4.02-.02-6.02.7.56.36,1.35.33,2-.08,1.34.43,2.74-.31,4.03Z"/>
      <path class="cls-3" d="m207.63,26.57c2.03.02,4.08-.34,6.1.2-2.03-.06-4.08.27-6.1-.2Z"/>
      <path class="cls-3" d="m59.28,86.44c.03,1.55.07,3.09.08,4.64,0,.33.14.81-.48.8.53-1.23.11-2.52.25-3.77.06-.55-.15-1.13.15-1.66Z"/>
      <path class="cls-3" d="m129.77,43.19c-.55.66-1.29.28-1.94.31-1.27.05-2.54-.03-3.81-.05,1.9-.5,3.83-.03,5.74-.26Z"/>
      <path class="cls-3" d="m77.33,78.95c-1.9.57-3.85.19-5.77.23,1.91-.51,3.85-.1,5.77-.23Z"/>
      <path class="cls-3" d="m324.11,106.66c1.92.07,3.87-.38,5.76.28-1.92-.17-3.86.2-5.76-.28Z"/>
      <path class="cls-3" d="m286.37,59.28c-1.81-.15-3.64.38-5.43-.24,1.81.16,3.64-.31,5.43.24Z"/>
      <path class="cls-3" d="m331.93,91.53c-1.81.04-3.63.38-5.42-.22,1.8.16,3.63-.21,5.42.22Z"/>
      <path class="cls-3" d="m103.84,305.59c.59,1.1.12,2.29.25,3.43.06.56.07,1.13.1,1.7-.77-.92-.23-1.99-.34-2.99-.08-.7-.01-1.43,0-2.14Z"/>
      <path class="cls-3" d="m145.92,47.51c.69-.16.61-.69.66-1.22.1-1.11-.3-2.25.27-3.32,0,1.24,0,2.48,0,3.72,0,.63-.17,1.05-.93.82Z"/>
      <path class="cls-3" d="m250.03,35.15c-1.69-.28-3.43.32-5.09-.35,1.32,0,2.64,0,3.96.03.39.01.87-.21,1.13.31Z"/>
      <path class="cls-3" d="m164.1,203.18c0-.33.02-.66.02-.99q.01-2.29,2.33-2.05c-1.67-.02-2.42.74-2.06,2.44.05.23-.04.47-.29.59Z"/>
      <path class="cls-3" d="m131.83,102.03c0,.52-.02,1.04-.01,1.57q.01,1.95-2.01,1.88c1.61-.07,1.95-1.03,1.73-2.43-.05-.34-.15-.78.29-1.02Z"/>
      <path class="cls-3" d="m213.15,11.44c-.33.02-.66.03-.99.07-1.04.14-1.5-.26-1.36-1.35.08-.61.05-1.23.07-1.84.07.17.22.36.19.51-.32,1.69.29,2.62,2.08,2.61Z"/>
      <path class="cls-3" d="m88.04,87.63c.67-.19.61-.71.64-1.25.07-1.12-.34-2.27.22-3.35.01,1.24.01,2.48.04,3.73.01.64-.16,1.04-.9.88Z"/>
      <path class="cls-3" d="m5.26,165.43c-1.59.74-3.25.19-4.88.3,1.6-.52,3.26-.07,4.88-.3Z"/>
      <path class="cls-3" d="m121.45,43.5c-.26,1.62.22,3.29-.29,4.9.11-1.63-.42-3.3.29-4.9Z"/>
      <path class="cls-3" d="m57.79,232.64c1.58-.67,3.24-.15,4.86-.31-1.59.61-3.25.11-4.86.31Z"/>
      <path class="cls-3" d="m145.45,224.28c.04-1.62-.43-3.27.26-4.86-.22,1.61.24,3.26-.26,4.86Z"/>
      <path class="cls-3" d="m168.42,102.36c-1.18-.02-2.37,0-3.55-.06-.43-.02-.96.25-1.27-.31,1.6.25,3.26-.34,4.82.37Z"/>
      <path class="cls-3" d="m62.65,165.73c-1.62-.13-3.29.42-4.87-.31,1.62.23,3.28-.25,4.87.31Z"/>
      <path class="cls-3" d="m133.91,55.93c.17-1.51-.3-3.06.29-4.54-.17,1.51.31,3.06-.29,4.54Z"/>
      <path class="cls-3" d="m113.29,205.75c-1.47.67-3.03.06-4.53.32,1.47-.67,3.03-.11,4.53-.32Z"/>
      <path class="cls-3" d="m303.09,71.14c-1.56.02-3.14.31-4.68-.2,1.56.05,3.13-.23,4.68.2Z"/>
      <path class="cls-3" d="m291.79,79.03c.59,1.49.08,3.05.29,4.56-.62-1.49-.14-3.04-.29-4.56Z"/>
      <path class="cls-3" d="m342.58,101.71c-1.53-.06-3.09.42-4.59-.27,1.52.21,3.08-.23,4.59.27Z"/>
      <path class="cls-3" d="m229.57,23c-1.44-.06-2.91.44-4.32-.26,1.43.23,2.9-.22,4.32.26Z"/>
      <path class="cls-3" d="m178.21,23.3c1.43-.51,2.92-.11,4.37-.23-1.43.57-2.91.18-4.37.23Z"/>
      <path class="cls-3" d="m84.33,91.67c.11-1.43-.4-2.89.26-4.29-.16,1.42.26,2.89-.26,4.29Z"/>
      <path class="cls-3" d="m306.25,90.2c.55,1.43.16,2.9.24,4.35-.55-1.43-.14-2.9-.24-4.35Z"/>
      <path class="cls-3" d="m232.97,38.7c.68,1.37.12,2.83.33,4.24-.63-1.37-.14-2.83-.33-4.24Z"/>
      <path class="cls-3" d="m236.53,30.75c-.68-1.36-.08-2.83-.35-4.23.74,1.36.1,2.83.35,4.23Z"/>
      <path class="cls-3" d="m199.04,115.88c.11-1.44.14-2.89-.07-4.33.62,1.43.54,2.88.07,4.33Z"/>
      <path class="cls-3" d="m121.97,182.42c-1.38.71-2.85.14-4.27.31,1.39-.59,2.85-.11,4.27-.31Z"/>
      <path class="cls-3" d="m103.01,55.33c-.02,1.32-.05,2.64-.08,3.96,0,.03-.05.08-.08.08-.04,0-.09-.03-.13-.04.14-1.33-.4-2.71.29-4Z"/>
      <path class="cls-3" d="m313.44,82.44c-.45-1.43-.07-2.9-.24-4.35.62,1.42.19,2.9.24,4.35Z"/>
      <path class="cls-3" d="m221.21,34.55c1.34.27,2.72-.1,4.04.29-1.35-.02-2.74.46-4.04-.29Z"/>
      <path class="cls-3" d="m258.11,59.35c1.37.17,2.75-.15,4.11.18-1.38.11-2.77.45-4.11-.18Z"/>
      <path class="cls-3" d="m313.17,78.07c-1.35,0-2.71-.02-4.06-.03,1.36-.34,2.71-.34,4.06.03Z"/>
      <path class="cls-3" d="m265.3,257.14c-1.33-.37-2.73.18-4.05-.3,1.36.02,2.75-.52,4.05.3Z"/>
      <path class="cls-3" d="m266.39,62.96c.68,1.26.19,2.62.3,3.92-.56-1.27-.08-2.62-.3-3.92Z"/>
      <path class="cls-3" d="m129.56,157.48c-1.23.04-2.46.34-3.67-.17,1.22.07,2.46-.18,3.67.17Z"/>
      <path class="cls-3" d="m26.59,299.27c1.23.13,2.5-.29,3.71.26-1.23-.13-2.5.31-3.71-.26Z"/>
      <path class="cls-3" d="m55.17,91.89c-1.23.05-2.46.09-3.7.14,1.21-.72,2.45-.43,3.7-.14Z"/>
      <path class="cls-3" d="m203.65,7.44c-.63-1.11-.22-2.29-.26-3.45.49,1.12.1,2.3.26,3.45Z"/>
      <path class="cls-3" d="m262.46,62.79c1.15.04,2.3.09,3.45.13-1.16.26-2.32.42-3.45-.13Z"/>
      <path class="cls-3" d="m227.52,38.68c1.07-.14,2.14-.15,3.21-.01-1.07.34-2.14.34-3.21.01Z"/>
      <path class="cls-3" d="m241.9,47.49c1.06-.19,2.12-.28,3.17.09-1.06-.03-2.11-.06-3.17-.09Z"/>
      <path class="cls-3" d="m181.2,147.31c.03-1.06-.43-2.15.24-3.16-.17,1.05.23,2.14-.24,3.16Z"/>
      <path class="cls-3" d="m234.73,43.05c1.07-.05,2.15-.36,3.18.18-1.06-.08-2.14.21-3.18-.18Z"/>
      <path class="cls-3" d="m237.95,45.21c.44.7-.46,1.92.89,2.27-.55.19-.96.1-.96-.58,0-.56.05-1.13.07-1.69Z"/>
      <path class="cls-3" d="m99.07,235.67c-1,.2-2,.13-3.01.03,1-.37,2-.27,3.01-.03Z"/>
      <path class="cls-3" d="m12.18,260.4c.74-.15.61.41.61.8,0,.57-.05,1.14-.08,1.71-.54-.76.19-1.79-.53-2.51Z"/>
      <path class="cls-3" d="m226.7,153.96c-.56.19-1.14.49-1.47-.33.48.15,1.06-.12,1.47.33Z"/>
      <path class="cls-3" d="m260.7,260.01c-.15-.88-.14-1.75,0-2.63.29.88.3,1.75,0,2.63Z"/>
      <path class="cls-3" d="m71.5,79.23c-.06.66.25,1.36-.21,1.97.03-.66-.26-1.36.21-1.97Z"/>
      <path class="cls-3" d="m145.47,233.4c.34.66.13,1.36.12,2.04,0,.03-.06.07-.1.07-.04,0-.08-.04-.12-.06-.03-.69-.12-1.37.1-2.05Z"/>
      <path class="cls-3" d="m87.96,67.41c-.08.75.43,1.58-.28,2.25.18-.74-.21-1.55.28-2.25Z"/>
      <path class="cls-3" d="m252.86,199.15c.14.69.14,1.37,0,2.06-.33-.69-.33-1.37,0-2.06Z"/>
      <path class="cls-5" d="m258.89,155.25c.67.15.71.28.45,1.35-.15-.45-.3-.9-.45-1.35Z"/>
      <path class="cls-3" d="m131.86,38.51c-.68.04-1.36.08-2.04.12.65-.58,1.34-.35,2.04-.12Z"/>
      <path class="cls-3" d="m239.37,30.79c-.59.13-1.17.13-1.76,0,.59-.32,1.17-.32,1.76,0Z"/>
      <path class="cls-3" d="m142.19,47.53c.59-.31,1.2-.23,1.8-.03-.6.16-1.2.12-1.8.03Z"/>
      <path class="cls-3" d="m223.16,196.82c.59-.36,1.2-.28,1.81-.09-.59.32-1.2.19-1.81.09Z"/>
      <path class="cls-3" d="m53.71,260.29c.01-.29.02-.59.03-.88.63.32.7.62-.03.88Z"/>
      <path class="cls-3" d="m147.38,219.41c.57-.04,1.14-.07,1.71-.11-.54.56-1.13.35-1.71.11Z"/>
      <path class="cls-3" d="m252.86,204.34c.13.49.13.99,0,1.48-.31-.49-.31-.99,0-1.48Z"/>
      <path class="cls-3" d="m181.1,253.21c.5-.2,1-.19,1.49-.01-.5.3-.99.28-1.49.01Z"/>
      <path class="cls-3" d="m302.52,72.34c-.16-.53.19-.69.59-.82,0,.41-.16.71-.59.82Z"/>
      <path class="cls-3" d="m86.6,69.68c-.38.04-.76.07-1.14.11.33-.5.73-.36,1.14-.11Z"/>
      <path class="cls-3" d="m217.72,11.55c-.38-.03-.77-.07-1.15-.1.41-.24.81-.4,1.15.1Z"/>
      <path class="cls-3" d="m260.95,261.46c-.5-.18-.35-.54-.25-.9.09.3.17.6.25.9Z"/>
      <path class="cls-3" d="m278.32,54.97c-.41-.19-.21-.54-.22-.83.32.21.21.54.22.83Z"/>
      <path class="cls-3" d="m266.72,66.93c.31.02.62.03.92.05-.32.25-.64.34-.92-.05Z"/>
      <path class="cls-3" d="m203.37,3.93c-.22-.05-.44-.1-.66-.15.25-.1.5-.15.66.15Z"/>
      <path class="cls-3" d="m195.55,120.44c-.33.15-.31-.05-.26-.27.09.09.17.18.26.27Z"/>
      <path class="cls-3" d="m221.14,31.96c0,.21,0,.41,0,.62-.22-.2-.23-.41,0-.62Z"/>
      <path class="cls-3" d="m194.94,310.71c.19-.11.39-.21.58-.32-.01.43-.27.42-.58.32Z"/>
      <path class="cls-3" d="m141.39,153.35c0-.2,0-.4,0-.6.26.2.24.4,0,.6Z"/>
      <path class="cls-3" d="m237.95,44.06c.15.21.15.42,0,.63,0-.21,0-.42,0-.63Z"/>
      <path class="cls-3" d="m171.36,10.86c-.2.03-.4.06-.6.09.15-.35.36-.32.6-.09Z"/>
      <path class="cls-3" d="m254.14,38.64c-.04-.1-.07-.2-.11-.29.27.01.28.12.11.29Z"/>
      <path class="cls-3" d="m332.78,97.94c-.21.05-.3-.04-.28-.25.09.08.19.17.28.25Z"/>
      <path class="cls-3" d="m250.31,55.05c.1,0,.2.02.31.03-.11.13-.22.11-.31-.03Z"/>
      <path class="cls-3" d="m239.8,165.27c-.06-.12-.13-.25-.19-.37.23.04.29.16.19.37Z"/>
      <path class="cls-3" d="m182.38,188.34c-.18.18-.33.14-.46-.06.15.02.31.04.46.06Z"/>
      <path class="cls-3" d="m170.67,11.2c0,.12,0,.23,0,.35-.19-.12-.18-.24,0-.35Z"/>
      <path class="cls-3" d="m10.17,163.76c.21-.02.3.06.24.28-.08-.09-.16-.18-.24-.28Z"/>
      <path class="cls-3" d="m182.61,259.05c-.13-.05-.26-.09-.39-.14.18-.08.31-.05.39.14Z"/>
      <path class="cls-3" d="m227.3,196.6c.06-.13.12-.25.18-.38.08.19.04.33-.18.38Z"/>
      <path class="cls-3" d="m9.01,260.34c.11.01.23.02.34.03-.13.2-.24.14-.34-.03Z"/>
      <path class="cls-3" d="m303.13,71.5c0-.12,0-.23,0-.35.28.11.25.23,0,.35Z"/>
      <path class="cls-3" d="m272.13,196.82c-.02.18-.11.17-.22.07.06-.07.13-.1.22-.07Z"/>
      <path class="cls-3" d="m166.98,200.15c.11-.03.22-.06.32-.1-.04.26-.15.28-.32.1Z"/>
      <path class="cls-3" d="m137.29,240.96c.12-.06.24-.11.36-.17-.06.18-.18.23-.36.17Z"/>
      <path class="cls-3" d="m12.71,263.43c0,.11.01.22.02.33-.16-.1-.21-.21-.02-.33Z"/>
      <path class="cls-3" d="m240.82,30.79c-.11,0-.21-.01-.32-.02.12-.21.22-.15.32.02Z"/>
      <path class="cls-3" d="m207.05,267.77c.07-.12.14-.25.21-.37.08.21.05.35-.21.37Z"/>
      <path class="cls-3" d="m134.03,300.61c.01.12.03.24.04.36-.2-.1-.25-.21-.04-.36Z"/>
      <path class="cls-3" d="m233.3,42.95c.11.03.22.06.32.09-.17.19-.27.14-.32-.09Z"/>
      <path class="cls-3" d="m99.92,228.08c-.12.08-.23.17-.35.25.02-.22.14-.29.35-.25Z"/>
      <path class="cls-3" d="m201.91,3.76c-.11,0-.22-.01-.33-.02.11,0,.22.01.33.02Z"/>
      <path class="cls-3" d="m179.38,253.11c.11.04.23.08.34.12-.19.18-.3.14-.34-.12Z"/>
      <path class="cls-3" d="m343.4,224.52c0,3.67,0,7.34,0,11.01-.43-.39-.23-.89-.23-1.35-.02-2.72-.02-5.43,0-8.15,0-.51-.16-1.05.22-1.51Z"/>
      <path class="cls-3" d="m369.11,210.1c-2.44,0-4.87,0-7.31,0-.47,0-.96.12-1.38-.21,2.7-.02,5.4-.05,8.09-.07.24,0,.47.05.6.29Z"/>
      <path class="cls-3" d="m379.71,242.63c0-1.24.08-2.49-.02-3.72-.1-1.17.32-1.57,1.45-1.44.4.05.87.16,1.21-.23.22.88-.52.54-.77.5-1.47-.23-1.71.46-1.63,1.75.06,1.04.37,2.14-.24,3.15Z"/>
      <path class="cls-3" d="m354.13,210.2c0,.86,0,1.71,0,2.57,0,.68-.28.98-.98.73.6-.15.72-.56.75-1.14.04-.72-.27-1.49.22-2.16Z"/>
      <path class="cls-3" d="m382.52,221.43c-.89-.27-1.9.26-2.74-.39.9.23,1.92-.37,2.74.39Z"/>
      <path class="cls-3" d="m382.63,224.53c-.51-.85-.35-1.72-.08-2.59.03.86.05,1.73.08,2.59Z"/>
      <path class="cls-3" d="m357.87,209.89c-.12.22-.23.17-.33-.01.11,0,.22,0,.33.01Z"/>
      <path class="cls-3" d="m351.58,213.49c-.14,0-.29.01-.43.02.14-.18.28-.19.43-.02Z"/>
      <path class="cls-3" d="m158.7,115.27c.51.58.25,1.28.25,1.91,0,.76.28.98,1,.96,1.66-.04,3.33,0,4.99,0-1.87.59-3.78.1-5.67.24-.52.04-.58-.38-.58-.8,0-.77,0-1.54,0-2.3Z"/>
      <path class="cls-3" d="m164.97,112.42c-2.09,0-4.18.02-6.27.03.67-.67,1.52-.31,2.26-.29,1.33.04,2.71-.4,4,.26Z"/>
      <path class="cls-3" d="m228.2,178.92c-1.11.21-2.22.2-3.33,0,1.11-.31,2.22-.29,3.33,0Z"/>
      <path class="cls-3" d="m227.66,169.89c.07-.13.13-.27.2-.4.07.2.01.34-.2.4Z"/>
      <path class="cls-3" d="m218.83,189.3c.05.24-.06.34-.29.32.1-.11.19-.21.29-.32Z"/>
      <path class="cls-6" d="m266.47,162.85c0-2.54-.2-5.11.07-7.63.19-1.77.64-3.52.54-5.33-.03-.54.43-.55.83-.55,3.17,0,6.34.02,9.51,0,.81,0,.79.5.79,1.05.01,3.12.11,6.24.01,9.36-.05,1.44.44,1.91,1.79,1.7.23-.04.48.02.72-.01,1.01-.15,1.42.28,1.29,1.28-.03.19,0,.38,0,.58,0,1.87,0,1.96,1.86,1.84,1.37-.09,1.76.39,1.64,1.69-.14,1.56.85,3.01.57,4.62-.07.39.23.61.62.62.29.01.58.01.86.01,2.21.02,2.27.02,2.21,2.18-.03,1.1.36,1.49,1.41,1.36.43-.05.87.03,1.29-.02.85-.09,1.03.32,1.05,1.09.05,2.38.08,2.46,2.48,2.57,1.09.05,1.23.47,1.22,1.39-.03,2.12.22,2.35,2.33,2.7.32.05.89-.02.82.35-.32,1.81,1.41,3.2.93,5.03-.11.44-.08.78-.69.87-2.26.37-3.17-.26-3.28-2.57-.06-1.18-.77-1.13-1.56-1.13-6.19,0-12.39-.05-18.58.03-1.45.02-2.05-.32-1.79-1.81.19-1.08-.22-1.67-1.41-1.47-1.37.23-1.95-.28-1.74-1.7.2-1.36-.16-2.27-1.83-2.03-.84.12-1.13-.42-1.03-1.16.25-1.74-.82-3.31-.61-5.07.1-.8-.64-.72-1.14-.68-.99.09-1.2-.36-1.18-1.26.06-2.64.02-5.28.02-7.92,0,0-.01,0-.02,0Zm5.37-8.98c-.81.13-2.33-.59-1.91,1.3.19.86-1.08,2.6,1.11,2.44.95-.07,2.69,1.02,2.64-1.34-.06-2.38,0-2.38-1.84-2.39Z"/>
      <path class="cls-3" d="m368.2,214.78c.02.56.05,1.11.07,1.67-.22.7-.03,1.11.76,1.1.89-.01,1.79-.03,2.68-.04,0,0,.08.09.08.09-.02,1.14-.28,2.3.22,3.41.98.06,2.24-.24,2.88.26.68.54.2,1.86.23,2.83.02.55.19.76.74.74.71-.02,1.42,0,2.13.01,0,3.35.02,6.7.03,10.04-.1,0-.19.02-.29.03-2.6.05-2.66.05-2.59,2.64.03,1.22-.18,1.79-1.6,1.68-1.85-.14-1.86-.02-1.86,1.89,0,.72,0,1.44,0,2.15-1.13.22-2.34-.47-3.41.32-.17.47.23,1.07-.32,1.45-3.18-.13-6.37-.12-9.55,0-.26-.05-.73.06-.7-.3.16-1.68-1.05-1.29-1.87-1.18-1.43.18-2.04-.25-1.74-1.73.05-.23-.02-.48.02-.72.26-1.47-.31-2.11-1.82-1.87-.78.12-1.07-.16-1.09-1.01-.07-2.68-.11-2.68-2.85-2.79-.03-3.55-.06-7.1-.09-10.65.68-.64,1.88.31,2.28-.56.31-.67.11-1.6.07-2.41-.04-.67.25-.83.84-.76.23.03.48,0,.72,0q1.92,0,1.93-1.97c0-.38.05-.77,0-1.14-.1-.79.26-1.03.98-.92.05,0,.1,0,.14,0q2.26-.05,2.37-2.26c2.2-.03,4.4-.06,6.61-.09.56,0,1.13,0,1.69,0l2.3.1Z"/>
      <path class="cls-3" d="m348.27,224.81c.03,3.55.06,7.1.09,10.65-.24-.13-.31-.34-.31-.59,0-3.23.02-6.46.04-9.69,0-.12.12-.25.18-.37Z"/>
      <path class="cls-3" d="m378.02,234.9c0-3.35-.02-6.7-.03-10.04.1.15.29.29.29.44.02,3.16.02,6.32.02,9.47,0,.04-.03.11-.05.12-.07.02-.15,0-.23,0Z"/>
      <path class="cls-3" d="m358.4,245.05c3.18-.11,6.37-.12,9.55,0-3.18.32-6.37.35-9.55,0Z"/>
      <path class="cls-3" d="m364.2,214.69c-2.2.03-4.41.06-6.61.09,2.2-.57,4.4-.34,6.61-.09Z"/>
      <path class="cls-3" d="m371.71,217.5c-.89.01-1.79.03-2.68.04-.79,0-.98-.4-.76-1.1.2.58.51.9,1.22.87.73-.02,1.51-.23,2.22.18Z"/>
      <path class="cls-3" d="m372.01,221c-.5-1.11-.24-2.27-.22-3.41.43,1.11.13,2.27.22,3.41Z"/>
      <path class="cls-3" d="m368.27,243.6c1.07-.8,2.28-.11,3.41-.32-1.09.63-2.29.09-3.41.32Z"/>
      <path class="cls-3" d="m368.2,214.78l-2.3-.1c.78-.25,1.56-.43,2.3.1Z"/>
      <path class="cls-3" d="m271.84,153.87c1.84.02,1.78.02,1.84,2.39.06,2.36-1.68,1.27-2.64,1.34-2.18.17-.92-1.58-1.11-2.44-.42-1.89,1.1-1.17,1.91-1.3Z"/>
      <path class="cls-1" d="m274.74,257.96c.08-.43-.34-.51-.7-.52-.48,0-.97-.05-1.44,0-1.03.11-1.42-.33-1.29-1.32.02-.14,0-.29,0-.43-.03-2.18-.03-2.22-2.18-2.26-.93-.02-1.26-.36-1.29-1.28-.05-2.04-.09-2.08-2.21-2.2-.77-.05-1.02-.36-.96-1.06.02-.29-.02-.58,0-.86.13-1.2-.09-1.88-1.6-1.59-.78.16-1.97.57-2.31-.91-.07-.31-.6-.2-.93-.2-1.34,0-2.7-.09-4.03.03-1.36.12-1.8-.3-1.79-1.72.07-7.01-.04-14.03.06-21.04.03-2.06-1.3-1.34-2.28-1.5-1.27-.2-1.59.41-1.48,1.55.08.81.05,1.63.01,2.45-.15,3.03-.97,6.04-.52,9.07.41,2.71.52,5.41.55,8.14.02,1.99-1.27,1.43-2.33,1.57-1.26.16-1.55-.4-1.5-1.55.08-1.72-.02-3.46.03-5.19.03-.94-.18-1.38-1.25-1.36-1.93.04-1.93-.03-1.95-2,0-1.54-.03-3.07-.01-4.61,0-.66-.07-1.17-.91-1.07-1.16.13-1.18-.59-1.18-1.44,0-.9.48-1.99-1.14-2.26-.59-.1-.56-1.25-.5-1.95.07-.97-.23-1.35-1.27-1.33-2.49.05-2.29.29-2.2-2.21.04-1.18-.27-1.72-1.5-1.51-1.03.17-1.54-.2-1.42-1.33.05-.43.14-.99-.62-1.16-.26.6-.12,1.22-.12,1.81-.02,3.03.05,6.06-.05,9.08-.06,1.83.89,3.5.64,5.35-.1.73.61.57,1.06.59,2.07.11,2.07.11,2.06,2.11,0,1.86,0,1.94,1.84,1.84,1.33-.07,1.77.36,1.7,1.69-.06,1.18.16,2.38.23,3.57.05.85.64.81,1.23.83,2.11.1,2.16.1,2.47,2.17.12.81.59.79,1.11.72,1.5-.2,2.03.48,1.85,1.9-.03.24,0,.48,0,.72.02,2.24.03,2.27-2.18,2.41-.86.05-1.03.47-1.02,1.2.02,1.58-.04,3.17.01,4.75.03.96-.32,1.32-1.25,1.21-.43-.05-.87.02-1.3-.02-.77-.07-1.04.29-.97,1.02.13,1.63-.2,3.25-.19,4.88.01,1.01-.33,1.33-1.33,1.32-3.89-.04-7.78.02-11.67-.02-1.06-.01-1.55.19-1.5,1.41.09,2.06,0,2.1-2.15,2.07-.95-.01-1.37.18-1.34,1.25.05,2.2-.02,2.29-2.16,2.19-1.31-.06-1.75.38-1.56,1.62.04.23,0,.48,0,.72,0,2.24,0,2.29-2.3,2.28-.98,0-1.25.33-1.19,1.26.07,1.1-.03,2.21.03,3.31.07,1.16-.48,1.51-1.55,1.52-1.88.02-1.88.05-1.88,1.94,0,7.3.02,14.6-.02,21.91,0,1.11.28,1.47,1.44,1.46,7.27-.05,14.53.01,21.8-.04h.11c1.3-.01,1.76.31,1.69,1.66-.12,2.44.25,2.14-2.17,2.15h-1.21l-.02.04h11.53v-.03c-1.2,0-2.41,0-3.61,0-1,0-1.04-.53-1.04-1.28,0-5.06-.06-10.11-.01-15.17,0-.23,0-.45,0-.68.01-1.27-.3-1.8-1.59-1.57-1.45.26-1.92-.44-1.67-1.77.27-1.44-.36-1.77-1.73-1.71-2.49.11-5,0-7.49.04-.86.01-1.21-.25-1.18-1.15.09-3.27-.32-2.67,2.65-2.7,3.32-.04,6.63.03,9.94-.03,1.1-.02,1.44.35,1.38,1.41-.07,1.29.03,2.59-.02,3.89-.03.8.25,1.06,1.04,1.09.01,0,.03,0,.04,0,2.73.09,2.87.13,2.66,2.84-.3,3.89-.09,7.77-.23,11.65-.03.91.21,1.25.9,1.33.14.02.31.03.49.02,5.43-.07,10.85-.05,16.28-.07.77,0,1.54.12,1.55-1.11,0-1.14-.5-1.43-1.49-1.33-.33.03-.67-.04-1.01,0-.91.09-1.38-.23-1.26-1.21.03-.24,0-.48,0-.72,0-1.06-.04-2.12.02-3.17.09-1.48,1.68-.48,2.37-1.38.44-.58.82-.96.82-1.71-.01-6.63,0-13.26,0-19.89,0-1.97,0-1.97,1.9-1.98,2.02-.01,4.04-.06,6.05-.01.93.02,1.36-.25,1.23-1.21-.04-.33.03-.67,0-1.01-.07-.98.07-1.56,1.35-1.58,1.72-.03,2.16-.8,2.42-2.57.27-1.82.11-3.64.29-5.45.16-1.61-.94-3-.63-4.62Zm-9.69,2.54c0,.75-.23,1.02-.97.99-1.04-.05-2.09-.02-3.14-.03-.5-.18-.35-.54-.25-.9,0-.18,0-.37,0-.55-.15-.88-.14-1.75,0-2.63.03-.33.2-.52.54-.54,1.36.02,2.75-.52,4.05.3-.51,1.08-.23,2.24-.24,3.36Z"/>
      <rect class="cls-5" x="272.13" y="190.52" width="3.83" height="6.29"/>
      <rect class="cls-5" x="280.06" y="190.44" width="3.98" height="6.37"/>
      <path class="cls-3" d="m258.74,151.93h3.78c.4,0,.72.32.73.72,0,1.43,0,2.85.01,4.28,0,.41-.34.74-.74.73-.88-.02-1.75-.05-2.63-.07-.34,0-.62-.25-.69-.58-.15-.7-.44-1.85-.94-2.65-.13-.21-.22-.34-.36-.51-.01-.01-.02-.03-.03-.04-.61-.76-.09-1.88.88-1.88Z"/>
    </g>
  </g>
</svg>