<?xml version="1.0" encoding="UTF-8"?>
<svg id="Layer_2" data-name="Layer 2" xmlns="http://www.w3.org/2000/svg" viewBox="0 0 391.82 329.98">
  <defs>
    <style>
      .cls-1 {
        fill: #fff;
      }
    </style>
  </defs>
  <g id="Layer_2-2" data-name="Layer 2">
    <g>
      <g>
        <path class="cls-1" d="m167.54,63.97c5.66,0,11.32,0,16.98,0q1.87,0,1.87-1.94c.02-5.66.05-11.31.07-16.97,7.47-.03,14.94-.05,22.41-.08,0,0,.01,0,.01,0,.02,5.81.02,11.63.06,17.44,0,.49-.28,1.06.23,1.48,5.67.02,11.34.09,17.01.02,1.34-.02,1.59.39,1.58,1.62-.06,6.59-.02,13.19-.03,19.78,0,.56.19,1.16-.2,1.68-5.87-.02-11.74-.03-17.62-.08-.91,0-1.01.42-1,1.16.03,4.37.04,8.74.02,13.11,0,1.74.16,3.49-.14,5.22-6.94,0-13.88-.03-20.81.03-1.21,0-1.65-.19-1.63-1.56.08-5.87.02-11.74,0-17.61-.13-.48-.54-.34-.84-.33-6.02,0-12.04.03-18.06.05l-.03-.02c0-5.26-.02-10.52,0-15.78,0-2.41.07-4.82.11-7.23Z"/>
        <path class="cls-1" d="m208.8,106.42c.3-1.73.13-3.48.14-5.22.02-4.37.01-8.74-.02-13.11,0-.74.1-1.17,1-1.16,5.87.05,11.74.06,17.62.08-.46.41-1.02.21-1.53.22-5.13.01-10.26.03-15.38-.03-1.1-.01-1.48.25-1.46,1.43.07,5.47.04,10.93.02,16.4,0,.46.33,1.09-.38,1.38Z"/>
        <path class="cls-1" d="m167.54,63.97c-.04,2.41-.1,4.82-.11,7.23-.01,5.26,0,10.52,0,15.78-.45-.32-.26-.8-.26-1.21-.01-6.84-.01-13.68,0-20.53,0-.43-.27-1,.36-1.27Z"/>
        <path class="cls-1" d="m208.87,44.97c-7.47.03-14.94.05-22.41.08.25-.44.67-.31,1.04-.31,6.81,0,13.62,0,20.43,0,.33,0,.69-.07.94.24Z"/>
        <path class="cls-1" d="m209.18,63.9c-.51-.42-.23-.99-.23-1.48-.04-5.81-.05-11.63-.06-17.44.52.28.3.78.3,1.17.01,5.92,0,11.83,0,17.75Z"/>
        <path class="cls-1" d="m167.47,87c6.02-.02,12.04-.04,18.06-.05.3,0,.71-.15.84.33-5.8-.01-11.59-.02-17.39-.06-.5,0-1.07.23-1.5-.23Z"/>
      </g>
      <g>
        <path class="cls-1" d="m214.04,281.79c3.39-4.72,6.8-9.43,10.15-14.18.51-.72,1.02-.98,1.89-.98,5.38.04,10.77-.05,16.15.05,1.4.02,1.64-.44,1.61-1.69-.08-3.25.07-6.5-.06-9.74-.06-1.56.69-2.7,1.48-3.82.61-.86.42-1.36-.17-2.08-3.58-4.39-7.11-8.83-10.65-13.25.02-5.05.05-10.09.07-15.14,1.13-.23,2.01.1,2.82.97,2.14,2.3,4.34,4.57,6.57,6.79,1.63,1.62,2.13,3.76,2.78,5.82,1.25,3.99,2.42,8,3.63,12,.14.46.34.91.46,1.37.51,1.96.5,1.96,2.58,1.74-.96-6.46-1.92-12.91-2.88-19.37.01-3.12.03-6.23.04-9.35,2.55-.41,4.68.31,6.5,2.17.73.75,1.68,1.29,2.52,1.92,0,7.76.05,15.51-.03,23.27-.01,1.45.44,1.79,1.8,1.73,2.32-.1,4.65-.17,6.97.06,3.83,5.11,7.45,10.39,11.44,15.39.01,2.26.02,4.51.03,6.77-1.18,1.41-2.4,2.8-3.52,4.26-.46.6-1.03.92-1.68.94-2.6.06-5.15.76-7.75.58-.97-.07-1.2.26-1.2,1.2.04,9.51.05,19.02.02,28.53,0,.88.2,1.15,1.12,1.16,1.22.02,2.49-.34,3.67.25l-.07,7.6h0c-8.35,0-16.7,0-25.05-.01,0,0,0,0,0,0,0-6.75,0-13.49-.03-20.24,0-.45.24-.98-.26-1.35-1.25-1.27-2.5-2.53-3.75-3.8-.37-.48-.9-.25-1.35-.25-2.57-.03-5.13-.02-7.7-.02-3.27,0-3.25,0-2.99,3.24.06.71.32.9.98.89,3.19-.05,6.38-.07,9.58-.1.65.37,1.14.79,1.13,1.66-.02,6.47,0,12.94,0,19.41,0,.24,0,.48-.24.64-.29-.03-.58-.08-.86-.08-8.57,0-17.13,0-25.7.02h0c-.01-11.67-.02-23.34-.03-35Zm46.46-20.99c.78.75,1.51,1.32,2.06,2.04.83,1.09,1.88,1.3,3.15,1.22,1.39-.09,2.33-1.01,3.09-1.9.42-.5-.59-1.28-.92-1.95-.23-.47-.58-.89-.97-1.47-1.37,2.97-4.11,1.31-6.42,2.05Z"/>
        <path class="cls-1" d="m214.04,281.79c.01,11.66.02,23.33.03,34.99-.5-.36-.28-.89-.28-1.34-.01-10.76,0-21.52,0-32.29,0-.46-.19-.98.25-1.37Z"/>
        <path class="cls-1" d="m268.27,250.08c-2.32-.23-4.65-.16-6.97-.06-1.35.06-1.81-.27-1.8-1.73.07-7.76.03-15.51.03-23.27.54.46.29,1.09.29,1.64.02,7.18.04,14.36-.01,21.54,0,1.18.24,1.62,1.5,1.55,1.89-.11,3.78-.05,5.68-.02.44,0,.99-.24,1.3.35Z"/>
        <path class="cls-1" d="m214.08,316.79c8.57,0,17.13-.01,25.7-.02.29,0,.58.05.86.08-.37.33-.83.2-1.25.2-8.04,0-16.07,0-24.11,0-.41,0-.88.18-1.21-.26Z"/>
        <path class="cls-1" d="m239.76,295.14c-3.19.03-6.38.05-9.58.1-.66.01-.92-.18-.98-.89-.25-3.24-.28-3.24,2.99-3.24,2.57,0,5.13,0,7.7.02.45,0,.98-.23,1.35.25-3.43,0-6.86.05-10.29-.02-1.12-.02-1.52.29-1.47,1.45.1,2.46-.23,2.07,2.21,2.13,2.69.06,5.39-.24,8.07.18Z"/>
        <path class="cls-1" d="m245.27,316.76c8.35,0,16.7.01,25.05.02-.31.47-.79.28-1.19.28-7.5,0-15.01,0-22.51,0-.45,0-.98.2-1.35-.28Z"/>
        <path class="cls-1" d="m244.99,295.18c.5.37.25.9.26,1.35.02,6.74.02,13.49.03,20.24-.45-.31-.29-.79-.29-1.2,0-6.79,0-13.59,0-20.38Z"/>
        <path class="cls-1" d="m234.5,220.97c-.02,5.05-.05,10.09-.07,15.14-.32-.43-.19-.93-.19-1.4-.02-4.09-.03-8.18,0-12.26,0-.49-.24-1.07.27-1.48Z"/>
        <path class="cls-1" d="m250.51,220.93c-.01,3.12-.03,6.23-.04,9.35-.59-2.33-.18-4.7-.26-7.04-.02-.76-.36-1.62.3-2.31Z"/>
        <path class="cls-1" d="m270.33,316.77l.07-7.6c.31,2.54.42,5.07-.07,7.6Z"/>
        <path class="cls-1" d="m279.74,272.24c-.01-2.26-.02-4.51-.03-6.77.43,2.25.43,4.51.03,6.77Z"/>
      </g>
      <g>
        <path class="cls-1" d="m221.61,153.04c2.1-2.03,4.2-4.06,6.47-6.26,0,2.53,0,4.88,0,7.23,0,2.23.03,4.46-.03,6.68-.02.79.19,1.3.94,1.57.04.02.08.06.12.08,4.87,1.85,8.12,5.42,10.84,9.74,2.18,3.47,4.73,6.72,7.48,9.79-.02,1.58-.04,3.15-.07,4.73-1.19,3.17-2.56,6.26-4.13,9.27-.29.56-.66.88-1.24,1.09-3.61,1.27-7.22,2.57-10.83,3.85-.14.05-.3.04-.42.12-2.38,1.61-3.6,4.25-5.52,6.28-.66.69-.4,1.56-.4,2.36-.02,5.48-.05,10.96,0,16.44.04,4.13-.14,8.17-1.31,12.21-1.61,5.61-3.15,11.24-5.05,16.76-2.83,8.26-5.64,16.54-8.46,24.81-.43.56-.25,1.22-.25,1.83-.01,11.73-.01,23.46-.02,35.18,0,0-.01,0-.01,0-1.64-.03-3.28-.07-4.92-.1,0-3.39-.05-6.78.01-10.17.02-1.05-.27-1.84-1.02-2.56-.98-.93-1.9-1.93-2.84-2.9-.39-.44-.9-.24-1.36-.25-2.27-.01-4.54,0-6.81.01,0,0-.03-.05-.03-.05.02-.19.05-.39.05-.58,0-10.34,0-20.68,0-31.02,0-.36.15-.79-.27-1.06-4.57-4.65-9.13-9.31-13.7-13.96-.24-.45-.67-.31-1.03-.31-4.55,0-9.1,0-13.65,0-.37,0-.78-.12-1.09.23-.35,1.29-.43,2.57.04,3.85.18.06.36.18.54.18,4.31,0,8.62-.01,12.92-.02,4.02,3.91,7.98,7.88,11.77,12.03-.03.24-.09.48-.09.72,0,11.09.01,22.19.03,33.28,0,.32-.13.69.25.92,3.94.04,7.89.08,11.83.11.02,3.87.04,7.75.06,11.62,0,0,0,0,0,0-2.33,0-4.65,0-6.98,0-17.78,0-35.56.02-53.35.03,0,0-.01-.01-.01-.01,0-3.15,0-6.3,0-9.45-.01-15.9-.02-31.79-.03-47.69,3.84-9.82,7.68-19.65,11.51-29.48.25-.64.61-1.19,1.09-1.68,11.86-12.16,23.69-24.34,35.57-36.47,1.28-1.3.78-2.89,1.1-4.32.62-2.85,1.09-5.75,1.44-8.64.36-3.06,1.11-6.07,1.21-9.16.02-.49.21-.76.53-1.09,8.49-8.93,16.97-17.88,25.47-26.79.16-.17.32-1.01.88-.31-.03,6.52-.06,13.04-.08,19.55,0,.24.01.49.34.52.75,0,1.51-.02,2.26-.02.3-.08.32-.33.32-.57-.01-2.71-.03-5.42-.05-8.12Zm12.75,38.26c-5.61,1.12-10.74,3.49-15.82,5.99-1.24.61-2.3,1.6-3.47,2.37-.61.41-.49.9-.21,1.38.28.49.65.38,1.09.09,5.36-3.58,11.12-6.29,17.33-7.99,1.02-.28,1.5-.75,1.08-1.84Zm.13-2.86c.18-.79-.31-.93-.98-.7-1.28.43-2.63.27-3.94.54-5.04,1.03-9.72,2.97-14.27,5.29-.35.18-.71.38-.54.88.13.37.31.79.74.79.31,0,.62-.24.92-.38,5.56-2.58,11.22-4.84,17.4-5.37.83-.07.63-.5.66-1.05Zm-1.98-15.76c-.36.28-7.31,3.21-7.77,3.29,2.63,2.81,2.63,2.75,5.59,2.72,1.76-.02,2.71-1.2,3.6-2.36.69-.9-.47-1.6-.74-2.41-.15-.44-.45-.83-.68-1.24Z"/>
        <path class="cls-1" d="m140.09,316.8c17.78,0,35.56-.02,53.35-.03,2.33,0,4.65,0,6.98,0-.37.48-.9.27-1.35.27-19.21.01-38.41.02-57.62,0-.45,0-.98.21-1.36-.25Z"/>
        <path class="cls-1" d="m140.04,259.65c.01,15.9.02,31.79.03,47.69,0,3.15,0,6.3,0,9.45-.49-.36-.28-.89-.28-1.34-.01-18.24,0-36.47,0-54.71,0-.37-.12-.79.24-1.09Z"/>
        <path class="cls-1" d="m209.76,316.79c0-11.73,0-23.46.02-35.18,0-.61-.19-1.27.25-1.83,0,11.99.02,23.98.02,35.96,0,.36.15.79-.28,1.05Z"/>
        <path class="cls-1" d="m188.52,305.04c-.38-.22-.25-.6-.25-.92-.01-11.09-.02-22.19-.03-33.28,0-.24.06-.48.09-.72.31.44.17.94.17,1.41.01,11.17.02,22.34.02,33.51Z"/>
        <path class="cls-1" d="m192.54,268.13c.42.27.27.69.27,1.06.01,10.34.01,20.68,0,31.02,0,.19-.03.39-.05.58-.39-.35-.23-.82-.23-1.23,0-10.47,0-20.95,0-31.42Z"/>
        <path class="cls-1" d="m219.08,161.76c-.33-.03-.34-.28-.34-.52.03-6.52.06-13.04.08-19.55.31.54.17,1.13.17,1.7.04,6.12.06,12.25.09,18.37Z"/>
        <path class="cls-1" d="m163.07,254.1c.3-.35.72-.23,1.09-.23,4.55-.01,9.1-.01,13.65,0,.36,0,.79-.14,1.03.31-5.26-.02-10.51-.05-15.77-.07Z"/>
        <path class="cls-1" d="m176.56,258.1c-4.31,0-8.62.02-12.92.02-.18,0-.36-.11-.54-.18,4.31-.02,8.63-.04,12.94-.04.17,0,.35.13.52.2Z"/>
        <path class="cls-1" d="m200.41,316.78c-.02-3.87-.04-7.75-.06-11.62.41.17.35.54.35.86,0,3.34,0,6.67,0,10.01,0,.28.03.59-.3.75Z"/>
        <path class="cls-1" d="m221.61,153.04c.02,2.71.04,5.42.05,8.12,0,.24-.02.49-.32.57.02-2.44.03-4.88.06-7.32,0-.46-.16-.96.2-1.38Z"/>
        <path class="cls-1" d="m192.8,300.83c2.27,0,4.54-.02,6.81-.01.46,0,.98-.19,1.36.25-2.27.01-4.55.04-6.82.03-.45,0-.98.2-1.35-.26Z"/>
        <path class="cls-1" d="m204.83,316.7c1.64.03,3.28.07,4.92.1-1.65.36-3.29.57-4.92-.1Z"/>
        <path class="cls-1" d="m247.36,186.59c.02-1.58.04-3.15.07-4.73.32,1.58.39,3.16-.07,4.73Z"/>
      </g>
      <g>
        <path class="cls-1" d="m263.86,168.77c0-.18,0-.36,0-.54,0-2.15.01-4.3.02-6.45,0,0,0-.02,0-.02,4.88-.02,9.76-.03,14.63-.05,0,0,.03.06.03.06,0,2.28-.05,4.55-.01,6.83.02.84-.31,1.73.24,2.52,8.48,9.34,16.97,18.67,25.45,28.02,1.93,2.13,1.91,2.15.19,4.63-1.84-.01-3.69-.03-5.53-.04-.03-.04-.06-.07-.09-.11-1.75-2.04-3.91-2.83-6.63-2.52-2,.23-4.04.07-6.07.09-.54,1.7-.59,3.4,0,5.1.56.42,1.12.84,1.67,1.26.47.51,1.1.28,1.64.28,6.55.02,13.1-.03,19.65.03,1.26.01,1.49-.41,1.49-1.57-.03-23.05-.02-46.1-.03-69.15,0-6.35-.04-12.71-.06-19.06.46-.42,1.02-.2,1.53-.2,6.59-.03,13.19-.05,19.78-.06.72-.72.32-1.62.29-2.41-.07-1.83.37-3.7-.25-5.5-5.42-3.74-10.83-7.51-16.27-11.23-17.68-12.09-35.34-24.21-53.07-36.24-21.41-14.53-42.89-28.98-64.32-43.49-.67-.45-1.06-.33-1.64.06-16.41,11.04-32.87,22-49.22,33.11-17.72,12.04-35.34,24.22-53,36.35-10.15,6.97-20.28,13.96-30.41,20.95-.24.16-.45.36-.67.54-.56,2.1-.11,4.24-.24,6.36-.03.47-.28,1.06.28,1.44,5.12.03,10.25.05,15.37.08,2.13,0,4.26,0,6.38.01.05.63.14,1.25.14,1.88,0,21.35.01,42.7.01,64.05,0,43.82-.02,87.64.02,131.46,0,1.35-.34,1.68-1.66,1.67-11.65-.06-23.29-.05-34.94-.05-.56,0-1.16-.19-1.69.19-6.45-.59-11.72-3.4-15.59-8.59-2.79-3.74-4.24-7.95-4.17-12.7.1-6.3,0-12.61.03-18.91,0-.83-.14-1.09-1.08-1.18-3.72-.35-7.38-1-10.7-2.92-5.43-3.13-8.53-7.83-9.59-13.99-.2-1.15-.16-2.3-.29-3.44.02-4.15.05-8.29.06-12.44,0-.27.07-.6-.32-.7-1.31,0-2.62-.08-3.93,0-1.03.07-1.3-.29-1.3-1.3.04-8.4.02-16.79.02-25.19,0-15,.02-30-.03-45,0-1.37.4-1.68,1.69-1.65,3.25.09,6.5-.01,9.76.04.92.02,1.14-.27,1.13-1.15-.02-1.1-.48-2.55.23-3.22.76-.72,2.22-.27,3.36-.24,2.5.06,5.02-.25,7.51.19-.02,4.68-.03,9.36-.05,14.04,0,0-.01.01-.01.01-3.7,0-7.4-.01-11.1-.02q.14-2.98-3-2.98-2.51,0-2.51,2.47c0,17.93,0,35.87-.04,53.8,0,1.18.24,1.62,1.49,1.52,1.44-.12,2.91.04,4.36-.04,1.12-.07,1.48.24,1.47,1.43-.05,4.94.02,9.89.04,14.83-.06,1.96-.16,3.92.25,5.85.16,4.29,2.9,8.41,7.21,9.9,1.63.57,3.28.91,5,.88,1.59.08,3.17.24,4.76.22,2.21-.03,4.43.2,6.63-.22,2.35-.34,4.55-1.01,6.46-2.53,2.5-2,3.67-4.66,4.03-7.74.82-7.03.51-14.09.53-21.14,0-1.1.21-1.55,1.41-1.47,1.59.11,3.2-.01,4.8.02.61.01.88-.15.84-.8-.05-.72-.01-1.45-.01-2.18,0-17.71-.01-35.42.03-53.13,0-1.29-.28-1.89-1.64-1.67-.33.05-.68,0-1.02,0q-2.9.01-2.93,2.96c-3.69,0-7.37,0-11.06.01,0,0,0,0,0,0-.01-4.67-.02-9.34-.03-14,.65-.48,1.39-.21,2.08-.22,2.65-.03,5.29-.01,7.94.02.42,0,1.02-.28,1.13.49-.13.4-.12.81,0,1.21,0,.86.02,1.71.02,2.57-.06.22.03.3.25.27,3.69.02,7.38.07,11.06.03.99-.01,1.18.31,1.18,1.23-.02,23.54-.03,47.08,0,70.62,0,1.06-.33,1.27-1.31,1.25-1.28-.03-3.01-.56-3.74.29-.63.73-.21,2.4-.22,3.65-.01,2.82.1,5.63-.02,8.44-.29,7.01-2.38,13.18-8.5,17.34-3.05,2.08-6.43,3.27-10.11,3.51-.95.06-1.19.37-1.19,1.3.05,6.5.08,13.01.01,19.51-.04,4.05,2.03,6.72,5.34,8.6.94.53,2.04.76,3.07,1.13,7.96.02,15.91.05,23.87.04,2.38,0,2.1.36,2.1-2.06.01-57.25.01-114.49,0-171.74,0-.42.32-.99-.33-1.25-7.84-.01-15.69-.03-23.53-.04-.03-.58-.07-1.16-.07-1.73-.01-9.23-.02-18.45-.03-27.68,10.42-7.25,20.82-14.53,31.27-21.75,19.99-13.8,39.96-27.62,60.01-41.33,14.41-9.85,28.94-19.51,43.41-29.26,4.3-2.9,8.63-5.76,12.9-8.71.92-.63,1.54-.54,2.41.05,15.52,10.54,31.07,21.03,46.6,31.56,26.41,17.89,52.78,35.83,78.99,54.02,7.28,5.06,14.57,10.11,21.85,15.17,0,9.89,0,19.78,0,29.68-6.73.01-13.46.03-20.19.04-.82,0-1.64.03-2.47.04-.57.94-.27,1.97-.27,2.95-.02,56.75-.02,113.5,0,170.25,0,.51-.21,1.07.21,1.53,0,0,0,0,0,0,.1.29.36.28.59.28,8.55-.02,17.11-.04,25.66-.06,2.96-.46,5.46-1.73,7.26-4.17,1.05-1.42,1.62-3.03,1.76-4.79.33-.43.22-.93.22-1.4,0-9.72.01-19.44,0-29.16,0-.4.21-.88-.24-1.2,0,0,0,0,0,0-.54-.48-1.19-.24-1.79-.25-6.39-.04-12.78-.05-19.16-.07,0-18.04,0-36.08.01-54.12,17.95,0,35.9-.02,53.85-.02.05.07.08.15.09.24-.03.19-.08.38-.08.57,0,17.79.02,35.58.03,53.37,0,0,0,.01,0,.01-6.84,0-13.68,0-20.52.03-.44,0-.97-.27-1.32.26-.02,5.62,0,11.24-.08,16.86-.08,5.52.42,11.07-.25,16.56-1.17,9.7-8.9,16.66-17.22,17.82-.47.07-.92.2-1.39.3-.24-.01-.48-.04-.72-.04-13.17.01-26.34.03-39.51.04h0c0-.11.02-.2.02-.3,0-32.78,0-65.56,0-98.34,0-.34.22-.8-.3-1-5.71-.02-11.42-.06-17.14-.06-12.11,0-24.21,0-36.32-.02-.54,0-1.3.39-1.62-.49.13-2.44.16-4.88,0-7.32.02-.46.05-.93.07-1.39,6.4-.01,12.81-.02,19.21-.06.47,0,1.07.34,1.43-.29,0-.05.02-.1.02-.14,0-1.99.46-4.13-.14-5.92-.6-1.79-2.62-2.89-4-4.3-2.6-2.67-5.24-5.3-7.86-7.95.03-5.45.05-10.91.08-16.36,0-.24-.01-.48-.27-.62-1.22-.79-2.09-1.94-3.45-3.16,1.35,0,2.37,0,3.39,0,.24.03.33-.07.26-.3Zm15.22,32.4c-.66.36-.27.94-.28,1.43,0,.28,0,.56,0,.84.03.98-.42,2,.28,2.91.97,1.33,2.34,1.3,3.76,1.14.05.01.1.04.14.03.03,0,.08-.06.08-.09.07-1.99.21-3.99-.23-5.96-1.24-.23-2.53.26-3.75-.29Zm-5.87-16.34c.39,4.74,2.88,8.01,7.03,10.19,3.61,1.89,7.48,1.37,11.3,1.43.27,0,.71.03.59-.38-.13-.44.58-1.26-.53-1.3-1.86,0-3.71-.02-5.57-.02-2.42-.23-4.69-.81-6.74-2.23-3.2-2.22-5.32-7.41-4.39-10.56-.74-.34-1.65-.93-1.93.37-.17.79-.27,1.72.23,2.51Zm93.83,73.39c6.85-1.01,11.94-4.59,15.38-10.56,1.29-2.24,1.81-4.74,2.35-7.23.42-1.65.47-3.29.01-4.94-.4-2.75-1.22-5.38-2.63-7.76-5.18-8.75-13.77-11.54-22.18-9.89-5.27,1.04-9.51,4.13-12.51,8.74-1.72,2.64-2.77,5.53-3.39,8.59,0,.69-.02,1.39-.03,2.08,0,.47,0,.94,0,1.42-.08.72-.16,1.43.24,2.09.24,3.78,1.93,6.99,4.21,9.86,3.46,4.36,7.99,6.94,13.57,7.59,1.66.43,3.32.41,4.97,0Zm-95.81-89.14c-.14-1.03-.66-1.76-1.77-1.72-1.05.03-1.75.72-1.73,1.76.02.96.72,1.63,1.68,1.66,1.04.03,1.69-.59,1.82-1.7Z"/>
        <path class="cls-1" d="m140.08,162.17c-4.82-2.87-9.64-5.74-14.45-8.63-3.53-2.12-7.03-4.29-10.56-6.41-.64-.38-.9-.63-.64-1.51,1.23-4.2,2.34-8.43,3.45-12.66,1.13-4.28,2.21-8.56,3.3-12.85.16-.65.3-1.28.85-1.75,4.86-4.16,9.71-8.32,14.57-12.49.5,0,.99-.02,1.49-.03,9.31,0,18.61,0,27.92,0,.89.14,1.78.13,2.67,0,.18,0,.36,0,.54,0,.11,0,.22.01.33.02,3.2,3.7,6.45,7.36,9.58,11.13,1.01,1.22,2.02,1.76,3.65,1.74,7.72-.08,15.43-.02,23.15-.02.21,2.13.08,4.26,0,6.39-.48,0-.97,0-1.45.01-.65.02-1.47-.2-1.44.89.03.98.5,1.71,1.46,1.97.45.12.96.03,1.45.04.02,3.71.04,7.41.07,11.12-4.15,4.6-8.31,9.19-12.43,13.82-.47.53-.94.71-1.62.71-3.49-.01-6.97.01-10.46.02-.58.32-.28.86-.28,1.29-.03,2.52-.02,5.03-.02,7.55.02,10.07.04,20.13.06,30.2-7.38,7.64-14.75,15.29-22.13,22.93-3.34,3.46-6.66,6.93-10.02,10.36-1.03,1.05-1.69,2.25-2.22,3.63-1.47,3.85-3.09,7.65-4.58,11.49-1.88,4.85-3.72,9.72-5.78,14.49-1.28,2.96-1.41,5.9-1.41,8.98.02,17.37,0,34.74-.01,52.12-.24.02-.48.07-.72.07-11.97,0-23.95-.02-35.92-.03,0,0,0,0,0,0,0-25.11,0-50.21,0-75.32,0-.43-.05-.87-.08-1.3,1.67-3.83,3.42-7.63,4.98-11.51,1.76-4.4,3.71-8.72,5.66-13.02,3.93-8.66,7.58-17.45,11.51-26.12.22-.48.42-.97.63-1.46.43-.62.22-1.32.22-1.98.03-10.22.04-20.44.06-30.66,5.66,3.27,11.33,6.55,16.99,9.82.25.14.51.27.76.41.38.46.9.27,1.36.27,2.32.01,4.65-.07,6.97,0,1.11.04,1.37-.32,1.37-1.39-.04-7.5-.02-15.01-.02-22.52,0-.42.14-.88-.27-1.22-1-3.32-2-6.65-2.98-9.97-.81-2.74-1.6-5.48-2.36-8.23-.42-1.53-1.62-1.95-2.88-.98-.46.36-.24.75-.15,1.15,1.65,6.75,3.3,13.5,4.94,20.26.1.42.14.86.14,1.29,0,5.53,0,11.07-.02,16.6,0,.44.37,1.13-.5,1.27-1.57-.15-3.14-.13-4.71,0Zm25.44-37.94h0c.53-.01,1.08-.09,1.6,0,2.34.4,3.23-1.43,4.13-2.9.56-.91-.88-1.49-1.27-2.3-.1-.22-.26-.41-.41-.6-.5-.6-1.17-.26-1.77-.28-.47-.01-.69.39-.59.82.35,1.63-.64,1.97-1.93,2.17-.92.15-1.85.3-2.76.62-.7.25-1.25.41-1.18,1.32.07.92.79,1.06,1.41,1.13.91.11,1.84.03,2.76.03Z"/>
        <path class="cls-1" d="m46.89,317.05c.53-.37,1.13-.19,1.69-.19,11.65,0,23.29,0,34.94.05,1.32,0,1.67-.33,1.66-1.67-.04-43.82-.02-87.64-.02-131.46,0-21.35,0-42.7-.01-64.05,0-.63-.09-1.25-.14-1.88.76.48.36,1.24.36,1.84.02,36.63.02,73.27.02,109.9,0,28.63,0,57.25,0,85.88,0,.89.16,1.68-1.26,1.67-12.28-.05-24.55-.04-36.83-.04-.14,0-.29-.03-.43-.05Z"/>
        <path class="cls-1" d="m72.22,130.94c.65.27.33.84.33,1.25.01,57.25,0,114.49,0,171.74,0,2.42.28,2.06-2.1,2.06-7.96,0-15.91-.03-23.87-.04.4-.44.92-.2,1.38-.2,7.42-.02,14.85-.01,22.27-.04,2.24,0,2.04.35,2.04-2,0-32.36,0-64.73,0-97.09,0-24.7,0-49.39,0-74.09,0-.53-.04-1.06-.06-1.6Z"/>
        <path class="cls-1" d="m323.31,305.72c-.42-.46-.21-1.02-.21-1.53-.01-56.75-.01-113.5,0-170.25,0-.98-.3-2.01.27-2.95,0,57.66,0,115.32,0,172.98,0,.58-.04,1.16-.06,1.74Z"/>
        <path class="cls-1" d="m310.46,118.09c.02,6.35.06,12.71.06,19.06,0,23.05,0,46.1.03,69.15,0,1.16-.23,1.58-1.49,1.57-6.55-.06-13.1-.01-19.65-.03-.55,0-1.17.23-1.64-.28,6.89,0,13.78-.05,20.66.02,1.43.02,1.85-.3,1.85-1.81-.06-28.18-.05-56.36-.04-84.55,0-1.04-.25-2.12.22-3.13Z"/>
        <path class="cls-1" d="m310.21,217.15c.53.2.3.66.3,1,0,32.78,0,65.56,0,98.34,0,.1-.01.19-.02.29-.49-.49-.25-1.1-.25-1.66-.01-32.32-.01-64.64-.01-96.96,0-.34-.01-.68-.02-1.02Z"/>
        <path class="cls-1" d="m98.4,240.13c.03.43.08.87.08,1.3,0,25.11,0,50.21,0,75.32-.47-.43-.27-1-.27-1.51-.01-24.62-.01-49.24,0-73.86,0-.42-.12-.88.2-1.26Z"/>
        <path class="cls-1" d="m391.52,264.94c-.01-17.79-.02-35.58-.03-53.37,0-.19.06-.38.08-.57.33.43.19.93.2,1.41,0,17.06.01,34.11,0,51.17,0,.46.19.98-.25,1.37Z"/>
        <path class="cls-1" d="m391.49,210.76c-17.95,0-35.9.02-53.85.02.34-.54.88-.3,1.32-.3,17.06-.01,34.12-.01,51.18,0,.45,0,.98-.21,1.35.28Z"/>
        <path class="cls-1" d="m310.5,316.79c13.17-.01,26.34-.03,39.51-.04.24,0,.48.02.72.04-.56.41-1.22.26-1.83.27-12.36.02-24.71.03-37.07.02-.45,0-.98.23-1.33-.28Z"/>
        <path class="cls-1" d="m181.25,192.71c-.02-10.07-.04-20.13-.06-30.2,0-2.52-.02-5.03.02-7.55,0-.43-.3-.97.28-1.29,0,12.45,0,24.91-.02,37.36,0,.56.2,1.17-.22,1.68Z"/>
        <path class="cls-1" d="m98.47,316.75c11.97.01,23.95.02,35.92.03.24,0,.48-.04.72-.07-.3.59-.85.35-1.29.35-11.34.01-22.68,0-34.02,0-.45,0-.98.22-1.33-.3Z"/>
        <path class="cls-1" d="m148.6,140.78c.41.33.27.8.27,1.22,0,7.51-.02,15.01.02,22.52,0,1.07-.26,1.42-1.37,1.39-2.32-.08-4.65,0-6.97,0-.46,0-.98.19-1.36-.27,2.71,0,5.42-.06,8.12,0,1.03.02,1.3-.34,1.3-1.33-.04-7.84-.02-15.67-.03-23.51Z"/>
        <path class="cls-1" d="m121.45,155.39c-.02,10.22-.03,20.44-.06,30.66,0,.66.21,1.36-.22,1.98-.01-10.59-.03-21.18-.04-31.78,0-.31-.14-.7.31-.86Z"/>
        <path class="cls-1" d="m358.57,265.22c.44.33.24.8.24,1.2.01,9.72,0,19.44,0,29.16,0,.47.11.97-.22,1.4-.01-7.93-.03-15.86-.03-23.79,0-2.66.01-5.32.02-7.98Z"/>
        <path class="cls-1" d="m346.03,130.91c0-9.89,0-19.78,0-29.68.47.31.29.78.29,1.19,0,9.1,0,18.2,0,27.29,0,.4.19.89-.29,1.19Z"/>
        <path class="cls-1" d="m48.59,101.48c0,9.23.02,18.45.03,27.68,0,.58.05,1.16.07,1.73-.55-.25-.35-.75-.35-1.15-.01-9.06,0-18.13,0-27.19,0-.37-.14-.79.25-1.07Z"/>
        <path class="cls-1" d="m349.57,305.94c-8.55.02-17.11.04-25.66.06-.24,0-.49.02-.59-.28,8.34,0,16.68,0,25.03,0,.41,0,.88-.2,1.23.22Z"/>
        <path class="cls-1" d="m369.67,265.24c.35-.53.89-.26,1.32-.26,6.84-.03,13.68-.03,20.52-.03-.3.49-.78.29-1.18.29-6.89.01-13.77,0-20.66,0Z"/>
        <path class="cls-1" d="m337.62,264.9c6.39.02,12.78.03,19.16.07.59,0,1.25-.23,1.79.25-6.65.01-13.31.02-19.96.02-.35,0-.8.18-.99-.34Z"/>
        <path class="cls-1" d="m275.84,207.52c-.36.63-.96.29-1.43.29-6.4.04-12.81.05-19.21.06.38-.58.97-.31,1.46-.31,6.39-.03,12.78-.03,19.18-.04Z"/>
        <path class="cls-1" d="m263.66,172.23c.25.13.27.38.27.62-.02,5.45-.05,10.91-.08,16.36-.35-.53-.19-1.13-.19-1.7-.01-5.09,0-10.18,0-15.28Z"/>
        <path class="cls-1" d="m278.52,161.71c-4.88.02-9.76.03-14.63.05.13-.37.45-.3.72-.3,4.43,0,8.85,0,13.28,0,.24,0,.48,0,.63.25Z"/>
        <path class="cls-1" d="m39.58,164.7c.01,4.67.02,9.34.03,14-.28-.2-.25-.5-.25-.78,0-4.14,0-8.28,0-12.42,0-.29-.01-.58.22-.81Z"/>
        <path class="cls-1" d="m23.63,178.72c.02-4.68.03-9.36.05-14.04.33.31.21.72.21,1.09,0,3.91.01,7.83,0,11.74,0,.41.18.88-.26,1.2Z"/>
        <path class="cls-1" d="m5.24,242.19c.39.1.33.43.32.7-.02,4.15-.04,8.29-.06,12.44-.4-.62-.2-1.32-.21-1.98-.04-3.72-.04-7.44-.06-11.16Z"/>
        <path class="cls-1" d="m38.17,266.38c-2.2.42-4.42.2-6.63.22-1.58.02-3.17-.14-4.76-.22,3.8,0,7.59,0,11.39,0Z"/>
        <path class="cls-1" d="m39.61,178.7c3.69,0,7.37,0,11.06-.01-.13.36-.44.32-.73.32-3.2,0-6.4,0-9.6,0-.29,0-.59.03-.74-.31Z"/>
        <path class="cls-1" d="m206.01,139.13c-.02-3.71-.04-7.41-.07-11.12.38.11.33.43.33.7,0,3.26,0,6.53,0,9.79,0,.24-.02.48-.26.62Z"/>
        <path class="cls-1" d="m12.51,178.71c3.7,0,7.4.01,11.1.02-.22.37-.59.27-.91.28-3.05,0-6.09.01-9.14,0-.38,0-.79.09-1.06-.3Z"/>
        <path class="cls-1" d="m278.78,171.13c-.55-.79-.22-1.68-.24-2.52-.04-2.28,0-4.55.01-6.83.51,1.2.18,2.46.22,3.7.06,1.88,0,3.77,0,5.66Z"/>
        <path class="cls-1" d="m63.26,117.76c-.56-.39-.31-.97-.28-1.44.13-2.12-.32-4.26.24-6.36.01,2.6.03,5.2.04,7.8Z"/>
        <path class="cls-1" d="m331.81,109.91c.62,1.81.18,3.67.25,5.5.03.79.43,1.69-.29,2.41.01-2.64.03-5.28.04-7.92Z"/>
        <path class="cls-1" d="m255.13,209.26c.16,2.44.13,4.88,0,7.32-.33-2.44-.3-4.88,0-7.32Z"/>
        <path class="cls-1" d="m205.93,125.09c.07-2.13.21-4.26,0-6.39.52.18.38.64.35.97-.2,1.8.46,3.66-.34,5.42Z"/>
        <path class="cls-1" d="m263.88,161.79c0,2.15-.01,4.3-.02,6.45-.31-2.15-.34-4.3.02-6.45Z"/>
        <path class="cls-1" d="m14.57,255.6c-.41-1.94-.31-3.9-.25-5.85.47,1.93.22,3.9.25,5.85Z"/>
        <path class="cls-1" d="m298.88,203.73c1.84.01,3.69.03,5.53.04-1.85.31-3.69.47-5.53-.04Z"/>
        <path class="cls-1" d="m286.09,206.29c-.59-1.7-.54-3.4,0-5.1,0,1.7,0,3.4,0,5.1Z"/>
        <path class="cls-1" d="m140.08,162.17c1.57-.14,3.14-.15,4.71,0-1.57.28-3.14.32-4.71,0Z"/>
        <path class="cls-1" d="m168.68,105.83c-.89.13-1.78.14-2.67,0,.89-.3,1.78-.29,2.67,0Z"/>
        <path class="cls-1" d="m138.09,105.84c-.5,0-.99.02-1.49.03.49-.34.99-.29,1.49-.03Z"/>
        <path class="cls-1" d="m50.73,166.2c-.12-.4-.12-.81,0-1.21.26.4.25.81,0,1.21Z"/>
        <path class="cls-1" d="m169.55,105.85c-.11,0-.22-.01-.33-.02.12-.14.23-.13.33.02Z"/>
        <path class="cls-1" d="m51,169.03c-.22.03-.31-.05-.25-.27.08.09.16.18.25.27Z"/>
        <path class="cls-1" d="m263.86,168.77c.07.23-.02.33-.26.3.09-.1.17-.2.26-.3Z"/>
        <path class="cls-1" d="m282.84,207.49c0-2.01,0-4.02,0-6.02.44,1.97.3,3.97.23,5.96,0,.03-.05.09-.08.09-.04,0-.09-.02-.14-.03Z"/>
        <path class="cls-1" d="m291.6,194.77c-1.86.32-3.72.42-5.57-.02,1.86,0,3.71.02,5.57.02Z"/>
        <path class="cls-1" d="m274.9,181.96c-1.36-.3-1.94.19-1.7,1.61.07.41,0,.85,0,1.27-.51-.8-.4-1.73-.23-2.51.28-1.29,1.19-.7,1.93-.37Z"/>
        <path class="cls-1" d="m362.07,258.22c1.66,0,3.32,0,4.97,0-1.66.4-3.32.43-4.97,0Z"/>
        <path class="cls-1" d="m384.77,240.44c0-1.65,0-3.29.01-4.94.45,1.65.41,3.3-.01,4.94Z"/>
        <path class="cls-1" d="m278.8,203.44c.41.94.06,1.95.28,2.91-.7-.91-.25-1.93-.28-2.91Z"/>
        <path class="cls-1" d="m344.05,238.68c.31.67.3,1.38.24,2.09-.4-.66-.32-1.38-.24-2.09Z"/>
        <path class="cls-1" d="m344.08,235.19c.43.7.21,1.39-.03,2.08,0-.69.02-1.39.03-2.08Z"/>
        <path class="cls-1" d="m279.09,201.17c-.09.48-.19.95-.28,1.43.02-.49-.38-1.06.28-1.43Z"/>
        <path class="cls-1" d="m379.58,238.07c.21,9.13-7.79,15.32-15.45,15.16-8.13-.18-15.17-6.9-15.11-15.62.06-7.09,6.3-15.48,16.51-14.96,6.55.33,14.45,6.28,14.05,15.43Z"/>
      </g>
      <rect class="cls-1" x="75.46" y="319.94" width="243.45" height="10.04"/>
    </g>
  </g>
</svg>