<?xml version="1.0" encoding="UTF-8"?>
<svg id="Layer_2" data-name="Layer 2" xmlns="http://www.w3.org/2000/svg" viewBox="0 0 153.39 130.65">
  <defs>
    <style>
      .cls-1, .cls-2 {
        fill: #fff;
      }

      .cls-3 {
        fill: #192f5a;
      }

      .cls-2, .cls-4 {
        stroke: #1a305a;
        stroke-miterlimit: 10;
        stroke-width: .45px;
      }

      .cls-4 {
        fill: none;
      }
    </style>
  </defs>
  <g id="Layer_1-2" data-name="Layer 1">
    <rect class="cls-3" y=".22" width="153.39" height="130.43"/>
    <g>
      <path class="cls-2" d="m100.9,93.42c-.03-2.08-.68-4.01-1.55-5.87-.36-.77-.75-1.54-1.3-2.22-.11-.13-.19-.27-.19-.44-.06-1.26-.17-2.53.1-3.78.05-.22.13-.43.22-.63.22-.47.54-.57.98-.26.85.6,1.51,1.39,2.06,2.25,1.1,1.72,1.81,3.59,2.03,5.65.15,1.35.38,2.69.35,4.05-.01.59.45.44.73.49,1.58.28,3.01.87,4.24,1.93.9.78,1.61,1.71,2.02,2.81.39,1.05.96,1.97,1.63,2.85.73.95.6,1.71-.29,2.53-.22.2-.16.59-.38.85-1.08,1.31-2.45,2.07-4.16,2.18-.59.04-1.18.03-1.77-.11-.19-.04-.39-.08-.59.03.13.16.32.23.48.24.84.08.97.67,1.05,1.36.31,2.62-.35,4.97-2,7.03-.37.46-.62.94-.67,1.53-.06.73-.13,1.47.03,2.19.19.88.81,1.44,1.66,1.86-.56.3-1.11.32-1.63.43-.6.12-1.21.2-1.81.29-.25.04-.48,0-.6-.29-.44-1.12-1.16-2.12-1.41-3.36-.44.24-.78.58-1.35.73,1.17-2.96.84-5.52-1.99-7.27-1.66-1.02-3.42-.72-5.12,0,2.35-.41,4.57-.23,5.9,2.04,1.25,2.14.78,4.27-.74,6.28,1.4.01,2.71.02,3.47,1.51-1.13-.2-2.16-.41-3.2-.57-2.9-.43-5.8-.94-8.74-1.03-.51-.02-.47-.31-.48-.65-.04-1.46-.52-2.7-1.79-3.55-.13-.09-.28-.2-.43-.22-.89-.12-.96-.71-1.01-1.47-.43-6.7,4.25-11.96,9.94-13.05.54-.1,1.07-.25,1.6-.31.33-.04.38-.19.4-.47.14-1.32.52-2.57,1.23-3.68.32-.49.11-.71-.21-.99-1.68-1.46-3.14-3.09-4.13-5.11-.91-1.84-1.44-3.75-1.31-5.82.07-1,.37-1.2,1.28-.75,1.84.92,3.07,2.46,4.16,4.14,1.15,1.78,1.85,3.77,2.65,5.71.15.36.31.7.63.95.01.05.02.11.04.16.01-.01.04-.02.04-.04,0-.06-.01-.11-.09-.12Zm3.84,5.07c1.02,1.11,1.16,1.15,2.73.7-.14-.33-.25-.67-.42-.99-.15-.28-.34-.42-.67-.16-.46.36-1.05.34-1.65.46Z"/>
      <path class="cls-2" d="m111.34,127c-.46.08-.87-.16-1.29-.27-2.13-.58-4.29-1.08-6.46-1.47-1.82-.32-3.64-.62-5.47-.85-1.43-.18-2.87-.42-4.3-.55-1.2-.11-2.42-.19-3.62-.31-2.43-.24-4.86-.31-7.3-.38-3.64-.1-7.27-.05-10.9.15-1.09.06-2.19.05-3.28.14-1.3.1-2.59.27-3.89.4-1.12.11-2.23.3-3.35.43-1.54.18-3.07.4-4.59.67-2.28.41-4.55.87-6.8,1.46-.76.2-1.52.42-2.34.5,1.09-.59,2.16-1.2,3.26-1.75,2.25-1.13,4.59-2.05,7.03-2.65,2.18-.54,4.38-1,6.62-1.29,1.98-.26,3.97-.43,5.96-.63,3.92-.38,7.85-.43,11.78-.32,1.72.05,3.45.04,5.17.22,2.65.28,5.3.48,7.94.93,1.96.34,3.91.73,5.84,1.2,2.51.62,4.94,1.51,7.22,2.76.81.45,1.64.87,2.45,1.33.12.07.27.1.31.27h.01Z"/>
      <g>
        <path class="cls-1" d="m.69,68.52c.11-.58.19-1.16.33-1.73.73-3.18,2.6-5.41,5.63-6.64.25-.1.38-.24.47-.48.5-1.32,2.61-2.15,3.89-1.55,1.17.55,1.38,2.16.4,3.08-.88.84-2.44,1.12-3.55.6-.28-.13-.47,0-.67.09-2.74,1.3-4.18,3.48-4.39,6.48-.18,2.64.43,5.17,1.05,7.71,1.01,4.12,2.15,8.21,3.26,12.3.05.2.08.4.31.48.78.27,1.06.92,1.24,1.64.42,1.61.79,3.22,1.35,4.79.48,1.33,1.08,2.58,2.02,3.66,2.34,2.69,5.66,2.66,7.93-.08.6-.72,1.04-1.52,1.36-2.39.59-1.6.88-3.28,1.21-4.94.11-.56.22-1.12.33-1.68.11-.57.37-1.05.92-1.3.26-.12.32-.33.37-.57.87-4.32,1.8-8.63,2.59-12.97.34-1.85.73-3.7.8-5.59.06-1.65-.17-3.24-.9-4.74-.8-1.65-2.13-2.65-3.83-3.22-.18-.06-.34-.05-.52.04-1.2.56-2.93.21-3.83-.76-.79-.86-.56-2.14.48-2.66,1.36-.68,3.29-.11,4.02,1.21.13.23.29.36.53.44,4.03,1.36,5.74,4.4,6.01,8.43.17,2.48-.38,4.89-.82,7.3-.79,4.28-1.64,8.55-2.61,12.8-.05.23-.12.44.11.65.47.43.57,1.01.44,1.59-.63,2.65-1.08,5.36-2.15,7.89-1.09,2.57-2.77,4.57-5.51,5.5-.41.14-.25.36-.16.59,1.73,4.64,4.51,8.52,8.39,11.62,3.46,2.77,7.39,4.42,11.8,4.95,3.29.4,6.48-.04,9.6-1.13.05-.02.08-.06.17-.14-.91-.61-1.79-1.21-2.61-1.89-3.69-3.03-6.58-6.62-8-11.25-.8-2.6-1.02-5.25-.51-7.94.17-.89.5-1.72,1.1-2.64.5,5.77,2.36,10.86,5.83,15.31,3.47,4.46,7.89,7.56,13.43,9.33-1.23.39-2.32.72-3.4,1.07-2.57.82-5.07,1.85-7.73,2.33-8.51,1.51-16.09-.48-22.63-6.17-4.06-3.53-6.96-7.85-8.69-12.95-.1-.31-.14-.64-.63-.71-3.57-.52-5.99-2.61-7.58-5.74-1.18-2.33-1.86-4.85-2.52-7.37-.16-.6-.09-1.19.33-1.67.21-.23.13-.43.06-.66-1.27-4.26-2.38-8.57-3.45-12.88-.43-1.72-.84-3.44-.96-5.22,0-.1-.06-.21-.1-.31,0-.63,0-1.26,0-1.88Z"/>
        <path class="cls-4" d="m.69,68.52c.11-.58.19-1.16.33-1.73.73-3.18,2.6-5.41,5.63-6.64.25-.1.38-.24.47-.48.5-1.32,2.61-2.15,3.89-1.55,1.17.55,1.38,2.16.4,3.08-.88.84-2.44,1.12-3.55.6-.28-.13-.47,0-.67.09-2.74,1.3-4.18,3.48-4.39,6.48-.18,2.64.43,5.17,1.05,7.71,1.01,4.12,2.15,8.21,3.26,12.3.05.2.08.4.31.48.78.27,1.06.92,1.24,1.64.42,1.61.79,3.22,1.35,4.79.48,1.33,1.08,2.58,2.02,3.66,2.34,2.69,5.66,2.66,7.93-.08.6-.72,1.04-1.52,1.36-2.39.59-1.6.88-3.28,1.21-4.94.11-.56.22-1.12.33-1.68.11-.57.37-1.05.92-1.3.26-.12.32-.33.37-.57.87-4.32,1.8-8.63,2.59-12.97.34-1.85.73-3.7.8-5.59.06-1.65-.17-3.24-.9-4.74-.8-1.65-2.13-2.65-3.83-3.22-.18-.06-.34-.05-.52.04-1.2.56-2.93.21-3.83-.76-.79-.86-.56-2.14.48-2.66,1.36-.68,3.29-.11,4.02,1.21.13.23.29.36.53.44,4.03,1.36,5.74,4.4,6.01,8.43.17,2.48-.38,4.89-.82,7.3-.79,4.28-1.64,8.55-2.61,12.8-.05.23-.12.44.11.65.47.43.57,1.01.44,1.59-.63,2.65-1.08,5.36-2.15,7.89-1.09,2.57-2.77,4.57-5.51,5.5-.41.14-.25.36-.16.59,1.73,4.64,4.51,8.52,8.39,11.62,3.46,2.77,7.39,4.42,11.8,4.95,3.29.4,6.48-.04,9.6-1.13.05-.02.08-.06.17-.14-.91-.61-1.79-1.21-2.61-1.89-3.69-3.03-6.58-6.62-8-11.25-.8-2.6-1.02-5.25-.51-7.94.17-.89.5-1.72,1.1-2.64.5,5.77,2.36,10.86,5.83,15.31,3.47,4.46,7.89,7.56,13.43,9.33-1.23.39-2.32.72-3.4,1.07-2.57.82-5.07,1.85-7.73,2.33-8.51,1.51-16.09-.48-22.63-6.17-4.06-3.53-6.96-7.85-8.69-12.95-.1-.31-.14-.64-.63-.71-3.57-.52-5.99-2.61-7.58-5.74-1.18-2.33-1.86-4.85-2.52-7.37-.16-.6-.09-1.19.33-1.67.21-.23.13-.43.06-.66-1.27-4.26-2.38-8.57-3.45-12.88-.43-1.72-.84-3.44-.96-5.22,0-.1-.06-.21-.1-.31,0-.63,0-1.26,0-1.88Z"/>
      </g>
      <g>
        <path class="cls-1" d="m82.52.22c.4.2.86.19,1.28.3,1.1.3,2.1.79,3.04,1.43,5.79,3.9,11.51,7.9,17.24,11.89,11.85,8.25,23.56,16.71,35.27,25.17,3.11,2.25,3.78,6.41,1.5,9.33-1.02,1.3-2.38,1.99-4,2.1-1.45.1-2.92.08-4.38.09-2.42.02-3.9,1.5-3.9,3.92-.01,6.67-.03,13.34-.03,20.01,0,4.58,0,9.17,0,13.75v.58s-.08.02-.13.03c-.51-1.19-1-2.4-1.54-3.58-.36-.79-.47-1.6-.47-2.46-.01-9.53-.05-19.07-.07-28.6,0-2.65,1.57-4.84,3.96-5.53.43-.12.87-.18,1.31-.19,1.53-.03,3.07-.06,4.6-.09,3.21-.07,5.1-3.51,3.46-6.29-.4-.68-.94-1.22-1.58-1.69-5.92-4.36-11.91-8.62-17.89-12.9-9.41-6.75-18.91-13.37-28.45-19.94-1.95-1.34-3.9-2.67-5.85-4-2.94-2-6.15-2.02-9.12-.03-5.87,3.95-11.62,8.07-17.41,12.13-6.09,4.28-12.16,8.58-18.19,12.94-5.39,3.9-10.79,7.78-16.12,11.76-1.32.98-2.39,2.12-2.69,3.84-.38,2.2,1.25,4.23,3.48,4.26,1.48.02,2.96.04,4.43,0,3.38-.1,5.69,2.52,5.69,5.68,0,4.45,0,8.91.02,13.36.02,7.3.03,14.6.05,21.9,0,.36-.02.7-.19,1.02-.23.46-.57.79-1.13.71-.54-.07-.85-.44-.96-.94-.07-.3-.06-.62-.06-.94-.03-11.64-.05-23.28-.08-34.92,0-1.96-1.05-3.33-2.82-3.73-.42-.09-.84-.08-1.27-.09-1.05,0-2.11-.04-3.16-.02-5.06.12-7.32-4.84-5.08-8.84.54-.97,1.28-1.76,2.16-2.42,4.39-3.29,8.85-6.48,13.29-9.71,5.09-3.7,10.19-7.4,15.34-11.02,7.77-5.46,15.49-10.97,23.32-16.35,1.43-.98,2.98-1.59,4.67-1.92h2.44Z"/>
        <path class="cls-4" d="m82.52.22c.4.2.86.19,1.28.3,1.1.3,2.1.79,3.04,1.43,5.79,3.9,11.51,7.9,17.24,11.89,11.85,8.25,23.56,16.71,35.27,25.17,3.11,2.25,3.78,6.41,1.5,9.33-1.02,1.3-2.38,1.99-4,2.1-1.45.1-2.92.08-4.38.09-2.42.02-3.9,1.5-3.9,3.92-.01,6.67-.03,13.34-.03,20.01,0,4.58,0,9.17,0,13.75v.58s-.08.02-.13.03c-.51-1.19-1-2.4-1.54-3.58-.36-.79-.47-1.6-.47-2.46-.01-9.53-.05-19.07-.07-28.6,0-2.65,1.57-4.84,3.96-5.53.43-.12.87-.18,1.31-.19,1.53-.03,3.07-.06,4.6-.09,3.21-.07,5.1-3.51,3.46-6.29-.4-.68-.94-1.22-1.58-1.69-5.92-4.36-11.91-8.62-17.89-12.9-9.41-6.75-18.91-13.37-28.45-19.94-1.95-1.34-3.9-2.67-5.85-4-2.94-2-6.15-2.02-9.12-.03-5.87,3.95-11.62,8.07-17.41,12.13-6.09,4.28-12.16,8.58-18.19,12.94-5.39,3.9-10.79,7.78-16.12,11.76-1.32.98-2.39,2.12-2.69,3.84-.38,2.2,1.25,4.23,3.48,4.26,1.48.02,2.96.04,4.43,0,3.38-.1,5.69,2.52,5.69,5.68,0,4.45,0,8.91.02,13.36.02,7.3.03,14.6.05,21.9,0,.36-.02.7-.19,1.02-.23.46-.57.79-1.13.71-.54-.07-.85-.44-.96-.94-.07-.3-.06-.62-.06-.94-.03-11.64-.05-23.28-.08-34.92,0-1.96-1.05-3.33-2.82-3.73-.42-.09-.84-.08-1.27-.09-1.05,0-2.11-.04-3.16-.02-5.06.12-7.32-4.84-5.08-8.84.54-.97,1.28-1.76,2.16-2.42,4.39-3.29,8.85-6.48,13.29-9.71,5.09-3.7,10.19-7.4,15.34-11.02,7.77-5.46,15.49-10.97,23.32-16.35,1.43-.98,2.98-1.59,4.67-1.92h2.44Z"/>
      </g>
      <g>
        <path class="cls-1" d="m57.32,118.28c-2.09-.69-3.91-1.76-5.58-3.1-5.16-4.15-8.12-9.51-8.81-16.11-.64-6.1.4-11.95,2.61-17.63,1.14-2.92,2.55-5.73,3.52-8.72,1.26-3.92,1.78-7.91,1.23-12.02-.03-.22-.04-.44-.06-.66,0-.03.02-.07.04-.17.53.28,1.05.54,1.57.81,1.01.55,2.04,1.04,3.15,1.36,2.27.67,4.11-.38,4.71-2.67.42-1.57.33-3.15,0-4.72-.68-3.2-1.96-6.14-3.91-8.77-.04-.06-.09-.12-.14-.17-.02-.02-.06-.03-.14-.07.46,1.16.94,2.27,1.36,3.4.92,2.46,1.67,4.97,1.75,7.62.02.78.02,1.55-.16,2.31-.33,1.4-1.46,2.12-2.88,1.82-1.04-.22-2-.66-2.93-1.16-1.98-1.06-3.81-2.33-5.45-3.87-.95-.89-1.08-1.4-.58-2.61.86-2.09,1.34-4.29,1.96-6.46,1.54-5.37,5.28-8.44,10.54-9.75,2.96-.74,5.94-.57,8.81.61,1.35.55,2.51,1.39,3.36,2.55,1.39,1.89,3.23,2.63,5.52,2.59,1.72-.03,3.43-.14,5.14-.3,1.19-.11,1.7.27,1.94,1.44.09.44.07.88.09,1.32.02.41-.21.59-.57.57-.38-.01-.61-.24-.63-.64,0-.09.04-.18.06-.27.04-.2.17-.45.01-.58-.19-.16-.35.12-.5.21-.53.3-1.03.16-1.55-.05.28.84,1.28,1.58,2.42,1.8.77.15.78.15.73.93-.2,3.03-1.16,5.7-3.68,7.62-.93.71-2,1.18-3.06,1.66-2.03.92-3.69,2.25-4.53,4.4-.72,1.85-.68,3.76-.3,5.67.19.98.45,1.95.84,2.86.46,1.1.23,2.04-.44,2.96-.9,1.25-2.01,2.31-3.11,3.38-2.61,2.54-5.28,5.01-7.56,7.87-4.12,5.16-6.7,10.97-7.42,17.55-.63,5.72.19,11.23,2.47,16.51.08.18.21.35.17.63Zm7.83-73.2c.73.35,1.31.56,1.94.6.95.06,1.9-.55,2.26-1.4.18-.43.08-.79-.22-1.11-.15-.16-.28-.28-.36.06-.24.99-1.02,1.35-1.89,1.57-.51.13-1.04.18-1.73.3Z"/>
        <path class="cls-4" d="m57.32,118.28c-2.09-.69-3.91-1.76-5.58-3.1-5.16-4.15-8.12-9.51-8.81-16.11-.64-6.1.4-11.95,2.61-17.63,1.14-2.92,2.55-5.73,3.52-8.72,1.26-3.92,1.78-7.91,1.23-12.02-.03-.22-.04-.44-.06-.66,0-.03.02-.07.04-.17.53.28,1.05.54,1.57.81,1.01.55,2.04,1.04,3.15,1.36,2.27.67,4.11-.38,4.71-2.67.42-1.57.33-3.15,0-4.72-.68-3.2-1.96-6.14-3.91-8.77-.04-.06-.09-.12-.14-.17-.02-.02-.06-.03-.14-.07.46,1.16.94,2.27,1.36,3.4.92,2.46,1.67,4.97,1.75,7.62.02.78.02,1.55-.16,2.31-.33,1.4-1.46,2.12-2.88,1.82-1.04-.22-2-.66-2.93-1.16-1.98-1.06-3.81-2.33-5.45-3.87-.95-.89-1.08-1.4-.58-2.61.86-2.09,1.34-4.29,1.96-6.46,1.54-5.37,5.28-8.44,10.54-9.75,2.96-.74,5.94-.57,8.81.61,1.35.55,2.51,1.39,3.36,2.55,1.39,1.89,3.23,2.63,5.52,2.59,1.72-.03,3.43-.14,5.14-.3,1.19-.11,1.7.27,1.94,1.44.09.44.07.88.09,1.32.02.41-.21.59-.57.57-.38-.01-.61-.24-.63-.64,0-.09.04-.18.06-.27.04-.2.17-.45.01-.58-.19-.16-.35.12-.5.21-.53.3-1.03.16-1.55-.05.28.84,1.28,1.58,2.42,1.8.77.15.78.15.73.93-.2,3.03-1.16,5.7-3.68,7.62-.93.71-2,1.18-3.06,1.66-2.03.92-3.69,2.25-4.53,4.4-.72,1.85-.68,3.76-.3,5.67.19.98.45,1.95.84,2.86.46,1.1.23,2.04-.44,2.96-.9,1.25-2.01,2.31-3.11,3.38-2.61,2.54-5.28,5.01-7.56,7.87-4.12,5.16-6.7,10.97-7.42,17.55-.63,5.72.19,11.23,2.47,16.51.08.18.21.35.17.63Zm7.83-73.2c.73.35,1.31.56,1.94.6.95.06,1.9-.55,2.26-1.4.18-.43.08-.79-.22-1.11-.15-.16-.28-.28-.36.06-.24.99-1.02,1.35-1.89,1.57-.51.13-1.04.18-1.73.3Z"/>
      </g>
      <g>
        <path class="cls-1" d="m87.59,59.19c.12-.37.15-.75.14-1.13-.02-.88.3-1.61.86-2.28.62-.75,1.33-1.39,2.17-1.87.16-.09.33-.31.54-.13.17.15.1.39.05.58-.22.93-.47,1.86-.68,2.79-.12.52-.18,1.06-.33,1.57-.15.49.06.64.48.77,1.36.45,2.62,1.1,3.69,2.08.86.78,1.52,1.69,1.89,2.82.48,1.47,1.57,2.47,2.75,3.39,1.14.9,1.22,1.26.6,2.58-.18.38-.26.81-.4,1.2-.76,2.05-2.21,3.24-4.39,3.57-3.94.59-6.35,3.31-6.59,7.32-.11,1.88-.05,3.77-.07,5.65-.04,3.47-.96,6.74-2.18,9.95-1.05,2.76-2.16,5.49-2.75,8.4-.43,2.15-.64,4.31-.53,6.5.05.92-.02.98-.94.98-.67,0-1.33-.02-2,0-.47.02-.61-.09-.48-.6.54-2.07,1.02-4.16,1.08-6.32.07-2.75-.3-5.42-1.7-7.85-1.75-3.05-5.19-4.03-8.32-2.43-1.62.83-2.88,2.04-3.93,3.58.32.03.44-.17.59-.29,1.49-1.18,3.12-2.02,5.03-2.28,2.36-.33,4.36.69,5.46,2.83,1.02,1.98,1.19,4.13,1.15,6.31-.05,2.85-.75,5.54-1.89,8.14-.27.62-.26.65.42.62,1.88-.09,3.76-.19,5.65,0,.48.05.95.16,1.39.34.97.4,1.38,1.17,1.47,2.16.03.34-.12.49-.49.48-1.09-.05-2.18-.07-3.27-.09-6.91-.16-13.77.27-20.58,1.5-.64.12-1.01-.03-1.39-.55-1.91-2.67-3-5.66-3.57-8.86-1.8-10.02.81-18.86,7.21-26.66,1.86-2.26,3.98-4.27,6.16-6.22,1.07-.96,2.1-1.97,3.07-3.04,1.89-2.09,2.88-4.61,3.63-7.26.76-2.69,2.04-5.1,4.06-7.08.22-.21.35-.47.5-.73.99-1.75,2-3.5,3.47-4.92.61-.59,1.24-1.16,1.96-1.62.2-.12.41-.32.66-.18.27.16.19.47.15.71-.19,1.15-.23,2.31-.22,3.48,0,.6.11,1.18.23,1.75.03.12.03.26.23.31Zm-.84,17.65c.06-.04.12-.08.17-.12,1.96-2,4.21-3.51,6.96-4.2.11-.03.29-.05.26-.22-.04-.19-.22-.17-.36-.15-.64.09-1.25.32-1.84.56-2.12.88-3.91,2.18-5.18,4.14Zm3.94-11.1c.59.82,1.35,1.24,2.32,1.12.88-.1,1.1-.5.75-1.29-.03-.07-.06-.13-.09-.2-.09-.25-.18-.35-.39-.08-.42.56-1.02.67-1.68.59-.3-.04-.61-.1-.91-.14Zm3.24,4.73c-1.42-.4-4.91.35-6.06,1.53,2.06-.62,4.04-1.15,6.06-1.53Zm-7.57-15.21c-1.36,1.72-2.37,3.6-2.53,5.84.81-1.96,1.49-3.97,2.53-5.84Zm7.32,16.22c-1.37-.18-4.68.89-5.34,1.72,1.81-.68,3.56-1.23,5.34-1.72Z"/>
        <path class="cls-4" d="m87.59,59.19c.12-.37.15-.75.14-1.13-.02-.88.3-1.61.86-2.28.62-.75,1.33-1.39,2.17-1.87.16-.09.33-.31.54-.13.17.15.1.39.05.58-.22.93-.47,1.86-.68,2.79-.12.52-.18,1.06-.33,1.57-.15.49.06.64.48.77,1.36.45,2.62,1.1,3.69,2.08.86.78,1.52,1.69,1.89,2.82.48,1.47,1.57,2.47,2.75,3.39,1.14.9,1.22,1.26.6,2.58-.18.38-.26.81-.4,1.2-.76,2.05-2.21,3.24-4.39,3.57-3.94.59-6.35,3.31-6.59,7.32-.11,1.88-.05,3.77-.07,5.65-.04,3.47-.96,6.74-2.18,9.95-1.05,2.76-2.16,5.49-2.75,8.4-.43,2.15-.64,4.31-.53,6.5.05.92-.02.98-.94.98-.67,0-1.33-.02-2,0-.47.02-.61-.09-.48-.6.54-2.07,1.02-4.16,1.08-6.32.07-2.75-.3-5.42-1.7-7.85-1.75-3.05-5.19-4.03-8.32-2.43-1.62.83-2.88,2.04-3.93,3.58.32.03.44-.17.59-.29,1.49-1.18,3.12-2.02,5.03-2.28,2.36-.33,4.36.69,5.46,2.83,1.02,1.98,1.19,4.13,1.15,6.31-.05,2.85-.75,5.54-1.89,8.14-.27.62-.26.65.42.62,1.88-.09,3.76-.19,5.65,0,.48.05.95.16,1.39.34.97.4,1.38,1.17,1.47,2.16.03.34-.12.49-.49.48-1.09-.05-2.18-.07-3.27-.09-6.91-.16-13.77.27-20.58,1.5-.64.12-1.01-.03-1.39-.55-1.91-2.67-3-5.66-3.57-8.86-1.8-10.02.81-18.86,7.21-26.66,1.86-2.26,3.98-4.27,6.16-6.22,1.07-.96,2.1-1.97,3.07-3.04,1.89-2.09,2.88-4.61,3.63-7.26.76-2.69,2.04-5.1,4.06-7.08.22-.21.35-.47.5-.73.99-1.75,2-3.5,3.47-4.92.61-.59,1.24-1.16,1.96-1.62.2-.12.41-.32.66-.18.27.16.19.47.15.71-.19,1.15-.23,2.31-.22,3.48,0,.6.11,1.18.23,1.75.03.12.03.26.23.31Zm-.84,17.65c.06-.04.12-.08.17-.12,1.96-2,4.21-3.51,6.96-4.2.11-.03.29-.05.26-.22-.04-.19-.22-.17-.36-.15-.64.09-1.25.32-1.84.56-2.12.88-3.91,2.18-5.18,4.14Zm3.94-11.1c.59.82,1.35,1.24,2.32,1.12.88-.1,1.1-.5.75-1.29-.03-.07-.06-.13-.09-.2-.09-.25-.18-.35-.39-.08-.42.56-1.02.67-1.68.59-.3-.04-.61-.1-.91-.14Zm3.24,4.73c-1.42-.4-4.91.35-6.06,1.53,2.06-.62,4.04-1.15,6.06-1.53Zm-7.57-15.21c-1.36,1.72-2.37,3.6-2.53,5.84.81-1.96,1.49-3.97,2.53-5.84Zm7.32,16.22c-1.37-.18-4.68.89-5.34,1.72,1.81-.68,3.56-1.23,5.34-1.72Z"/>
      </g>
      <g>
        <path class="cls-1" d="m103.45,121.43c1.36-.43,2.59-.77,3.79-1.19,4.16-1.45,7.61-3.97,10.54-7.22,3.11-3.46,5.25-7.44,6.15-12.03.99-5.08.78-10.09-1.39-14.86-1.93-4.23-4.99-7.27-9.65-8.33-2.91-.66-5.8-.5-8.53.87-.15.07-.3.13-.46.18-.73.21-1.46-.08-1.7-.67-.27-.65-.02-1.38.67-1.74.96-.51,1.99-.89,3.05-1.15,7.54-1.85,15.02,1.61,18.66,8.69,2.27,4.4,2.91,9.1,2.56,13.98-.23,3.25-.96,6.38-2.25,9.38-.68,1.58-1.52,3.08-2.47,4.51-.06.09-.17.15-.12.36.71-.57,1.4-1.1,2.06-1.67,4.03-3.48,7.42-7.5,10.14-12.09.17-.29.19-.45-.11-.68-4.21-3.26-4.74-8.34-3.2-12.09,1.81-4.39,6.52-7.23,11.23-6.79,5.59.53,9.55,4.83,9.67,10.53.12,5.33-3.93,10-9.29,10.73-1.6.22-3.18.14-4.71-.38-.64-.22-.87-.03-1.19.48-3.08,4.87-6.72,9.27-11.18,12.94-4.18,3.44-8.84,6.09-13.77,8.29-.96.43-1.92.85-2.88,1.28-.73.33-1.44.35-2.19.03-1.08-.47-2.19-.88-3.42-1.36Zm37.84-23.19c4.83,0,8.75-3.94,8.76-8.8,0-4.71-3.82-8.59-8.48-8.6-4.93,0-9.14,4.03-9.14,8.76,0,4.75,3.99,8.64,8.86,8.64Z"/>
        <path class="cls-4" d="m103.45,121.43c1.36-.43,2.59-.77,3.79-1.19,4.16-1.45,7.61-3.97,10.54-7.22,3.11-3.46,5.25-7.44,6.15-12.03.99-5.08.78-10.09-1.39-14.86-1.93-4.23-4.99-7.27-9.65-8.33-2.91-.66-5.8-.5-8.53.87-.15.07-.3.13-.46.18-.73.21-1.46-.08-1.7-.67-.27-.65-.02-1.38.67-1.74.96-.51,1.99-.89,3.05-1.15,7.54-1.85,15.02,1.61,18.66,8.69,2.27,4.4,2.91,9.1,2.56,13.98-.23,3.25-.96,6.38-2.25,9.38-.68,1.58-1.52,3.08-2.47,4.51-.06.09-.17.15-.12.36.71-.57,1.4-1.1,2.06-1.67,4.03-3.48,7.42-7.5,10.14-12.09.17-.29.19-.45-.11-.68-4.21-3.26-4.74-8.34-3.2-12.09,1.81-4.39,6.52-7.23,11.23-6.79,5.59.53,9.55,4.83,9.67,10.53.12,5.33-3.93,10-9.29,10.73-1.6.22-3.18.14-4.71-.38-.64-.22-.87-.03-1.19.48-3.08,4.87-6.72,9.27-11.18,12.94-4.18,3.44-8.84,6.09-13.77,8.29-.96.43-1.92.85-2.88,1.28-.73.33-1.44.35-2.19.03-1.08-.47-2.19-.88-3.42-1.36Zm37.84-23.19c4.83,0,8.75-3.94,8.76-8.8,0-4.71-3.82-8.59-8.48-8.6-4.93,0-9.14,4.03-9.14,8.76,0,4.75,3.99,8.64,8.86,8.64Z"/>
      </g>
      <g>
        <path class="cls-1" d="m81.32,14.11c1.18,0,2.37,0,3.55,0,.75,0,1,.26,1,1,0,2,.01,3.99,0,5.99,0,.45.11.6.58.6,1.88-.02,3.77,0,5.65,0,1.02,0,1.25.23,1.26,1.23,0,2.2,0,4.4,0,6.6,0,.91-.28,1.17-1.21,1.17-1.9,0-3.81.02-5.71,0-.43,0-.57.11-.57.55.02,1.98.01,3.95,0,5.93,0,.91-.25,1.17-1.14,1.17-2.33,0-4.66,0-6.98,0-.76,0-1.08-.31-1.08-1.07,0-2.01-.01-4.03,0-6.04,0-.41-.11-.54-.53-.53-1.92.02-3.84.01-5.76,0-.93,0-1.18-.25-1.18-1.18,0-2.22,0-4.43,0-6.65,0-.86.27-1.13,1.12-1.13,1.96,0,3.92-.01,5.88,0,.43,0,.53-.13.53-.53-.02-1.96-.02-3.92-.02-5.88,0-1.02.21-1.23,1.24-1.23,1.13,0,2.25,0,3.38,0Z"/>
        <path class="cls-4" d="m81.32,14.11c1.18,0,2.37,0,3.55,0,.75,0,1,.26,1,1,0,2,.01,3.99,0,5.99,0,.45.11.6.58.6,1.88-.02,3.77,0,5.65,0,1.02,0,1.25.23,1.26,1.23,0,2.2,0,4.4,0,6.6,0,.91-.28,1.17-1.21,1.17-1.9,0-3.81.02-5.71,0-.43,0-.57.11-.57.55.02,1.98.01,3.95,0,5.93,0,.91-.25,1.17-1.14,1.17-2.33,0-4.66,0-6.98,0-.76,0-1.08-.31-1.08-1.07,0-2.01-.01-4.03,0-6.04,0-.41-.11-.54-.53-.53-1.92.02-3.84.01-5.76,0-.93,0-1.18-.25-1.18-1.18,0-2.22,0-4.43,0-6.65,0-.86.27-1.13,1.12-1.13,1.96,0,3.92-.01,5.88,0,.43,0,.53-.13.53-.53-.02-1.96-.02-3.92-.02-5.88,0-1.02.21-1.23,1.24-1.23,1.13,0,2.25,0,3.38,0Z"/>
      </g>
      <g>
        <path class="cls-1" d="m81.35,3.97c1.4-.07,2.64.47,3.78,1.26,4.24,2.93,8.48,5.86,12.71,8.8,9.16,6.37,18.29,12.78,27.38,19.25,4.02,2.86,8.03,5.73,12.04,8.59.27.19.54.39.67.72.26.65-.13,1.16-.84,1.08-.31-.03-.55-.19-.8-.37-5.36-3.81-10.71-7.63-16.08-11.41-6.57-4.63-13.14-9.24-19.73-13.84-5.5-3.84-11.01-7.66-16.52-11.47-1.77-1.23-3.56-1.23-5.31,0-7.29,5.11-14.57,10.23-21.86,15.34-7.79,5.46-15.51,11.02-23.25,16.55-2.22,1.59-4.43,3.2-6.65,4.8-.27.19-.53.4-.88.45-.31.04-.6.01-.8-.26-.21-.28-.16-.59-.02-.89.12-.24.32-.4.53-.55,9.32-6.82,18.72-13.52,28.14-20.18,7.87-5.57,15.77-11.1,23.66-16.64,1.13-.79,2.38-1.25,3.82-1.22Z"/>
        <path class="cls-4" d="m81.35,3.97c1.4-.07,2.64.47,3.78,1.26,4.24,2.93,8.48,5.86,12.71,8.8,9.16,6.37,18.29,12.78,27.38,19.25,4.02,2.86,8.03,5.73,12.04,8.59.27.19.54.39.67.72.26.65-.13,1.16-.84,1.08-.31-.03-.55-.19-.8-.37-5.36-3.81-10.71-7.63-16.08-11.41-6.57-4.63-13.14-9.24-19.73-13.84-5.5-3.84-11.01-7.66-16.52-11.47-1.77-1.23-3.56-1.23-5.31,0-7.29,5.11-14.57,10.23-21.86,15.34-7.79,5.46-15.51,11.02-23.25,16.55-2.22,1.59-4.43,3.2-6.65,4.8-.27.19-.53.4-.88.45-.31.04-.6.01-.8-.26-.21-.28-.16-.59-.02-.89.12-.24.32-.4.53-.55,9.32-6.82,18.72-13.52,28.14-20.18,7.87-5.57,15.77-11.1,23.66-16.64,1.13-.79,2.38-1.25,3.82-1.22Z"/>
      </g>
      <g>
        <path class="cls-1" d="m147.86,89.58c.02,3.59-2.89,6.51-6.49,6.54-3.83.02-6.73-2.76-6.76-6.48-.03-3.58,3.04-6.6,6.72-6.61,3.74-.01,6.51,2.76,6.53,6.55Zm-2.01-.02c.02-2.57-1.92-4.52-4.5-4.54-2.56-.03-4.75,2.06-4.76,4.56-.02,2.53,2.05,4.56,4.64,4.57,2.56.01,4.61-2.02,4.62-4.59Z"/>
        <path class="cls-4" d="m147.86,89.58c.02,3.59-2.89,6.51-6.49,6.54-3.83.02-6.73-2.76-6.76-6.48-.03-3.58,3.04-6.6,6.72-6.61,3.74-.01,6.51,2.76,6.53,6.55Zm-2.01-.02c.02-2.57-1.92-4.52-4.5-4.54-2.56-.03-4.75,2.06-4.76,4.56-.02,2.53,2.05,4.56,4.64,4.57,2.56.01,4.61-2.02,4.62-4.59Z"/>
      </g>
      <path class="cls-2" d="m113.16,75.27c-.22-.21-.57.32-.74-.13.13-.47.62-.76.64-1.32-.45.06-.91-.39-1.32.08-.31.35-.8.57-.87,1.11-.16,0-.31.02-.44.12-.33.25-.28-.06-.32-.23.29-.42.57-.84.89-1.24.19-.25.16-.35-.13-.48-2.27-.95-3.77-2.61-4.45-4.98-.25-.87-.2-1.77-.19-2.66,0-.59.07-1.17-.12-1.75-.27-.87-.87-1.39-1.72-1.68-.13-.04-.29-.04-.36-.19.02-.04.02-.1.04-.1.9-.25,1.53-.78,2.17-1.49,1.47-1.63,4.15-.96,5.07,1.16.14.33.3.65.4.99.28.92.9,1.54,1.65,2.12,1.9,1.46,3.16,3.45,4.33,5.5.36.63.74,1.24,1.1,1.86.09.16.3.28.02.5-.21.17.07.25.16.34,1.1,1.06,2.21,2.11,3.32,3.17.1.1.2.21.3.31.07.07.17.16.11.26-.08.12-.2.06-.32.03-1.13-.31-2.19-.78-3.19-1.4-.83-.52-1.68-1-2.52-1.51-.09-.05-.17-.12-.26-.16-.98-.4-2.99.7-3.23,1.75Zm3.95-2.81c-3.24-.81-6.09-2.02-7.26-5.47-.21.74.51,2.26,1.46,3.2,1.59,1.58,4.53,2.56,5.81,2.27Zm-9.46-11.26c-.14.01-.36.03-.37.35,0,.31.23.37.44.39.26.02.42-.15.43-.41,0-.25-.17-.34-.5-.32Z"/>
    </g>
  </g>
</svg>