<?xml version="1.0" encoding="UTF-8"?>
<svg id="Layer_2" data-name="Layer 2" xmlns="http://www.w3.org/2000/svg" viewBox="0 0 273.22 273.03">
  <defs>
    <style>
      .cls-1 {
        fill: #fff;
      }

      .cls-2 {
        fill: #3e8f43;
      }

      .cls-3 {
        fill: none;
        stroke: #3e8f43;
        stroke-miterlimit: 10;
        stroke-width: 2px;
      }
    </style>
  </defs>
  <g id="Layer_2-2" data-name="Layer 2">
    <g>
      <rect class="cls-2" x="4.04" y="4.04" width="265.13" height="264.95"/>
      <path class="cls-1" d="m59.33,110.01c-3.51-5.27-4.68-11.13-4.68-17.27,0-9.66,3.22-18.15,10.25-25.17,2.05-2.34,4.39-3.81,7.61-4.68,5.56-2.05,11.41,0,15.22,5.56,3.22,4.1,4.39,9.07,4.98,14.05.88,7.9-1.47,15.22-4.98,22.25-2.34,3.81-4.98,7.32-9.07,9.66-7.03,4.39-14.93,2.64-19.32-4.39Z"/>
      <path class="cls-1" d="m114.07,82.2c-3.22-9.66-2.34-19.32,1.17-28.98,2.63-7.32,6.73-13.76,12.88-19.03,2.34-2.05,4.97-3.81,7.9-4.97,9.66-3.81,19.02-.29,23.42,9.07,3.8,7.9,4.68,16.1,2.63,24.88-1.17,5.27-2.93,10.25-5.86,15.52-4.1,6.44-9.07,12.29-16.39,15.81-6.15,2.63-12,2.63-17.86-1.17-4.1-2.64-6.44-6.73-7.9-11.12Z"/>
      <path class="cls-1" d="m172.61,209.83c2.34,9.37.88,16.1-3.22,24.3-8.2,13.76-23.42,19.02-38.35,13.76-7.61-2.64-13.76-7.61-19.33-13.17-4.1-4.4-7.9-8.78-11.41-13.76-4.68-6.15-10.83-9.37-18.45-10.54-7.32-1.17-14.93-1.47-22.24-3.81-8.78-2.63-16.68-7.03-22.54-14.34-7.9-10.24-9.07-23.71-2.63-34.54,4.97-7.9,11.41-13.46,20.49-15.52,7.61-1.75,14.64-4.1,21.66-7.61,6.44-3.22,12-7.9,17.57-12.29,14.05-10.83,29.27-13.76,45.66-7.32,16.1,6.15,25.76,18.15,28.98,35.42,1.46,6.15.59,12-.29,18.15-1.46,10.24-1.46,20.49,1.17,30.44.88,3.51,1.76,7.32,2.93,10.83Z"/>
      <path class="cls-1" d="m188.42,128.45c-9.66-.29-16.1-6.15-17.57-15.52-1.17-7.61.59-14.34,3.81-21.08.29-.88.88-1.46,1.17-2.34,6.73-10.54,15.22-19.03,27.81-22.54,3.8-.88,7.9-1.46,11.71-.29,6.73,1.47,10.83,5.86,12.59,12.59,2.05,6.15,1.17,12.29-1.17,18.15-4.39,12.3-12.59,21.37-24,27.23-4.39,2.34-9.08,3.8-14.34,3.8Z"/>
      <path class="cls-1" d="m231.45,166.21c-4.98,11.12-13.17,18.44-24.59,21.96-2.92.88-5.85,1.17-8.78.88-7.9-.88-12.88-6.44-12.88-14.34,0-4.68,1.17-8.78,3.52-12.88,6.15-9.37,13.76-16.68,25.46-18.44,3.81-.59,7.32-.59,10.83.88,4.39,2.05,7.03,5.56,7.9,10.24.59,4.1,0,7.9-1.47,11.71Z"/>
      <rect class="cls-3" x="1" y="1" width="271.22" height="271.03"/>
    </g>
  </g>
</svg>