<?xml version="1.0" encoding="UTF-8"?>
<svg id="Layer_2" data-name="Layer 2" xmlns="http://www.w3.org/2000/svg" viewBox="0 0 144.53 144">
  <defs>
    <style>
      .cls-1, .cls-2 {
        fill: #fff;
      }

      .cls-3 {
        fill: #192f5a;
      }

      .cls-2, .cls-4 {
        stroke: #1a305a;
        stroke-miterlimit: 10;
        stroke-width: .45px;
      }

      .cls-4 {
        fill: none;
      }
    </style>
  </defs>
  <g id="Layer_1-2" data-name="Layer 1">
    <rect class="cls-3" x=".53" width="144" height="144"/>
    <g>
      <path class="cls-2" d="m95.55,98.53c-.03-1.98-.64-3.81-1.47-5.58-.35-.74-.72-1.47-1.23-2.11-.1-.12-.18-.26-.18-.42-.06-1.2-.16-2.41.1-3.6.04-.21.12-.41.21-.6.21-.44.51-.54.93-.25.81.57,1.43,1.32,1.96,2.14,1.05,1.64,1.72,3.42,1.93,5.37.14,1.28.36,2.56.33,3.85-.01.56.43.42.69.47,1.51.26,2.86.83,4.03,1.84.86.74,1.53,1.62,1.92,2.67.37,1,.91,1.87,1.55,2.71.69.9.57,1.63-.28,2.41-.21.19-.15.56-.36.81-1.03,1.25-2.33,1.97-3.95,2.07-.56.03-1.13.03-1.68-.11-.18-.04-.37-.07-.56.02.12.16.3.21.46.23.8.08.92.64,1,1.29.29,2.5-.33,4.73-1.9,6.68-.35.44-.59.89-.64,1.46-.06.7-.12,1.4.03,2.08.18.84.77,1.37,1.58,1.77-.54.29-1.06.3-1.55.41-.57.12-1.15.19-1.72.27-.24.03-.46,0-.57-.28-.41-1.07-1.1-2.01-1.34-3.2-.42.23-.74.55-1.28.7,1.12-2.82.8-5.25-1.89-6.91-1.58-.97-3.25-.69-4.87,0,2.24-.39,4.35-.22,5.61,1.94,1.19,2.04.75,4.06-.7,5.97,1.33,0,2.58.02,3.3,1.44-1.07-.19-2.05-.39-3.04-.54-2.76-.41-5.51-.89-8.31-.98-.49-.01-.45-.29-.45-.62-.04-1.39-.5-2.57-1.7-3.37-.13-.09-.27-.19-.41-.21-.84-.12-.91-.68-.96-1.4-.4-6.37,4.04-11.38,9.45-12.42.51-.1,1.01-.23,1.53-.29.32-.04.36-.18.38-.45.13-1.25.49-2.45,1.17-3.5.3-.47.1-.68-.2-.94-1.6-1.39-2.98-2.94-3.93-4.86-.86-1.75-1.37-3.57-1.24-5.53.06-.95.35-1.14,1.21-.71,1.75.88,2.92,2.34,3.95,3.94,1.09,1.69,1.76,3.58,2.52,5.43.14.34.29.67.59.9.01.05.02.1.04.15.01-.01.04-.02.04-.03,0-.06,0-.11-.08-.12Zm3.65,4.82c.97,1.06,1.1,1.09,2.6.67-.13-.32-.24-.64-.4-.94-.14-.27-.33-.4-.64-.16-.44.35-1,.32-1.57.43Z"/>
      <path class="cls-2" d="m105.47,130.46c-.44.07-.83-.15-1.23-.26-2.03-.55-4.08-1.03-6.14-1.39-1.73-.31-3.46-.59-5.21-.81-1.36-.18-2.73-.4-4.09-.52-1.14-.1-2.3-.18-3.44-.29-2.31-.23-4.63-.29-6.94-.36-3.46-.1-6.92-.05-10.37.14-1.04.06-2.08.05-3.12.13-1.24.1-2.47.26-3.7.38-1.07.11-2.12.29-3.19.41-1.46.17-2.92.38-4.36.63-2.17.39-4.33.82-6.47,1.38-.73.19-1.45.4-2.23.47,1.03-.56,2.05-1.14,3.1-1.66,2.14-1.07,4.36-1.95,6.69-2.52,2.07-.52,4.17-.95,6.29-1.23,1.89-.24,3.78-.41,5.67-.59,3.73-.37,7.47-.41,11.21-.3,1.64.05,3.29.04,4.92.21,2.52.27,5.05.46,7.55.89,1.87.32,3.72.69,5.55,1.15,2.39.59,4.7,1.43,6.87,2.63.77.43,1.56.83,2.33,1.27.11.06.26.1.3.25h.01Z"/>
      <g>
        <path class="cls-1" d="m.23,74.84c.1-.55.19-1.1.31-1.65.69-3.03,2.47-5.14,5.35-6.31.24-.1.36-.23.45-.46.48-1.25,2.48-2.05,3.7-1.48,1.11.52,1.31,2.05.38,2.93-.84.8-2.32,1.06-3.37.57-.26-.12-.45,0-.64.09-2.6,1.23-3.97,3.31-4.17,6.17-.17,2.51.41,4.92,1,7.33.96,3.92,2.04,7.81,3.1,11.7.05.19.08.38.3.45.74.26,1.01.88,1.18,1.56.4,1.53.75,3.07,1.29,4.56.45,1.26,1.03,2.46,1.93,3.48,2.23,2.55,5.38,2.53,7.54-.07.57-.68.99-1.45,1.3-2.28.56-1.52.83-3.12,1.15-4.7.11-.53.21-1.07.31-1.6.11-.54.36-1,.88-1.24.25-.11.31-.31.35-.54.83-4.11,1.71-8.21,2.46-12.34.32-1.76.69-3.52.76-5.31.06-1.57-.16-3.08-.86-4.51-.76-1.56-2.03-2.52-3.65-3.07-.18-.06-.32-.05-.5.03-1.14.54-2.79.2-3.64-.73-.75-.82-.53-2.03.46-2.53,1.29-.65,3.13-.1,3.82,1.15.12.22.28.34.5.42,3.84,1.29,5.46,4.18,5.72,8.02.16,2.36-.36,4.65-.78,6.95-.75,4.07-1.56,8.14-2.48,12.18-.05.22-.11.42.11.62.44.41.54.96.41,1.51-.6,2.53-1.03,5.1-2.04,7.51-1.03,2.44-2.64,4.35-5.24,5.23-.39.13-.24.35-.16.56,1.65,4.42,4.29,8.11,7.98,11.05,3.3,2.63,7.03,4.2,11.22,4.71,3.13.38,6.17-.04,9.13-1.08.04-.02.08-.06.16-.13-.86-.58-1.7-1.15-2.49-1.79-3.51-2.88-6.26-6.3-7.61-10.7-.76-2.47-.97-4.99-.49-7.55.16-.85.47-1.64,1.04-2.52.47,5.49,2.24,10.33,5.55,14.56,3.3,4.24,7.51,7.19,12.78,8.88-1.17.37-2.21.69-3.24,1.01-2.44.78-4.82,1.76-7.36,2.21-8.1,1.44-15.31-.46-21.53-5.87-3.86-3.36-6.62-7.47-8.27-12.32-.1-.29-.13-.61-.59-.68-3.4-.49-5.69-2.48-7.21-5.46-1.13-2.22-1.77-4.61-2.39-7.01-.15-.57-.09-1.13.32-1.59.2-.22.12-.41.06-.63-1.2-4.05-2.26-8.15-3.28-12.25-.41-1.63-.8-3.27-.91-4.97,0-.1-.06-.2-.09-.29,0-.6,0-1.2,0-1.79Z"/>
        <path class="cls-4" d="m.23,74.84c.1-.55.19-1.1.31-1.65.69-3.03,2.47-5.14,5.35-6.31.24-.1.36-.23.45-.46.48-1.25,2.48-2.05,3.7-1.48,1.11.52,1.31,2.05.38,2.93-.84.8-2.32,1.06-3.37.57-.26-.12-.45,0-.64.09-2.6,1.23-3.97,3.31-4.17,6.17-.17,2.51.41,4.92,1,7.33.96,3.92,2.04,7.81,3.1,11.7.05.19.08.38.3.45.74.26,1.01.88,1.18,1.56.4,1.53.75,3.07,1.29,4.56.45,1.26,1.03,2.46,1.93,3.48,2.23,2.55,5.38,2.53,7.54-.07.57-.68.99-1.45,1.3-2.28.56-1.52.83-3.12,1.15-4.7.11-.53.21-1.07.31-1.6.11-.54.36-1,.88-1.24.25-.11.31-.31.35-.54.83-4.11,1.71-8.21,2.46-12.34.32-1.76.69-3.52.76-5.31.06-1.57-.16-3.08-.86-4.51-.76-1.56-2.03-2.52-3.65-3.07-.18-.06-.32-.05-.5.03-1.14.54-2.79.2-3.64-.73-.75-.82-.53-2.03.46-2.53,1.29-.65,3.13-.1,3.82,1.15.12.22.28.34.5.42,3.84,1.29,5.46,4.18,5.72,8.02.16,2.36-.36,4.65-.78,6.95-.75,4.07-1.56,8.14-2.48,12.18-.05.22-.11.42.11.62.44.41.54.96.41,1.51-.6,2.53-1.03,5.1-2.04,7.51-1.03,2.44-2.64,4.35-5.24,5.23-.39.13-.24.35-.16.56,1.65,4.42,4.29,8.11,7.98,11.05,3.3,2.63,7.03,4.2,11.22,4.71,3.13.38,6.17-.04,9.13-1.08.04-.02.08-.06.16-.13-.86-.58-1.7-1.15-2.49-1.79-3.51-2.88-6.26-6.3-7.61-10.7-.76-2.47-.97-4.99-.49-7.55.16-.85.47-1.64,1.04-2.52.47,5.49,2.24,10.33,5.55,14.56,3.3,4.24,7.51,7.19,12.78,8.88-1.17.37-2.21.69-3.24,1.01-2.44.78-4.82,1.76-7.36,2.21-8.1,1.44-15.31-.46-21.53-5.87-3.86-3.36-6.62-7.47-8.27-12.32-.1-.29-.13-.61-.59-.68-3.4-.49-5.69-2.48-7.21-5.46-1.13-2.22-1.77-4.61-2.39-7.01-.15-.57-.09-1.13.32-1.59.2-.22.12-.41.06-.63-1.2-4.05-2.26-8.15-3.28-12.25-.41-1.63-.8-3.27-.91-4.97,0-.1-.06-.2-.09-.29,0-.6,0-1.2,0-1.79Z"/>
      </g>
      <g>
        <path class="cls-1" d="m78.06,9.88c.38.19.82.18,1.22.29,1.05.28,2,.75,2.89,1.36,5.51,3.71,10.95,7.52,16.4,11.31,11.27,7.85,22.41,15.9,33.55,23.94,2.96,2.14,3.6,6.1,1.43,8.87-.97,1.24-2.27,1.89-3.8,2-1.38.1-2.78.07-4.16.09-2.3.02-3.71,1.43-3.71,3.73-.01,6.34-.03,12.69-.03,19.03,0,4.36,0,8.72,0,13.08v.55s-.08.02-.12.02c-.49-1.14-.95-2.28-1.46-3.41-.35-.75-.45-1.52-.45-2.34-.01-9.07-.05-18.14-.07-27.21,0-2.52,1.49-4.6,3.77-5.26.41-.12.82-.17,1.25-.18,1.46-.03,2.92-.06,4.38-.09,3.05-.06,4.86-3.34,3.3-5.98-.38-.65-.9-1.16-1.5-1.61-5.63-4.15-11.33-8.19-17.01-12.27-8.95-6.42-17.98-12.72-27.06-18.96-1.85-1.27-3.71-2.54-5.57-3.81-2.8-1.9-5.85-1.92-8.67-.03-5.59,3.75-11.06,7.67-16.56,11.54-5.79,4.07-11.57,8.16-17.3,12.31-5.12,3.71-10.26,7.4-15.33,11.18-1.25.93-2.28,2.02-2.56,3.66-.36,2.09,1.19,4.03,3.31,4.05,1.41.02,2.81.04,4.22,0,3.21-.1,5.41,2.4,5.41,5.41,0,4.24,0,8.47.02,12.71.01,6.94.03,13.89.05,20.83,0,.34-.02.67-.18.97-.22.44-.54.75-1.08.68-.51-.07-.81-.41-.92-.9-.06-.29-.05-.59-.05-.89-.03-11.07-.05-22.15-.07-33.22,0-1.86-1-3.17-2.68-3.55-.4-.09-.8-.08-1.21-.08-1,0-2-.04-3.01-.01-4.81.11-6.97-4.6-4.83-8.41.51-.92,1.22-1.68,2.05-2.31,4.17-3.13,8.42-6.17,12.64-9.23,4.85-3.52,9.7-7.04,14.6-10.49,7.39-5.19,14.74-10.44,22.18-15.55,1.36-.93,2.84-1.52,4.44-1.83h2.32Z"/>
        <path class="cls-4" d="m78.06,9.88c.38.19.82.18,1.22.29,1.05.28,2,.75,2.89,1.36,5.51,3.71,10.95,7.52,16.4,11.31,11.27,7.85,22.41,15.9,33.55,23.94,2.96,2.14,3.6,6.1,1.43,8.87-.97,1.24-2.27,1.89-3.8,2-1.38.1-2.78.07-4.16.09-2.3.02-3.71,1.43-3.71,3.73-.01,6.34-.03,12.69-.03,19.03,0,4.36,0,8.72,0,13.08v.55s-.08.02-.12.02c-.49-1.14-.95-2.28-1.46-3.41-.35-.75-.45-1.52-.45-2.34-.01-9.07-.05-18.14-.07-27.21,0-2.52,1.49-4.6,3.77-5.26.41-.12.82-.17,1.25-.18,1.46-.03,2.92-.06,4.38-.09,3.05-.06,4.86-3.34,3.3-5.98-.38-.65-.9-1.16-1.5-1.61-5.63-4.15-11.33-8.19-17.01-12.27-8.95-6.42-17.98-12.72-27.06-18.96-1.85-1.27-3.71-2.54-5.57-3.81-2.8-1.9-5.85-1.92-8.67-.03-5.59,3.75-11.06,7.67-16.56,11.54-5.79,4.07-11.57,8.16-17.3,12.31-5.12,3.71-10.26,7.4-15.33,11.18-1.25.93-2.28,2.02-2.56,3.66-.36,2.09,1.19,4.03,3.31,4.05,1.41.02,2.81.04,4.22,0,3.21-.1,5.41,2.4,5.41,5.41,0,4.24,0,8.47.02,12.71.01,6.94.03,13.89.05,20.83,0,.34-.02.67-.18.97-.22.44-.54.75-1.08.68-.51-.07-.81-.41-.92-.9-.06-.29-.05-.59-.05-.89-.03-11.07-.05-22.15-.07-33.22,0-1.86-1-3.17-2.68-3.55-.4-.09-.8-.08-1.21-.08-1,0-2-.04-3.01-.01-4.81.11-6.97-4.6-4.83-8.41.51-.92,1.22-1.68,2.05-2.31,4.17-3.13,8.42-6.17,12.64-9.23,4.85-3.52,9.7-7.04,14.6-10.49,7.39-5.19,14.74-10.44,22.18-15.55,1.36-.93,2.84-1.52,4.44-1.83h2.32Z"/>
      </g>
      <g>
        <path class="cls-1" d="m54.09,122.17c-1.98-.66-3.72-1.68-5.31-2.95-4.91-3.95-7.72-9.04-8.38-15.32-.61-5.8.38-11.36,2.48-16.77,1.08-2.78,2.43-5.45,3.34-8.3,1.2-3.73,1.69-7.53,1.17-11.43-.03-.21-.04-.42-.05-.63,0-.03.01-.07.04-.16.51.26,1,.51,1.49.77.96.52,1.94.99,2.99,1.3,2.16.63,3.91-.36,4.48-2.54.4-1.5.31-3,0-4.49-.64-3.05-1.87-5.84-3.72-8.35-.04-.06-.08-.11-.13-.16-.02-.02-.06-.03-.13-.06.44,1.1.89,2.16,1.29,3.23.87,2.34,1.59,4.73,1.67,7.25.02.74.02,1.48-.16,2.2-.31,1.34-1.39,2.01-2.74,1.73-.99-.21-1.9-.63-2.78-1.1-1.88-1.01-3.63-2.21-5.19-3.68-.9-.85-1.02-1.33-.55-2.48.82-1.99,1.27-4.08,1.86-6.14,1.47-5.11,5.03-8.03,10.03-9.27,2.82-.7,5.65-.54,8.38.58,1.28.52,2.38,1.32,3.2,2.43,1.32,1.8,3.08,2.5,5.25,2.46,1.64-.03,3.27-.13,4.89-.28,1.13-.11,1.61.25,1.85,1.37.09.42.07.84.09,1.26.02.39-.2.56-.54.55-.37-.01-.58-.23-.6-.6,0-.08.04-.17.06-.25.04-.19.17-.42.01-.55-.18-.15-.33.11-.48.2-.5.28-.98.15-1.48-.05.26.8,1.22,1.5,2.3,1.72.73.14.74.14.69.89-.19,2.89-1.1,5.42-3.5,7.25-.89.68-1.9,1.12-2.91,1.58-1.93.88-3.51,2.14-4.31,4.18-.69,1.76-.64,3.57-.29,5.4.18.93.43,1.85.8,2.72.44,1.04.22,1.94-.42,2.81-.86,1.19-1.92,2.2-2.96,3.21-2.48,2.41-5.02,4.77-7.19,7.48-3.92,4.9-6.37,10.43-7.06,16.7-.6,5.44.18,10.68,2.35,15.71.07.17.2.33.16.6Zm7.45-69.63c.69.34,1.25.53,1.85.57.9.06,1.81-.53,2.15-1.33.17-.41.08-.75-.21-1.06-.14-.15-.27-.27-.35.05-.23.94-.97,1.29-1.8,1.49-.49.12-.99.17-1.64.28Z"/>
        <path class="cls-4" d="m54.09,122.17c-1.98-.66-3.72-1.68-5.31-2.95-4.91-3.95-7.72-9.04-8.38-15.32-.61-5.8.38-11.36,2.48-16.77,1.08-2.78,2.43-5.45,3.34-8.3,1.2-3.73,1.69-7.53,1.17-11.43-.03-.21-.04-.42-.05-.63,0-.03.01-.07.04-.16.51.26,1,.51,1.49.77.96.52,1.94.99,2.99,1.3,2.16.63,3.91-.36,4.48-2.54.4-1.5.31-3,0-4.49-.64-3.05-1.87-5.84-3.72-8.35-.04-.06-.08-.11-.13-.16-.02-.02-.06-.03-.13-.06.44,1.1.89,2.16,1.29,3.23.87,2.34,1.59,4.73,1.67,7.25.02.74.02,1.48-.16,2.2-.31,1.34-1.39,2.01-2.74,1.73-.99-.21-1.9-.63-2.78-1.1-1.88-1.01-3.63-2.21-5.19-3.68-.9-.85-1.02-1.33-.55-2.48.82-1.99,1.27-4.08,1.86-6.14,1.47-5.11,5.03-8.03,10.03-9.27,2.82-.7,5.65-.54,8.38.58,1.28.52,2.38,1.32,3.2,2.43,1.32,1.8,3.08,2.5,5.25,2.46,1.64-.03,3.27-.13,4.89-.28,1.13-.11,1.61.25,1.85,1.37.09.42.07.84.09,1.26.02.39-.2.56-.54.55-.37-.01-.58-.23-.6-.6,0-.08.04-.17.06-.25.04-.19.17-.42.01-.55-.18-.15-.33.11-.48.2-.5.28-.98.15-1.48-.05.26.8,1.22,1.5,2.3,1.72.73.14.74.14.69.89-.19,2.89-1.1,5.42-3.5,7.25-.89.68-1.9,1.12-2.91,1.58-1.93.88-3.51,2.14-4.31,4.18-.69,1.76-.64,3.57-.29,5.4.18.93.43,1.85.8,2.72.44,1.04.22,1.94-.42,2.81-.86,1.19-1.92,2.2-2.96,3.21-2.48,2.41-5.02,4.77-7.19,7.48-3.92,4.9-6.37,10.43-7.06,16.7-.6,5.44.18,10.68,2.35,15.71.07.17.2.33.16.6Zm7.45-69.63c.69.34,1.25.53,1.85.57.9.06,1.81-.53,2.15-1.33.17-.41.08-.75-.21-1.06-.14-.15-.27-.27-.35.05-.23.94-.97,1.29-1.8,1.49-.49.12-.99.17-1.64.28Z"/>
      </g>
      <g>
        <path class="cls-1" d="m82.88,65.97c.12-.35.14-.72.13-1.07-.02-.84.29-1.53.82-2.16.59-.71,1.26-1.32,2.06-1.78.15-.09.32-.3.51-.13.16.14.09.37.05.55-.21.89-.44,1.77-.65,2.66-.12.5-.17,1.01-.31,1.49-.14.47.06.6.46.74,1.3.43,2.49,1.05,3.51,1.98.82.74,1.44,1.61,1.79,2.68.46,1.4,1.5,2.35,2.61,3.23,1.08.85,1.16,1.2.57,2.45-.17.36-.24.77-.38,1.15-.72,1.95-2.1,3.09-4.18,3.4-3.75.56-6.04,3.15-6.27,6.97-.11,1.79-.05,3.58-.07,5.38-.04,3.3-.91,6.41-2.08,9.46-1,2.62-2.06,5.23-2.61,7.99-.41,2.04-.61,4.1-.5,6.18.04.88-.02.93-.9.93-.63,0-1.27-.02-1.9,0-.44.02-.58-.08-.46-.57.51-1.97.97-3.96,1.03-6.01.07-2.62-.29-5.15-1.62-7.47-1.67-2.9-4.94-3.84-7.92-2.31-1.54.79-2.74,1.94-3.74,3.41.3.03.42-.17.56-.28,1.42-1.12,2.97-1.92,4.79-2.17,2.24-.31,4.14.65,5.19,2.69.97,1.89,1.13,3.93,1.1,6-.04,2.71-.72,5.27-1.8,7.74-.26.59-.25.62.4.59,1.79-.08,3.58-.18,5.37,0,.46.04.9.15,1.33.33.92.38,1.31,1.12,1.4,2.06.03.33-.11.47-.46.45-1.04-.04-2.07-.07-3.11-.09-6.57-.15-13.1.25-19.57,1.43-.6.11-.96-.02-1.32-.53-1.82-2.54-2.86-5.39-3.4-8.42-1.71-9.53.77-17.94,6.86-25.36,1.77-2.15,3.79-4.06,5.86-5.91,1.02-.92,2-1.87,2.92-2.89,1.79-1.98,2.74-4.38,3.45-6.91.73-2.56,1.94-4.85,3.86-6.73.21-.2.33-.45.47-.69.94-1.67,1.9-3.33,3.3-4.68.58-.56,1.18-1.11,1.87-1.54.19-.12.39-.31.62-.17.26.15.18.45.14.68-.18,1.1-.22,2.2-.21,3.31,0,.57.1,1.12.21,1.67.02.12.03.25.21.29Zm-.8,16.79c.05-.04.11-.07.16-.12,1.86-1.9,4-3.34,6.62-4,.11-.03.28-.05.25-.21-.03-.18-.21-.16-.34-.14-.61.09-1.19.3-1.75.53-2.02.83-3.72,2.07-4.93,3.94Zm3.75-10.56c.56.78,1.28,1.18,2.21,1.07.84-.1,1.05-.48.71-1.23-.03-.06-.06-.13-.08-.19-.08-.24-.18-.33-.37-.07-.4.53-.97.64-1.59.56-.29-.04-.58-.09-.86-.14Zm3.08,4.5c-1.35-.38-4.67.33-5.77,1.46,1.96-.59,3.84-1.1,5.77-1.46Zm-7.2-14.47c-1.3,1.63-2.26,3.42-2.4,5.56.77-1.86,1.42-3.78,2.4-5.56Zm6.96,15.43c-1.31-.17-4.46.84-5.08,1.64,1.72-.65,3.39-1.17,5.08-1.64Z"/>
        <path class="cls-4" d="m82.88,65.97c.12-.35.14-.72.13-1.07-.02-.84.29-1.53.82-2.16.59-.71,1.26-1.32,2.06-1.78.15-.09.32-.3.51-.13.16.14.09.37.05.55-.21.89-.44,1.77-.65,2.66-.12.5-.17,1.01-.31,1.49-.14.47.06.6.46.74,1.3.43,2.49,1.05,3.51,1.98.82.74,1.44,1.61,1.79,2.68.46,1.4,1.5,2.35,2.61,3.23,1.08.85,1.16,1.2.57,2.45-.17.36-.24.77-.38,1.15-.72,1.95-2.1,3.09-4.18,3.4-3.75.56-6.04,3.15-6.27,6.97-.11,1.79-.05,3.58-.07,5.38-.04,3.3-.91,6.41-2.08,9.46-1,2.62-2.06,5.23-2.61,7.99-.41,2.04-.61,4.1-.5,6.18.04.88-.02.93-.9.93-.63,0-1.27-.02-1.9,0-.44.02-.58-.08-.46-.57.51-1.97.97-3.96,1.03-6.01.07-2.62-.29-5.15-1.62-7.47-1.67-2.9-4.94-3.84-7.92-2.31-1.54.79-2.74,1.94-3.74,3.41.3.03.42-.17.56-.28,1.42-1.12,2.97-1.92,4.79-2.17,2.24-.31,4.14.65,5.19,2.69.97,1.89,1.13,3.93,1.1,6-.04,2.71-.72,5.27-1.8,7.74-.26.59-.25.62.4.59,1.79-.08,3.58-.18,5.37,0,.46.04.9.15,1.33.33.92.38,1.31,1.12,1.4,2.06.03.33-.11.47-.46.45-1.04-.04-2.07-.07-3.11-.09-6.57-.15-13.1.25-19.57,1.43-.6.11-.96-.02-1.32-.53-1.82-2.54-2.86-5.39-3.4-8.42-1.71-9.53.77-17.94,6.86-25.36,1.77-2.15,3.79-4.06,5.86-5.91,1.02-.92,2-1.87,2.92-2.89,1.79-1.98,2.74-4.38,3.45-6.91.73-2.56,1.94-4.85,3.86-6.73.21-.2.33-.45.47-.69.94-1.67,1.9-3.33,3.3-4.68.58-.56,1.18-1.11,1.87-1.54.19-.12.39-.31.62-.17.26.15.18.45.14.68-.18,1.1-.22,2.2-.21,3.31,0,.57.1,1.12.21,1.67.02.12.03.25.21.29Zm-.8,16.79c.05-.04.11-.07.16-.12,1.86-1.9,4-3.34,6.62-4,.11-.03.28-.05.25-.21-.03-.18-.21-.16-.34-.14-.61.09-1.19.3-1.75.53-2.02.83-3.72,2.07-4.93,3.94Zm3.75-10.56c.56.78,1.28,1.18,2.21,1.07.84-.1,1.05-.48.71-1.23-.03-.06-.06-.13-.08-.19-.08-.24-.18-.33-.37-.07-.4.53-.97.64-1.59.56-.29-.04-.58-.09-.86-.14Zm3.08,4.5c-1.35-.38-4.67.33-5.77,1.46,1.96-.59,3.84-1.1,5.77-1.46Zm-7.2-14.47c-1.3,1.63-2.26,3.42-2.4,5.56.77-1.86,1.42-3.78,2.4-5.56Zm6.96,15.43c-1.31-.17-4.46.84-5.08,1.64,1.72-.65,3.39-1.17,5.08-1.64Z"/>
      </g>
      <g>
        <path class="cls-1" d="m97.97,125.17c1.3-.41,2.46-.74,3.6-1.13,3.96-1.38,7.24-3.77,10.02-6.87,2.96-3.29,5-7.08,5.85-11.44.94-4.83.74-9.6-1.32-14.14-1.83-4.02-4.75-6.92-9.18-7.93-2.77-.63-5.52-.47-8.12.83-.14.07-.29.13-.44.17-.69.2-1.39-.08-1.62-.63-.26-.62-.02-1.31.64-1.66.92-.49,1.89-.85,2.9-1.09,7.17-1.76,14.29,1.54,17.75,8.27,2.15,4.19,2.77,8.65,2.43,13.29-.22,3.09-.92,6.07-2.14,8.92-.65,1.51-1.44,2.93-2.35,4.29-.05.08-.16.14-.11.34.67-.54,1.33-1.05,1.96-1.59,3.83-3.31,7.06-7.14,9.64-11.5.16-.28.18-.43-.1-.64-4.01-3.1-4.51-7.93-3.04-11.5,1.72-4.17,6.2-6.88,10.68-6.46,5.32.5,9.08,4.6,9.2,10.02.11,5.07-3.74,9.51-8.84,10.21-1.52.21-3.03.14-4.48-.36-.6-.21-.83-.03-1.13.46-2.93,4.64-6.39,8.81-10.63,12.31-3.98,3.28-8.41,5.8-13.1,7.89-.91.41-1.83.81-2.74,1.22-.69.31-1.37.33-2.08.02-1.03-.45-2.08-.83-3.25-1.29Zm35.99-22.06c4.59,0,8.33-3.75,8.34-8.37,0-4.48-3.63-8.17-8.07-8.18-4.69,0-8.7,3.83-8.69,8.33,0,4.52,3.8,8.22,8.43,8.22Z"/>
        <path class="cls-4" d="m97.97,125.17c1.3-.41,2.46-.74,3.6-1.13,3.96-1.38,7.24-3.77,10.02-6.87,2.96-3.29,5-7.08,5.85-11.44.94-4.83.74-9.6-1.32-14.14-1.83-4.02-4.75-6.92-9.18-7.93-2.77-.63-5.52-.47-8.12.83-.14.07-.29.13-.44.17-.69.2-1.39-.08-1.62-.63-.26-.62-.02-1.31.64-1.66.92-.49,1.89-.85,2.9-1.09,7.17-1.76,14.29,1.54,17.75,8.27,2.15,4.19,2.77,8.65,2.43,13.29-.22,3.09-.92,6.07-2.14,8.92-.65,1.51-1.44,2.93-2.35,4.29-.05.08-.16.14-.11.34.67-.54,1.33-1.05,1.96-1.59,3.83-3.31,7.06-7.14,9.64-11.5.16-.28.18-.43-.1-.64-4.01-3.1-4.51-7.93-3.04-11.5,1.72-4.17,6.2-6.88,10.68-6.46,5.32.5,9.08,4.6,9.2,10.02.11,5.07-3.74,9.51-8.84,10.21-1.52.21-3.03.14-4.48-.36-.6-.21-.83-.03-1.13.46-2.93,4.64-6.39,8.81-10.63,12.31-3.98,3.28-8.41,5.8-13.1,7.89-.91.41-1.83.81-2.74,1.22-.69.31-1.37.33-2.08.02-1.03-.45-2.08-.83-3.25-1.29Zm35.99-22.06c4.59,0,8.33-3.75,8.34-8.37,0-4.48-3.63-8.17-8.07-8.18-4.69,0-8.7,3.83-8.69,8.33,0,4.52,3.8,8.22,8.43,8.22Z"/>
      </g>
      <g>
        <path class="cls-1" d="m76.92,23.09c1.12,0,2.25,0,3.37,0,.71,0,.95.24.95.95,0,1.9.01,3.8,0,5.69,0,.43.1.57.55.57,1.79-.02,3.59,0,5.38,0,.97,0,1.19.22,1.2,1.17,0,2.09,0,4.18,0,6.27,0,.87-.26,1.12-1.15,1.12-1.81,0-3.62.01-5.43,0-.41,0-.55.1-.54.52.02,1.88.01,3.76,0,5.64,0,.87-.24,1.11-1.08,1.11-2.21,0-4.43,0-6.64,0-.72,0-1.03-.3-1.03-1.02,0-1.92-.01-3.83,0-5.75,0-.39-.1-.51-.5-.51-1.83.02-3.66,0-5.48,0-.89,0-1.13-.24-1.13-1.12,0-2.11,0-4.22,0-6.33,0-.82.26-1.08,1.07-1.08,1.86,0,3.73-.01,5.59,0,.41,0,.5-.12.5-.51-.02-1.86-.02-3.73-.02-5.59,0-.97.2-1.17,1.18-1.17,1.07,0,2.14,0,3.22,0Z"/>
        <path class="cls-4" d="m76.92,23.09c1.12,0,2.25,0,3.37,0,.71,0,.95.24.95.95,0,1.9.01,3.8,0,5.69,0,.43.1.57.55.57,1.79-.02,3.59,0,5.38,0,.97,0,1.19.22,1.2,1.17,0,2.09,0,4.18,0,6.27,0,.87-.26,1.12-1.15,1.12-1.81,0-3.62.01-5.43,0-.41,0-.55.1-.54.52.02,1.88.01,3.76,0,5.64,0,.87-.24,1.11-1.08,1.11-2.21,0-4.43,0-6.64,0-.72,0-1.03-.3-1.03-1.02,0-1.92-.01-3.83,0-5.75,0-.39-.1-.51-.5-.51-1.83.02-3.66,0-5.48,0-.89,0-1.13-.24-1.13-1.12,0-2.11,0-4.22,0-6.33,0-.82.26-1.08,1.07-1.08,1.86,0,3.73-.01,5.59,0,.41,0,.5-.12.5-.51-.02-1.86-.02-3.73-.02-5.59,0-.97.2-1.17,1.18-1.17,1.07,0,2.14,0,3.22,0Z"/>
      </g>
      <g>
        <path class="cls-1" d="m76.94,13.44c1.33-.06,2.51.45,3.6,1.2,4.03,2.79,8.06,5.57,12.09,8.38,8.71,6.06,17.4,12.16,26.04,18.31,3.82,2.72,7.63,5.45,11.45,8.18.26.19.51.37.64.68.25.62-.13,1.1-.79,1.03-.29-.03-.53-.18-.76-.35-5.1-3.62-10.19-7.25-15.3-10.86-6.25-4.4-12.5-8.79-18.77-13.17-5.23-3.65-10.47-7.28-15.72-10.91-1.69-1.17-3.38-1.17-5.05,0-6.94,4.86-13.86,9.73-20.79,14.59-7.41,5.19-14.75,10.48-22.11,15.74-2.12,1.51-4.22,3.04-6.32,4.57-.26.18-.5.38-.83.43-.3.04-.57,0-.76-.24-.2-.27-.16-.56-.02-.85.11-.23.31-.38.51-.52,8.86-6.49,17.8-12.86,26.77-19.2,7.49-5.29,15-10.56,22.5-15.83,1.08-.76,2.27-1.19,3.63-1.16Z"/>
        <path class="cls-4" d="m76.94,13.44c1.33-.06,2.51.45,3.6,1.2,4.03,2.79,8.06,5.57,12.09,8.38,8.71,6.06,17.4,12.16,26.04,18.31,3.82,2.72,7.63,5.45,11.45,8.18.26.19.51.37.64.68.25.62-.13,1.1-.79,1.03-.29-.03-.53-.18-.76-.35-5.1-3.62-10.19-7.25-15.3-10.86-6.25-4.4-12.5-8.79-18.77-13.17-5.23-3.65-10.47-7.28-15.72-10.91-1.69-1.17-3.38-1.17-5.05,0-6.94,4.86-13.86,9.73-20.79,14.59-7.41,5.19-14.75,10.48-22.11,15.74-2.12,1.51-4.22,3.04-6.32,4.57-.26.18-.5.38-.83.43-.3.04-.57,0-.76-.24-.2-.27-.16-.56-.02-.85.11-.23.31-.38.51-.52,8.86-6.49,17.8-12.86,26.77-19.2,7.49-5.29,15-10.56,22.5-15.83,1.08-.76,2.27-1.19,3.63-1.16Z"/>
      </g>
      <g>
        <path class="cls-1" d="m140.22,94.88c.02,3.42-2.74,6.2-6.18,6.22-3.64.02-6.4-2.62-6.43-6.16-.02-3.41,2.89-6.28,6.39-6.29,3.56-.01,6.19,2.63,6.21,6.23Zm-1.91-.02c.01-2.44-1.82-4.3-4.28-4.32-2.44-.03-4.52,1.96-4.53,4.33-.02,2.41,1.95,4.34,4.42,4.35,2.44.01,4.38-1.92,4.4-4.37Z"/>
        <path class="cls-4" d="m140.22,94.88c.02,3.42-2.74,6.2-6.18,6.22-3.64.02-6.4-2.62-6.43-6.16-.02-3.41,2.89-6.28,6.39-6.29,3.56-.01,6.19,2.63,6.21,6.23Zm-1.91-.02c.01-2.44-1.82-4.3-4.28-4.32-2.44-.03-4.52,1.96-4.53,4.33-.02,2.41,1.95,4.34,4.42,4.35,2.44.01,4.38-1.92,4.4-4.37Z"/>
      </g>
      <path class="cls-2" d="m107.2,81.26c-.21-.2-.54.31-.71-.12.13-.44.59-.72.6-1.25-.43.06-.87-.37-1.26.08-.3.34-.76.55-.83,1.06-.15,0-.29.02-.42.12-.31.24-.27-.06-.31-.22.28-.4.55-.8.84-1.18.18-.24.15-.34-.13-.45-2.16-.9-3.59-2.48-4.23-4.73-.23-.82-.19-1.68-.18-2.53,0-.56.06-1.12-.11-1.67-.26-.83-.83-1.32-1.63-1.59-.12-.04-.28-.03-.34-.18.01-.04.02-.09.04-.1.85-.24,1.46-.74,2.06-1.41,1.4-1.55,3.95-.91,4.82,1.1.14.31.28.62.38.94.27.88.85,1.46,1.57,2.02,1.8,1.39,3,3.28,4.11,5.23.34.6.7,1.18,1.05,1.77.09.15.29.27.02.48-.2.16.07.24.16.32,1.05,1.01,2.11,2.01,3.16,3.02.1.09.19.2.28.3.07.07.16.15.1.25-.07.11-.19.06-.3.03-1.08-.29-2.09-.74-3.04-1.33-.79-.49-1.6-.96-2.4-1.43-.08-.05-.16-.11-.25-.15-.93-.38-2.85.66-3.08,1.67Zm3.76-2.68c-3.08-.78-5.79-1.92-6.91-5.2-.2.7.48,2.15,1.39,3.04,1.51,1.5,4.31,2.44,5.52,2.16Zm-8.99-10.72c-.13.01-.34.03-.35.33,0,.3.22.35.42.37.25.02.4-.14.41-.39,0-.24-.17-.32-.48-.31Z"/>
    </g>
  </g>
</svg>